<?xml version="1.0" encoding="UTF-8"?><svg id="Layer_1" xmlns="http://www.w3.org/2000/svg" viewBox="0 0 340 250"><defs><style>.cls-1{fill:#ececf1;}.cls-2{fill:#333;}.cls-3{fill:#6bcbba;}.cls-4{isolation:isolate;opacity:.1;}</style></defs><g><rect class="cls-3" x="88.26" y="76.63" width="19.09" height="19.09" transform="translate(-25.72 127.79) rotate(-60)"/><path class="cls-2" d="M76.84,92.69l9.97-17.26,17.26,9.96-9.97,17.26-17.26-9.96Zm10.27-16.11l-9.12,15.8,15.8,9.12,9.12-15.8-15.8-9.12Z"/><circle class="cls-1" cx="109.56" cy="141.02" r="8.01"/><path class="cls-2" d="M95.23,141.02c0-4.66,3.77-8.43,8.43-8.43,4.66,0,8.43,3.77,8.43,8.43,0,4.66-3.77,8.43-8.43,8.43-4.66,0-8.43-3.77-8.43-8.43Zm.84,0c0,4.19,3.4,7.59,7.59,7.59,4.19,0,7.59-3.4,7.59-7.59,0-4.19-3.4-7.59-7.59-7.59-4.19,0-7.59,3.4-7.59,7.59Z"/><path class="cls-3" d="M55.45,230.85v-72.09c0-1.98,1.61-3.58,3.58-3.58h77.57c1.98,0,3.58,1.61,3.58,3.58v72.09c0,1.98-1.61,3.58-3.58,3.58H59.03c-1.98,0-3.58-1.61-3.58-3.58Z"/><path class="cls-2" d="M88.76,233.38v-76.76c0-1.98,1.61-3.58,3.58-3.58h10.96c1.98,0,3.58,1.61,3.58,3.58v76.76c0,1.98-1.61,3.58-3.58,3.58h-10.96c-1.98,0-3.58-1.61-3.58-3.58Z"/><path class="cls-2" d="M47.28,133.99s10.05,5.44,10.5,12.88c.45,7.44-8.86,14.06-8.86,14.06,0,0-10.05-5.44-10.5-12.88-.45-7.44,8.86-14.06,8.86-14.06Z"/><path class="cls-2" d="M23.94,162.34s5.47-10.03,12.91-10.46c7.44-.43,14.03,8.9,14.03,8.9,0,0-5.47,10.03-12.91,10.46-7.44,.43-14.03-8.9-14.03-8.9Z"/><polygon class="cls-4" points="62.18 155.39 83.03 155.39 55.66 191.52 55.66 164 62.18 155.39"/><path class="cls-3" d="M30.26,210.38l-8.4-6.36h0c-1.58-1.2-1.89-3.44-.69-5.02l57.03-75.27s0,0,0,0c1.2-1.58,3.44-1.89,5.02-.69l8.4,6.36h0c1.58,1.2,1.89,3.44,.69,5.02l-57.03,75.27c-.68,.9-1.74,1.42-2.86,1.42-.78,0-1.54-.25-2.16-.73Z"/><rect class="cls-2" x="47.94" y="156.25" width="18.13" height="18.13" transform="translate(-109.19 110.91) rotate(-52.85)"/><rect class="cls-1" x="113.29" y="99.7" width="19.09" height="19.09" transform="translate(-24.09 35.51) rotate(-15)"/><path class="cls-2" d="M118.74,104.44l19.25-5.16,5.16,19.25-19.25,5.16-5.16-19.25Zm18.65-4.13l-17.62,4.72,4.72,17.62,17.62-4.72-4.72-17.62Z"/></g><circle class="cls-1" cx="259.42" cy="80.33" r="51.85"/><polygon class="cls-2" points="264.42 236.5 253.8 236.5 258.64 72.52 264.42 236.5"/><polygon class="cls-2" points="259.55 128.52 268.81 115.7 259.42 131.69 258.4 129.91 259.55 128.52"/><polygon class="cls-2" points="258.53 141.46 249.27 128.64 258.66 144.63 259.67 142.85 258.53 141.46"/><path class="cls-2" d="M195.91,18.57l7.7-6.16c-5.98-.66-8.44,2.6-9.45,5.18-4.67-1.94-9.76,.6-9.76,.6l15.41,5.59c-.78-2.08-2.13-3.89-3.9-5.22Z"/><path class="cls-2" d="M313.01,81.3l7.7-6.16c-5.98-.66-8.44,2.6-9.45,5.18-4.67-1.94-9.76,.6-9.76,.6l15.41,5.59c-.78-2.08-2.13-3.89-3.9-5.22Z"/><path class="cls-2" d="M186.71,134.83l7.7-6.16c-5.98-.66-8.44,2.6-9.45,5.18-4.67-1.94-9.76,.6-9.76,.6l15.41,5.59c-.78-2.08-2.13-3.89-3.9-5.22Z"/></svg>