<?xml version="1.0" encoding="UTF-8"?><svg id="Layer_1" xmlns="http://www.w3.org/2000/svg" xmlns:xlink="http://www.w3.org/1999/xlink" viewBox="0 0 580 420"><defs><style>.cls-1{fill:none;}.cls-2{clip-path:url(#clippath);}.cls-3{fill:#f7f7f9;}.cls-4{fill:#fff;}.cls-5{fill:#ececf1;}.cls-6{fill:#333;}.cls-7{fill:#6bcbba;}.cls-8{fill:gray;}.cls-9{isolation:isolate;}.cls-9,.cls-10{opacity:0;}</style><clipPath id="clippath"><rect class="cls-1" x="24.9" y="13.77" width="529.74" height="275.59"/></clipPath></defs><g class="cls-2"><g><circle class="cls-5" cx="205.3" cy="167.68" r="9.61"/><path class="cls-9" d="M196.49,163.88c-2.09,4.88,.18,10.53,5.06,12.62,4.88,2.09,10.53-.18,12.62-5.06-2.75,3.08-7.16,4.07-10.96,2.45-4.88-2.09-7.15-7.74-5.06-12.62-.69,.78-1.25,1.66-1.66,2.62Z"/><path class="cls-3" d="M205.58,162.3l-3.26,5.4,3.26,1.92,3.25-1.92-3.25-5.4Zm-3.26,6.02l3.26,4.59,3.26-4.59-3.26,1.92-3.26-1.92Z"/><circle class="cls-5" cx="294.14" cy="136.7" r="24.61"/><path class="cls-9" d="M275.84,120.26c-1.77,1.99-3.21,4.25-4.26,6.7-5.34,12.5,.46,26.97,12.96,32.31,12.5,5.34,26.97-.46,32.31-12.96-7.04,7.9-18.33,10.42-28.06,6.26-12.5-5.34-18.3-19.81-12.96-32.31h0Z"/><path class="cls-3" d="M292.9,139.77h7.4v3.72h-4.55c.07,1.06,.11,2.05,.19,3.11h-3.83v-3.07h-4.55c0-1.22-.15-2.43,.07-3.56,.11-.61,.8-1.14,1.22-1.67,1.44-1.71,2.88-3.38,4.36-5.08,.57-.64,1.14-1.25,1.78-1.97h-7.09v-3.72h4.21v-3.11h3.68v3.03h4.59c0,1.25,.15,2.46-.07,3.61-.11,.61-.8,1.14-1.25,1.67-1.44,1.71-2.88,3.38-4.36,5.08-.56,.68-1.13,1.28-1.78,1.97Z"/><circle class="cls-5" cx="107.77" cy="92.69" r="75.46"/><path class="cls-9" d="M38.6,62.84c-16.38,38.32,1.41,82.67,39.73,99.05,38.32,16.38,82.67-1.41,99.05-39.73-21.57,24.21-56.19,31.94-86.01,19.19-38.32-16.38-56.11-60.73-39.72-99.05-5.43,6.1-9.84,13.03-13.05,20.54Z"/><path class="cls-3" d="M143.54,75.87c1.41-9.45-5.78-14.53-15.62-17.92l3.19-12.8-7.79-1.94-3.11,12.47c-2.05-.51-4.15-.99-6.24-1.47l3.13-12.55-7.79-1.94-3.19,12.8c-1.7-.39-3.36-.77-4.98-1.17v-.04s-10.74-2.68-10.74-2.68l-2.07,8.32s5.78,1.33,5.66,1.41c3.16,.79,3.73,2.88,3.63,4.53l-3.64,14.59c.22,.06,.5,.14,.81,.26-.26-.06-.54-.14-.82-.2l-5.1,20.43c-.39,.96-1.37,2.4-3.57,1.85,.08,.11-5.66-1.41-5.66-1.41l-3.87,8.92,10.14,2.53c1.89,.47,3.74,.97,5.56,1.43l-3.23,12.95,7.78,1.94,3.19-12.81c2.13,.58,4.19,1.11,6.21,1.61l-3.18,12.75,7.79,1.94,3.23-12.93c13.29,2.51,23.28,1.5,27.49-10.52,3.39-9.68-.17-15.26-7.16-18.9,5.09-1.17,8.93-4.52,9.95-11.44h0Zm-17.81,24.97c-2.41,9.68-18.7,4.45-23.99,3.13l4.28-17.16c5.28,1.32,22.22,3.93,19.71,14.02Zm2.41-25.11c-2.2,8.8-15.76,4.33-20.16,3.23l3.88-15.56c4.4,1.1,18.57,3.14,16.28,12.33Z"/><polygon class="cls-6" points="107.98 92.69 108.19 92.69 111.92 306.62 104.04 306.62 107.98 92.69"/><rect class="cls-6" x="107.57" y="208.99" width="14.1" height="3.73" transform="translate(-85.03 77.67) rotate(-27.77)"/><circle class="cls-5" cx="385.52" cy="124.71" r="61.07"/><path class="cls-9" d="M329.53,100.54c-13.26,31.02,1.14,66.91,32.16,80.17,31.02,13.26,66.91-1.14,80.17-32.16-17.46,19.6-45.48,25.85-69.61,15.53-31.02-13.26-45.41-49.15-32.15-80.17-4.4,4.93-7.96,10.55-10.56,16.62Z"/><rect class="cls-6" x="385.35" y="218.83" width="11.41" height="3.02" transform="translate(-57.62 207.55) rotate(-27.77)"/><polygon class="cls-6" points="205.33 167.68 205.36 167.68 205.83 194.94 204.83 194.94 205.33 167.68"/><rect class="cls-6" x="205.28" y="182.5" width="1.8" height=".48" transform="translate(-61.39 117.09) rotate(-27.77)"/><polygon class="cls-6" points="294.21 136.7 294.28 136.7 295.5 206.48 292.93 206.48 294.21 136.7"/><rect class="cls-6" x="294.08" y="174.63" width="4.6" height="1.22" transform="translate(-47.51 158.25) rotate(-27.77)"/><g class="cls-10"><path class="cls-6" d="M124.69,295.97s.32-6.68,6.85-5.9"/><circle class="cls-7" cx="122.84" cy="286.35" r="3.27"/><rect class="cls-6" x="122.31" y="291.86" width=".92" height="6.46"/><path class="cls-6" d="M147.76,280.74s.32-6.68,6.85-5.9"/><circle class="cls-7" cx="145.92" cy="271.12" r="3.27"/><rect class="cls-6" x="145.39" y="276.63" width=".92" height="6.46"/><path class="cls-6" d="M217.32,229.08s.25-5.3,5.44-4.69"/><circle class="cls-7" cx="215.86" cy="221.43" r="2.6"/><rect class="cls-6" x="215.43" y="225.81" width=".73" height="5.13"/><path class="cls-6" d="M318.85,212.46s.25-5.3,5.44-4.69"/><circle class="cls-7" cx="317.39" cy="204.82" r="2.6"/><rect class="cls-6" x="316.96" y="209.19" width=".73" height="5.13"/><path class="cls-6" d="M221.94,242.92s.25-5.3,5.44-4.69"/><circle class="cls-7" cx="220.47" cy="235.28" r="2.6"/><rect class="cls-6" x="220.05" y="239.65" width=".73" height="5.13"/><path class="cls-6" d="M210.86,253.07s.25-5.3,5.44-4.69"/><circle class="cls-7" cx="209.4" cy="245.43" r="2.6"/><rect class="cls-6" x="208.97" y="249.8" width=".73" height="5.13"/><path class="cls-6" d="M334.54,221.23s.25-5.3,5.44-4.69"/><circle class="cls-7" cx="333.08" cy="213.59" r="2.6"/><rect class="cls-6" x="332.66" y="217.96" width=".73" height="5.13"/><path class="cls-6" d="M185.02,232.77s.25-5.3,5.44-4.69"/><circle class="cls-7" cx="183.55" cy="225.12" r="2.6"/><rect class="cls-6" x="183.13" y="229.5" width=".73" height="5.13"/><path class="cls-6" d="M305.01,206.46s.25-5.3,5.44-4.69"/><circle class="cls-7" cx="303.54" cy="198.82" r="2.6"/><rect class="cls-6" x="303.12" y="203.19" width=".73" height="5.13"/><path class="cls-6" d="M84.54,297.36s.32-6.68,6.85-5.9"/><circle class="cls-7" cx="82.69" cy="287.73" r="3.27"/><rect class="cls-6" x="82.16" y="293.24" width=".92" height="6.46"/><path class="cls-6" d="M402.51,295.51s.32-6.68,6.85-5.9"/><circle class="cls-7" cx="400.67" cy="285.89" r="3.27"/><rect class="cls-6" x="400.14" y="291.39" width=".92" height="6.46"/><path class="cls-6" d="M375.75,279.82s.32-6.68,6.85-5.9"/><circle class="cls-7" cx="373.9" cy="270.2" r="3.27"/><rect class="cls-6" x="373.37" y="275.7" width=".92" height="6.46"/><path class="cls-6" d="M372.06,303.36s.32-6.68,6.85-5.9"/><circle class="cls-7" cx="370.21" cy="293.73" r="3.27"/><rect class="cls-6" x="369.68" y="299.24" width=".92" height="6.46"/></g><path class="cls-5" d="M89.85,308.34s145.37-38.3,143.99-77.53c-2.54-10.85-20.08-13.61-20.08-13.61,0,0-41.54-5.54-18.92-18.92,22.61-13.38,84.46-10.15,84.46-10.15,0,0-63.69,10.15-35.54,15.69,22.61,1.38,51.69,7.38,51.69,7.38,0,0,59.07,12.46,67.38,42.92,8.31,30.46,1.38,54,1.38,54l-274.36,.23Z"/><path class="cls-6" d="M279.3,95.39l4.25-3.4c-3.3-.36-4.66,1.44-5.21,2.86-2.58-1.07-5.39,.33-5.39,.33l8.5,3.09c-.43-1.15-1.18-2.14-2.15-2.88Z"/><path class="cls-6" d="M200.38,121.7l4.25-3.4c-3.3-.36-4.66,1.44-5.21,2.86-2.58-1.07-5.39,.33-5.39,.33l8.5,3.09c-.43-1.15-1.18-2.14-2.15-2.88Z"/><path class="cls-6" d="M221.15,67.24l4.25-3.4c-3.3-.36-4.66,1.44-5.21,2.86-2.58-1.07-5.39,.33-5.39,.33l8.5,3.09c-.43-1.15-1.18-2.14-2.15-2.88Z"/><path class="cls-3" d="M385.8,133.13l3.02-11.38,7.16-2.61,1.78-6.69-.06-.17-7.04,2.57,5.07-19.11h-14.39l-6.64,24.94-5.54,2.02-1.83,6.9,5.54-2.02-3.91,14.7h38.31l2.46-9.15h-23.91"/><polygon class="cls-6" points="385.69 124.71 385.86 124.71 388.88 297.85 382.5 297.85 385.69 124.71"/><path class="cls-4" d="M258.01,308.7l-.55-.84c22.66-14.87,37.26-38.06,41.2-44.81,2.09-3.58,5.24-10.84,2.88-19.21-2.16-7.66-8.38-14.29-18.48-19.72-7.15-3.84-19.37-7.72-31.18-11.47-14.95-4.75-27.87-8.84-29.02-12.38-.14-.43-.2-1.1,.34-1.88,3.53-5.09,30.6-9.57,53.66-10.56l.04,1c-22.31,.95-49.66,5.49-52.88,10.13-.33,.47-.28,.79-.21,1,.99,3.05,14.91,7.46,28.37,11.73,11.86,3.76,24.12,7.65,31.35,11.54,10.35,5.56,16.73,12.4,18.97,20.33,2.46,8.73-.81,16.27-2.97,19.99-3.96,6.8-18.67,30.15-41.52,45.14Z"/></g></g><path class="cls-7" d="M529.39,60.92H194.01v1.49h234.55c14.32,0,28.03,2.58,40.69,7.32h0c1.74,.65,3.45,1.34,5.15,2.07,3.91,1.67,7.71,3.56,11.38,5.65,2.29,1.29,4.53,2.67,6.71,4.11,4.66,3.07,9.08,6.47,13.24,10.17h0c.19,.16,.37,.32,.55,.49,23.67,21.28,38.56,52.15,38.56,86.48v109.13c0,.18,0,.36,0,.54-.21,6.17-4.03,11.32-9.11,10.02-8.66-2.21-17.45-3.83-26.38-3.83H93.45c-17.3,0-34.88,1.65-50.95,8.07-.54,.22-1.04,.08-1.53-.07-.23-.07-.46-.15-.69-.24v1.58c1.69,.57,3.49,.88,5.37,.88h483.75c9.15,0,16.64-7.3,16.93-16.37,.01-.19,.01-.38,.01-.58V77.87c0-9.34-7.6-16.95-16.95-16.95Z"/><g><circle class="cls-7" cx="484.22" cy="259.76" r="28.37"/><path class="cls-6" d="M514.67,296.11h-60.89c-4.23,0-7.67-3.44-7.67-7.67v-21.89c0-4.23,3.44-7.67,7.67-7.67h60.89c4.23,0,7.67,3.44,7.67,7.67v21.89c0,4.23-3.44,7.67-7.67,7.67Z"/><g><path class="cls-4" d="M469.69,287.39c-.26,0-.51-.1-.71-.29l-8.93-8.93c-.19-.19-.3-.45-.29-.72,0-.27,.12-.53,.31-.71l9.42-8.93c.4-.38,1.03-.36,1.41,.04,.38,.4,.36,1.03-.04,1.41l-8.68,8.22,8.2,8.2c.39,.39,.39,1.02,0,1.41-.2,.2-.45,.29-.71,.29Z"/><path class="cls-4" d="M499.54,287.39c-.26,0-.51-.1-.71-.29-.39-.39-.39-1.02,0-1.41l8.2-8.2-8.68-8.22c-.4-.38-.42-1.01-.04-1.41s1.01-.42,1.41-.04l9.42,8.93c.2,.19,.31,.44,.31,.71,0,.27-.1,.53-.29,.72l-8.93,8.93c-.2,.2-.45,.29-.71,.29Z"/><path class="cls-4" d="M478.31,287.68c-.18,0-.35-.05-.51-.14-.47-.28-.63-.9-.34-1.37l11.31-18.85c.28-.47,.9-.63,1.37-.34,.47,.28,.63,.9,.34,1.37l-11.31,18.85c-.19,.31-.52,.49-.86,.49Z"/></g></g><path class="cls-5" d="M251.74,390.93h0c.61,2.49,.92,5.06,.88,7.64h0c-.68,.84-1.36,1.67-2.04,2.51-.03,.03-.05,.06-.08,.1-1.34,1.64-2.67,3.29-4.01,4.93,1.64,.3,3.32,.4,4.99,.3-.06,.2-.12,.41-.18,.61h-18.02c-2.18-4.71-3.88-9.66-5.04-14.73h0c-10.63,3.64-20.58,2.45-22.89-10.04-2.38-2.59-4.28-5.59-5.64-8.83,.05,0,.08-.01,.13-.02h.06c2.77-.44,3.58-4.06,1.24-5.61-.41-.27-.83-.53-1.26-.77-.75-.42-1.52-.79-2.32-1.12l-.02-.14c-.45-2.98,2.84-5.01,5.41-3.44,5.34,3.27,12.32,4.76,17.27,8.82,3.32,2.73,5.61,6.66,6.43,10.87l.02,.14c-.32-3.82-.35-7.67-.05-11.5,.24-3.04,.67-6.06,1.28-9.05,.68-3.38,1.61-6.72,2.76-9.98-.25-.12-.5-.25-.75-.38-11.41-.23-19.4-5.45-15.7-19.76-.39-1.5-.65-3.04-.81-4.58h.06c2.77-.44,3.58-4.06,1.24-5.61-.41-.27-.83-.53-1.26-.77,0-.05,.01-.11,.02-.16,.61-5.55,7.72-7.46,11.18-3.08,2.89,3.65,6.16,7.2,7.91,11.42,1.54,3.7,2.44,9.44,1.83,14.21,2.16-4.29,4.72-8.37,7.68-12.17,.16-.21,.33-.41,.49-.61-1.57-2.51-1.82-5.69-3.6-8.03-2.81-3.69-2.77-7.52,1.81-9.84,2.15-5.49,6.25-6.2,9.24-2.16,.6,.81,1.58,1.23,2.13,2.06-.3,.37,.79,6.37,1.19,6.32-.23,1.4-.72,2.78-1.35,4.06-1.74,3.55-4.63,6.5-8.09,8.4-7.2,8.97-12.19,19.71-14.5,30.99-.43,2.09-.76,4.19-.99,6.31-.29,2.59-.43,5.19-.43,7.78,0,10.33,2.27,20.61,6.58,30.02-.46-2.03-.57-4.13-.32-6.2,.58-4.68,2.92-9.12,4.76-13.55,2.07-4.99,9.15-5.02,11.24-.04,.02,.05,.04,.1,.06,.15l-.16,.62c-1.56,1.5-.42,4.06,1.64,3.93h0Z"/><path class="cls-5" d="M380.59,394.15c1.4,.09,2.17-1.65,1.11-2.66l-.11-.42s.03-.07,.04-.1c1.41-3.37,6.2-3.34,7.6,.03,1.24,2.99,2.82,5.99,3.21,9.15,.17,1.4,.1,2.82-.21,4.19,2.91-6.36,4.44-13.3,4.44-20.28,0-1.75-.1-3.51-.29-5.26-.16-1.43-.38-2.85-.67-4.26-1.56-7.62-4.93-14.88-9.8-20.94-2.34-1.28-4.29-3.28-5.47-5.67-.42-.86-.75-1.79-.91-2.74,.27,.03,1-4.02,.8-4.27,.37-.56,1.03-.84,1.44-1.39,2.02-2.73,4.79-2.25,6.24,1.46,3.1,1.56,3.13,4.15,1.23,6.65-1.21,1.59-1.37,3.73-2.44,5.43,.11,.14,.22,.27,.33,.41,2,2.57,3.73,5.32,5.19,8.22-.41-3.22,.2-7.1,1.23-9.6,1.18-2.85,3.4-5.25,5.34-7.71,2.34-2.96,7.14-1.67,7.56,2.08,0,.04,0,.07,.01,.11-.29,.16-.57,.34-.85,.52-1.58,1.05-1.03,3.5,.84,3.78h.04c-.1,1.05-.28,2.08-.55,3.1,2.5,9.67-2.9,13.2-10.61,13.35-.17,.09-.34,.17-.51,.26,.78,2.2,1.41,4.46,1.87,6.74,.41,2.02,.7,4.06,.86,6.11,.2,2.59,.18,5.19-.03,7.77v-.09c.57-2.85,2.11-5.5,4.36-7.34,3.34-2.74,8.06-3.76,11.67-5.96,1.74-1.06,3.96,.31,3.66,2.32v.1c-.55,.22-1.08,.47-1.58,.75-.29,.16-.57,.34-.85,.52-1.58,1.05-1.03,3.5,.84,3.78h.04s.06,.02,.09,.02c-.92,2.19-2.2,4.22-3.81,5.97-1.56,8.44-8.28,9.24-15.47,6.79h0c-.79,3.42-1.93,6.76-3.41,9.95h-12.18c-.04-.14-.08-.27-.12-.41,1.13,.07,2.26,0,3.37-.2-.9-1.11-1.81-2.23-2.71-3.33-.02-.02-.04-.04-.06-.07-.46-.57-.92-1.13-1.38-1.7h0c-.03-1.74,.18-3.48,.59-5.16h0Z"/><g><path class="cls-6" d="M496.28,406.55s-.37-7.69-7.89-6.79"/><rect class="cls-8" x="28.92" y="405.55" width="524.07" height="1.18"/><path class="cls-6" d="M329.38,403.76s.37-7.69,7.89-6.79"/><circle class="cls-7" cx="327.26" cy="392.68" r="3.76"/><rect class="cls-6" x="326.65" y="399.02" width="1.06" height="7.44"/><path class="cls-6" d="M68.51,402.7s.37-7.69,7.89-6.79"/><circle class="cls-7" cx="66.38" cy="391.62" r="3.76" transform="translate(-327.23 444.93) rotate(-88.09)"/><rect class="cls-6" x="65.77" y="397.96" width="1.06" height="7.44"/><path class="cls-6" d="M130.14,403.23s.37-7.69,7.89-6.79"/><circle class="cls-7" cx="128.01" cy="392.15" r="3.76"/><rect class="cls-6" x="127.4" y="398.49" width="1.06" height="7.44"/><path class="cls-6" d="M432.39,406.55s.37-7.69,7.89-6.79"/><path class="cls-6" d="M361.73,406.55s.37-7.69,7.89-6.79"/><path class="cls-6" d="M104.04,406.55s.37-7.69,7.89-6.79"/><path class="cls-6" d="M464.27,406.55s.37-7.69,7.89-6.79"/><path class="cls-6" d="M449.39,406.55s.37-7.69,7.89-6.79"/><path class="cls-6" d="M418.71,406.55s-.37-7.69-7.89-6.79"/><path class="cls-6" d="M296.5,406.55s-.37-7.69-7.89-6.79"/><path class="cls-6" d="M195.02,406.55s-.37-7.69-7.89-6.79"/><path class="cls-6" d="M87.17,406.55s-.37-7.69-7.89-6.79"/><path class="cls-6" d="M450.58,407.08s-.37-7.69-7.89-6.79"/></g></svg>