<?xml version="1.0" encoding="utf-8"?>
<!-- Generator: Adobe Illustrator 28.0.0, SVG Export Plug-In . SVG Version: 6.00 Build 0)  -->
<svg version="1.1" id="Layer_1" xmlns="http://www.w3.org/2000/svg" xmlns:xlink="http://www.w3.org/1999/xlink" x="0px" y="0px"
	 viewBox="0 0 235 235" style="enable-background:new 0 0 235 235;" xml:space="preserve">
<style type="text/css">
	.st0{opacity:0.5;}
	.st1{fill:#6BCBBA;}
	.st2{fill:#FFFFFF;}
</style>
<g class="st0">
	<circle class="st1" cx="117.51" cy="117.57" r="117.5"/>
</g>
<g>
	<path class="st2" d="M193.35,118.13c-1.77,3.83-5.08,5.92-8.67,7.65c-7.09,3.42-14.67,5.22-22.35,6.68
		c-9.17,1.74-18.43,2.7-27.74,3.23c-0.24,0.01-0.47,0.06-0.86,0.12c0,17.86,0,35.71,0,53.66c-10.43,0-20.7,0-31.16,0
		c0-17.85,0-35.73,0-53.75c-2.73-0.22-5.3-0.39-7.85-0.63c-12.7-1.2-25.31-2.88-37.33-7.39c-3.38-1.27-6.71-2.99-9.65-5.09
		c-4.98-3.56-4.91-7.91-0.16-11.8c4.08-3.34,8.97-5.09,13.91-6.61C71.6,101.1,82,99.49,92.5,98.5c3.29-0.31,6.59-0.58,9.94-0.87
		c0-5.02,0-9.93,0-15.04c-14.14,0-28.22,0-42.37,0c0-10.48,0-20.76,0-31.13c38.68,0,77.32,0,116.1,0c0.02,0.47,0.06,0.95,0.06,1.42
		c0,9.37-0.03,18.74,0.03,28.12c0.01,1.34-0.43,1.6-1.67,1.6c-13.08-0.04-26.16-0.01-39.25-0.05c-1.32,0-1.76,0.32-1.73,1.69
		c0.09,3.95,0.03,7.91,0.04,11.86c0,0.48,0.04,0.95,0.07,1.45c4.01,0.33,7.91,0.57,11.78,0.99c12.73,1.36,25.35,3.23,37.29,8.18
		c0.94,0.39,1.87,0.84,2.77,1.31c3.24,1.69,6.17,3.72,7.78,7.18C193.35,116.18,193.35,117.15,193.35,118.13z M102.49,101.12
		c-0.63,0-1.11-0.04-1.58,0.01c-7.58,0.71-15.17,1.26-22.72,2.2c-6.53,0.81-13.01,2.06-19.16,4.53c-1.74,0.7-3.46,1.62-4.96,2.75
		c-2.17,1.64-2.17,3.68-0.06,5.38c1.24,0.99,2.67,1.81,4.13,2.44c5.97,2.55,12.3,3.71,18.67,4.7c11.16,1.74,22.4,2.49,33.68,2.75
		c17.99,0.41,35.93-0.21,53.67-3.4c5.1-0.92,10.1-2.52,15.06-4.08c1.7-0.53,3.28-1.72,4.66-2.91c1.5-1.28,1.46-3.01,0-4.35
		c-1.05-0.98-2.28-1.91-3.6-2.43c-3.08-1.2-6.2-2.36-9.4-3.15c-11.27-2.77-22.79-3.79-34.34-4.43c-0.9-0.05-1.81-0.01-2.91-0.01
		c0,6.09,0,12.06,0,18.19c-10.45,0-20.72,0-31.14,0C102.49,113.09,102.49,107.16,102.49,101.12z"/>
</g>
</svg>
