<?xml version="1.0" encoding="utf-8"?>
<!-- Generator: Adobe Illustrator 28.0.0, SVG Export Plug-In . SVG Version: 6.00 Build 0)  -->
<svg version="1.1" id="Layer_1" xmlns="http://www.w3.org/2000/svg" xmlns:xlink="http://www.w3.org/1999/xlink" x="0px" y="0px"
	 viewBox="0 0 235 235" style="enable-background:new 0 0 235 235;" xml:space="preserve">
<style type="text/css">
	.st0{opacity:0.5;}
	.st1{fill:#6BCBBA;}
	.st2{fill:#FFFFFF;}
</style>
<g class="st0">
	<circle class="st1" cx="117.5" cy="117.5" r="117.5"/>
</g>
<path class="st2" d="M176.92,101.83c2.51-16.78-10.29-25.83-27.75-31.84l5.68-22.76L141,43.78l-5.52,22.14
	c-3.66-0.91-7.38-1.76-11.1-2.61l5.55-22.3l-13.84-3.46l-5.68,22.76c-3-0.69-5.98-1.37-8.85-2.09v-0.07l-19.07-4.77L78.8,68.17
	c0,0,10.29,2.35,10.06,2.51c5.62,1.4,6.63,5.13,6.47,8.07l-6.47,25.93c0.39,0.1,0.88,0.23,1.44,0.46c-0.46-0.1-0.95-0.23-1.47-0.36
	l-9.04,36.31c-0.69,1.7-2.42,4.24-6.33,3.3c0.13,0.2-10.06-2.51-10.06-2.51l-6.89,15.87l18.02,4.51c3.36,0.85,6.63,1.73,9.86,2.55
	l-5.75,23.02l13.84,3.46l5.68-22.76c3.79,1.01,7.44,1.96,11.04,2.87l-5.65,22.66l13.84,3.46l5.75-22.95
	c23.61,4.47,41.37,2.68,48.85-18.71c6.01-17.21-0.29-27.13-12.73-33.6c9.04-2.09,15.87-8.03,17.7-20.34l0,0L176.92,101.83z
	 M145.28,146.2c-4.28,17.21-33.24,7.9-42.61,5.58l7.61-30.5c9.4,2.35,39.51,6.99,35.04,24.91L145.28,146.2z M149.56,101.57
	c-3.92,15.64-28.02,7.71-35.82,5.75l6.89-27.66C128.43,81.62,153.64,85.24,149.56,101.57z"/>
</svg>
