<?xml version="1.0" encoding="UTF-8"?><svg id="Layer_1" xmlns="http://www.w3.org/2000/svg" viewBox="0 0 80 80"><defs><style>.cls-1{fill:#fff;}.cls-2{fill:#333;}.cls-3{fill:#1a1a1a;}.cls-4{fill:#6bcbba;}</style></defs><g><circle class="cls-2" cx="35.99" cy="35.75" r="29.4"/><g><circle class="cls-1" cx="35.99" cy="35.75" r="21.3"/><path class="cls-2" d="M36,58.63c-.14,0-.28,0-.43,0-6.11-.11-11.81-2.59-16.06-6.99-4.24-4.4-6.52-10.19-6.41-16.3,.11-6.11,2.59-11.81,6.99-16.06,4.4-4.24,10.19-6.52,16.3-6.41,6.11,.11,11.81,2.59,16.06,6.99,4.24,4.4,6.52,10.19,6.41,16.3-.11,6.11-2.59,11.81-6.99,16.06-4.3,4.14-9.92,6.41-15.87,6.41Zm-.02-42.59c-5.13,0-9.97,1.95-13.67,5.52-3.79,3.65-5.93,8.57-6.03,13.83-.1,5.26,1.86,10.25,5.52,14.04,3.65,3.79,8.57,5.93,13.83,6.03,5.27,.1,10.25-1.86,14.04-5.52,3.79-3.65,5.93-8.57,6.03-13.83,.1-5.26-1.86-10.25-5.52-14.04-3.65-3.79-8.57-5.93-13.83-6.03-.12,0-.24,0-.37,0Z"/></g></g><rect class="cls-2" x="58.96" y="54.22" width="3.17" height="10.35" transform="translate(-24.27 58.67) rotate(-43.96)"/><g><path class="cls-2" d="M66.46,61.13h4.35c.5,0,.91,.41,.91,.91v12.17h-6.18v-12.17c0-.5,.41-.91,.91-.91Z" transform="translate(165.02 68.73) rotate(136.04)"/><path class="cls-2" d="M70.99,75.51s-.04,0-.06,0c-.81-.01-1.57-.34-2.13-.93l-8.07-8.37c-.61-.63-.59-1.63,.04-2.24l4.45-4.29c.3-.29,.71-.45,1.13-.44,.42,0,.82,.18,1.11,.48l8.07,8.37c.56,.58,.86,1.35,.85,2.16-.01,.81-.34,1.57-.93,2.13l-2.36,2.28c-.57,.55-1.31,.85-2.1,.85Zm-.1-3.13h0Zm-6.78-7.23l6.88,7.13,2.16-2.09-6.88-7.13-2.16,2.09Z"/></g><g><circle class="cls-4" cx="35.99" cy="35.75" r="9.08"/><path id="path18" class="cls-3" d="M29.21,34.88c0-1.52,1.23-2.74,2.74-2.74,1.52,0,2.74,1.23,2.74,2.74,0,1.52-1.23,2.74-2.74,2.74-1.52,0-2.74-1.23-2.74-2.74"/></g></svg>