<?xml version="1.0" encoding="utf-8"?>
<!-- Generator: Adobe Illustrator 28.0.0, SVG Export Plug-In . SVG Version: 6.00 Build 0)  -->
<svg version="1.1" id="Layer_1" xmlns="http://www.w3.org/2000/svg" xmlns:xlink="http://www.w3.org/1999/xlink" x="0px" y="0px"
	 viewBox="0 0 235 235" style="enable-background:new 0 0 235 235;" xml:space="preserve">
<style type="text/css">
	.st0{opacity:0.5;}
	.st1{fill:#6BCBBA;}
	.st2{fill:#FFFFFF;}
</style>
<g class="st0">
	<circle class="st1" cx="117.51" cy="117.57" r="117.5"/>
</g>
<path class="st2" d="M110.7,146.96h48.34v24.3h-29.76c0.48,6.95,0.76,13.4,1.24,20.31h-25.04V171.5H75.72c0-7.95-1-15.86,0.48-23.3
	c0.76-3.97,5.21-7.43,7.95-10.9c9.42-11.16,18.85-22.06,28.5-33.23c3.72-4.21,7.43-8.19,11.64-12.88H77.94v-24.3h27.5V46.58h24.04
	v19.83h30c0,8.19,1,16.11-0.48,23.56c-0.76,3.97-5.21,7.43-8.19,10.9c-9.42,11.16-18.85,22.06-28.5,33.23
	c-3.67,4.43-7.38,8.38-11.62,12.86H110.7z"/>
</svg>
