<?xml version="1.0" encoding="utf-8"?>
<!-- Generator: Adobe Illustrator 28.0.0, SVG Export Plug-In . SVG Version: 6.00 Build 0)  -->
<svg version="1.1" id="Layer_1" xmlns="http://www.w3.org/2000/svg" xmlns:xlink="http://www.w3.org/1999/xlink" x="0px" y="0px"
	 viewBox="0 0 235 235" style="enable-background:new 0 0 235 235;" xml:space="preserve">
<style type="text/css">
	.st0{opacity:0.5;}
	.st1{fill:#6BCBBA;}
	.st2{fill:#FFFFFF;}
</style>
<g class="st0">
	<circle class="st1" cx="117.5" cy="117.5" r="117.5"/>
</g>
<path class="st2" d="M160.16,75.85c-5.5-16.08-21.03-18.22-39.36-15.51l-5.45-22.84l-13.89,3.31l5.3,22.23
	c-3.65,0.86-7.37,1.83-11.07,2.79l-5.34-22.37l-13.89,3.31l5.43,22.82c-3,0.77-5.93,1.55-8.82,2.23v-0.07L53.87,76.3l3.54,14.84
	c0,0,10.23-2.64,10.1-2.41c5.63-1.35,8.25,1.49,9.45,4.19l6.2,26.02c0.4-0.09,0.9-0.2,1.49-0.25c-0.47,0.11-0.95,0.23-1.47,0.36
	l8.68,36.45c0.18,1.83-0.2,4.91-4.13,5.84c0.22,0.11-10.1,2.41-10.1,2.41L78.82,181l18.1-4.31c3.36-0.79,6.69-1.53,9.96-2.28
	l5.52,23.09l13.89-3.31l-5.45-22.86c3.83-0.83,7.53-1.67,11.12-2.53l5.41,22.75l13.89-3.31l-5.5-23.06
	c23.06-6.92,38.01-16.7,34.81-39.12c-2.57-18.06-12.76-23.97-26.8-23.99c7.08-6.02,10.41-14.45,6.34-26.22l0,0H160.16z
	 M152.48,129.87c4.12,17.25-25.9,22.34-35.31,24.58l-7.3-30.61c9.42-2.25,38.32-11.99,42.61,6L152.48,129.87z M135.73,88.23
	c3.74,15.71-21.35,19.75-29.19,21.62l-6.61-27.75c7.85-1.87,31.9-10.24,35.8,6.15V88.23z"/>
</svg>
