<?xml version="1.0" encoding="utf-8"?>
<!-- Generator: Adobe Illustrator 28.0.0, SVG Export Plug-In . SVG Version: 6.00 Build 0)  -->
<svg version="1.1" id="Layer_1" xmlns="http://www.w3.org/2000/svg" xmlns:xlink="http://www.w3.org/1999/xlink" x="0px" y="0px"
	 viewBox="0 0 235 235" style="enable-background:new 0 0 235 235;" xml:space="preserve">
<style type="text/css">
	.st0{opacity:0.5;}
	.st1{fill:#6BCBBA;}
	.st2{fill:#FFFFFF;}
</style>
<g class="st0">
	<circle class="st1" cx="117.51" cy="117.57" r="117.5"/>
</g>
<g>
	<path class="st2" d="M148.24,134.25c0-16.18-9.71-21.73-29.13-24.05c-13.87-1.85-16.65-5.55-16.65-12.02s4.62-10.64,13.87-10.64
		c8.32,0,12.95,2.77,15.26,9.71c0.46,1.39,1.85,2.31,3.24,2.31h7.4c1.85,0,3.24-1.39,3.24-3.24v-0.46
		c-1.85-10.17-10.17-18.03-20.81-18.96v-11.1c0-1.85-1.39-3.24-3.7-3.7h-6.94c-1.85,0-3.24,1.39-3.7,3.7v10.64
		c-13.87,1.85-22.66,11.1-22.66,22.66c0,15.26,9.25,21.27,28.67,23.58c12.95,2.31,17.11,5.09,17.11,12.49
		c0,7.4-6.47,12.49-15.26,12.49c-12.02,0-16.19-5.09-17.57-12.02c-0.46-1.85-1.85-2.77-3.24-2.77h-7.86c-1.85,0-3.24,1.39-3.24,3.24
		v0.46c1.85,11.56,9.25,19.88,24.51,22.2v11.1c0,1.85,1.39,3.24,3.7,3.7h6.94c1.85,0,3.24-1.39,3.7-3.7v-11.1
		C138.99,156.45,148.24,146.74,148.24,134.25L148.24,134.25z"/>
	<path class="st2" d="M94.13,182.81c-36.07-12.95-54.57-53.18-41.16-88.79c6.94-19.42,22.2-34.22,41.16-41.16
		c1.85-0.92,2.77-2.31,2.77-4.62v-6.47c0-1.85-0.92-3.24-2.77-3.7c-0.46,0-1.39,0-1.85,0.46C48.35,52.4,24.31,99.11,38.18,143.04
		c8.32,25.9,28.21,45.78,54.1,54.1c1.85,0.92,3.7,0,4.16-1.85c0.46-0.46,0.46-0.92,0.46-1.85v-6.47
		C96.91,185.58,95.52,183.73,94.13,182.81z M143.15,38.53c-1.85-0.92-3.7,0-4.16,1.85c-0.46,0.46-0.46,0.92-0.46,1.85v6.47
		c0,1.85,1.39,3.7,2.77,4.62c36.07,12.95,54.57,53.18,41.16,88.79c-6.94,19.42-22.2,34.22-41.16,41.16
		c-1.85,0.92-2.77,2.31-2.77,4.62v6.47c0,1.85,0.92,3.24,2.77,3.7c0.46,0,1.39,0,1.85-0.46c43.93-13.87,67.98-60.58,54.1-104.51
		C188.93,66.74,168.58,46.85,143.15,38.53L143.15,38.53z"/>
</g>
</svg>
