<?xml version="1.0" encoding="UTF-8"?><svg id="Layer_1" xmlns="http://www.w3.org/2000/svg" viewBox="0 0 80 80"><defs><style>.cls-1{fill:#333;}</style></defs><path class="cls-1" d="M39.82,6.98C21.71,6.98,7.04,21.66,7.04,39.77s14.68,32.78,32.78,32.78,32.78-14.68,32.78-32.78c-.05-18.08-14.7-32.73-32.78-32.78Zm0,9.83c5.43,0,9.83,4.4,9.83,9.83s-4.4,9.83-9.83,9.83-9.83-4.4-9.83-9.83c.02-5.42,4.41-9.82,9.83-9.83Zm0,47.34c-7.89-.04-15.25-3.96-19.67-10.5,.16-6.56,13.11-10.17,19.67-10.17s19.51,3.61,19.67,10.17c-4.43,6.53-11.78,10.45-19.67,10.5Z"/></svg>