<?xml version="1.0" encoding="UTF-8" standalone="no"?>
<svg
   id="Layer_1"
   viewBox="0 0 72.010002 52.240002"
   version="1.1"
   sodipodi:docname="icon_list.svg"
   width="72.010002"
   height="52.240002"
   inkscape:version="1.1.2 (0a00cf5339, 2022-02-04)"
   xmlns:inkscape="http://www.inkscape.org/namespaces/inkscape"
   xmlns:sodipodi="http://sodipodi.sourceforge.net/DTD/sodipodi-0.dtd"
   xmlns="http://www.w3.org/2000/svg"
   xmlns:svg="http://www.w3.org/2000/svg">
  <sodipodi:namedview
     id="namedview9"
     pagecolor="#ffffff"
     bordercolor="#666666"
     borderopacity="1.0"
     inkscape:pageshadow="2"
     inkscape:pageopacity="0.0"
     inkscape:pagecheckerboard="0"
     showgrid="false"
     inkscape:zoom="5.45625"
     inkscape:cx="22.817869"
     inkscape:cy="7.0561283"
     inkscape:window-width="1920"
     inkscape:window-height="1016"
     inkscape:window-x="0"
     inkscape:window-y="0"
     inkscape:window-maximized="1"
     inkscape:current-layer="Layer_1"
     fit-margin-top="0"
     fit-margin-left="0"
     fit-margin-right="0"
     fit-margin-bottom="0" />
  <defs
     id="defs4">
    <style
       id="style2">.cls-1{fill:#333;}.cls-2{fill:#6bcbba;}</style>
  </defs>
  <path
     id="path16"
     class="cls-1"
     d="m 32.81,46.77 c -3.85,0 -6.98,-3.13 -6.98,-6.98 0,-3.85 3.13,-6.98 6.98,-6.98 3.85,0 6.98,3.13 6.98,6.98 0,3.85 -3.13,6.98 -6.98,6.98 z M 61.02,0 c -6.06,0 -10.98,4.93 -10.98,10.98 0,2.04 0.56,3.94 1.53,5.58 L 39.09,29.04 c -1.85,-1.08 -3.99,-1.7 -6.27,-1.7 -2.45,0 -4.73,0.71 -6.65,1.93 l -9.56,-9.5 C 15.64,21.69 13.65,23 11.36,23 8.12,23 5.48,20.36 5.48,17.12 c 0,-3.24 2.64,-5.88 5.88,-5.88 3.24,0 5.8,2.55 5.88,5.73 l 4.58,4.58 c 0.58,-1.36 0.9,-2.86 0.9,-4.43 C 22.72,10.86 17.62,5.76 11.36,5.76 5.1,5.76 0,10.85 0,17.12 c 0,6.27 5.1,11.36 11.36,11.36 1.82,0 3.54,-0.43 5.07,-1.2 l 5.87,5.86 c -1.22,1.93 -1.93,4.2 -1.93,6.65 0,6.87 5.59,12.45 12.45,12.45 6.86,0 12.45,-5.59 12.45,-12.45 0,-2.6 -0.8,-5.02 -2.17,-7.01 L 59.7,16.33 c -2.4,-0.6 -4.18,-2.76 -4.18,-5.34 0,-3.04 2.47,-5.5 5.51,-5.5 3.04,0 5.5,2.47 5.5,5.5 0,2.09 -1.17,3.91 -2.89,4.84 l -5.69,5.69 c 0.98,0.29 2.01,0.44 3.08,0.44 6.05,0 10.98,-4.92 10.98,-10.98 C 72.01,4.92 67.08,0 61.03,0" />
  <path
     id="path18"
     class="cls-2"
     d="m 35.99,39.62 c 0,1.72 -1.39,3.11 -3.11,3.11 -1.72,0 -3.11,-1.39 -3.11,-3.11 0,-1.72 1.39,-3.11 3.11,-3.11 1.72,0 3.11,1.39 3.11,3.11" />
</svg>
