<?xml version="1.0" encoding="UTF-8" standalone="no"?>
<!-- Created with Inkscape (http://www.inkscape.org/) -->

<svg
   xmlns:dc="http://purl.org/dc/elements/1.1/"
   xmlns:cc="http://creativecommons.org/ns#"
   xmlns:rdf="http://www.w3.org/1999/02/22-rdf-syntax-ns#"
   xmlns:svg="http://www.w3.org/2000/svg"
   xmlns="http://www.w3.org/2000/svg"
   xmlns:sodipodi="http://sodipodi.sourceforge.net/DTD/sodipodi-0.dtd"
   xmlns:inkscape="http://www.inkscape.org/namespaces/inkscape"
   version="1.1"
   id="svg2"
   xml:space="preserve"
   width="978.92133"
   height="203.256"
   viewBox="0 0 978.92133 203.256"
   sodipodi:docname="01 NEW Main Logo RGB.svg"
   inkscape:version="0.92.5 (0.92.5+68)"><metadata
     id="metadata8"><rdf:RDF><cc:Work
         rdf:about=""><dc:format>image/svg+xml</dc:format><dc:type
           rdf:resource="http://purl.org/dc/dcmitype/StillImage" /><dc:title></dc:title></cc:Work></rdf:RDF></metadata><defs
     id="defs6" /><sodipodi:namedview
     pagecolor="#ffffff"
     bordercolor="#666666"
     borderopacity="1"
     objecttolerance="10"
     gridtolerance="10"
     guidetolerance="10"
     inkscape:pageopacity="0"
     inkscape:pageshadow="2"
     inkscape:window-width="704"
     inkscape:window-height="480"
     id="namedview4"
     showgrid="false"
     fit-margin-top="0"
     fit-margin-left="0"
     fit-margin-right="0"
     fit-margin-bottom="0"
     inkscape:zoom="0.14713217"
     inkscape:cx="326.78669"
     inkscape:cy="7.0301412"
     inkscape:window-x="0"
     inkscape:window-y="24"
     inkscape:window-maximized="0"
     inkscape:current-layer="g12" /><g
     id="g10"
     inkscape:groupmode="layer"
     inkscape:label="ink_ext_XXXXXX"
     transform="matrix(1.3333333,0,0,-1.3333333,-475.21331,998.22585)"><g
       id="g12"
       transform="matrix(0.1,0,0,0.1,122.33899,71.364409)"><path
         d="m 3166.16,5596.65 c -96.79,0 -175.54,78.75 -175.54,175.55 0,96.79 78.75,175.46 175.54,175.46 96.72,0 175.47,-78.67 175.47,-175.46 0,-96.8 -78.75,-175.55 -175.47,-175.55 z m 709.51,1176.4 c -152.42,0 -276.23,-123.9 -276.23,-276.16 0,-51.27 14.07,-99.11 38.4,-140.35 l -313.88,-313.96 c -46.41,27.17 -100.38,42.82 -157.8,42.82 -61.53,0 -118.87,-17.89 -167.31,-48.58 l -240.36,239.02 c -24.41,-48.21 -74.41,-81.37 -132.05,-81.37 -81.59,0 -148,66.4 -148,147.99 0,81.6 66.41,147.92 148,147.92 80.32,0 145.82,-64.22 147.84,-144.02 l 115.28,-115.29 c 14.53,34.21 22.54,71.87 22.54,111.39 0,157.58 -128.16,285.66 -285.66,285.66 -157.5,0 -285.73,-128.08 -285.73,-285.66 0,-157.57 128.23,-285.73 285.73,-285.73 45.81,0 89.16,10.86 127.56,30.17 l 147.54,-147.47 c -30.77,-48.43 -48.66,-105.77 -48.66,-167.23 0,-172.77 140.51,-313.28 313.28,-313.28 172.7,0 313.21,140.51 313.21,313.28 0,65.42 -20.14,126.21 -54.57,176.44 l 417.55,413.88 c -60.41,14.97 -105.17,69.47 -105.17,134.37 0,76.36 62.06,138.42 138.49,138.42 76.28,0 138.33,-62.06 138.33,-138.42 0,-52.62 -29.49,-98.43 -72.76,-121.86 L 3798.11,6231.9 c 24.63,-7.26 50.61,-11.15 77.56,-11.15 152.18,0 276.07,123.81 276.07,276.14 0,152.26 -123.89,276.16 -276.07,276.16"
         style="fill:#6bccbb;fill-opacity:1;fill-rule:nonzero;stroke:none"
         id="path16"
         inkscape:connector-curvature="0" /><path
         d="m 3246.22,5776.53 c 0,-43.25 -35.05,-78.3 -78.29,-78.3 -43.25,0 -78.3,35.05 -78.3,78.3 0,43.24 35.05,78.29 78.3,78.29 43.24,0 78.29,-35.05 78.29,-78.29"
         style="fill:#ffffff;fill-opacity:1;fill-rule:nonzero;stroke:none"
         id="path18"
         inkscape:connector-curvature="0" /><path
         d="M 4655.2,6749.98 V 5863.7 h -231.37 v 886.28 h 231.37"
         style="fill:#ffffff;fill-opacity:1;fill-rule:nonzero;stroke:none"
         id="path20"
         inkscape:connector-curvature="0" /><path
         d="M 5528.89,5863.7 5298.79,6206.33 5185,6079.9 v -216.2 h -231.37 v 886.28 H 5185 v -371.71 l 332.51,371.71 h 268.03 l -328.71,-366.65 348.94,-519.63 h -276.88"
         style="fill:#ffffff;fill-opacity:1;fill-rule:nonzero;stroke:none"
         id="path22"
         inkscape:connector-curvature="0" /><path
         d="m 6230.72,6749.98 402.05,-533.54 v 533.54 H 6847.7 V 5863.7 h -202.29 l -402.04,531.01 V 5863.7 h -216.21 v 886.28 h 203.56"
         style="fill:#ffffff;fill-opacity:1;fill-rule:nonzero;stroke:none"
         id="path24"
         inkscape:connector-curvature="0" /><path
         d="M 7673.31,6750.06 H 7435.86 L 7055.35,5863.7 h 237.46 l 255.46,649.85 250.4,-649.85 h 246.61 l -371.97,886.36"
         style="fill:#ffffff;fill-opacity:1;fill-rule:nonzero;stroke:none"
         id="path26"
         inkscape:connector-curvature="0" /><path
         d="M 8482.74,6749.98 V 5863.7 h -231.37 v 886.28 h 231.37"
         style="fill:#ffffff;fill-opacity:1;fill-rule:nonzero;stroke:none"
         id="path28"
         inkscape:connector-curvature="0" /><path
         d="m 8961.97,6306.21 c 0,-144.13 112.53,-255.39 244.01,-255.39 132.76,0 238.96,111.26 238.96,255.39 0,144.13 -106.2,252.86 -238.96,252.86 -132.75,0 -244.01,-108.73 -244.01,-252.86 z m 720.65,1.26 c 0,-259.18 -204.81,-453.88 -479.17,-453.88 -274.35,0 -479.17,194.7 -479.17,453.88 0,257.92 204.82,448.83 479.17,448.83 274.36,0 479.17,-192.17 479.17,-448.83"
         style="fill:#ffffff;fill-opacity:1;fill-rule:nonzero;stroke:none"
         id="path30"
         inkscape:connector-curvature="0" /><path
         d="m 4490.21,5349.51 c -23.5,12.93 -41.93,30.87 -55.3,53.81 -13.37,22.93 -20.04,48.61 -20.04,77.03 0,28.42 6.67,54.1 20.04,77.04 13.37,22.93 31.87,40.87 55.51,53.81 23.63,12.94 50.08,19.42 79.35,19.42 21.95,0 42.21,-3.66 60.78,-10.98 18.58,-7.32 34.33,-18.01 47.28,-32.08 l -19.84,-19.83 c -23.08,23.35 -52.2,35.03 -87.37,35.03 -23.36,0 -44.61,-5.35 -63.74,-16.04 -19.14,-10.7 -34.12,-25.33 -44.95,-43.89 -10.84,-18.58 -16.25,-39.41 -16.25,-62.48 0,-23.07 5.41,-43.89 16.25,-62.47 10.83,-18.57 25.81,-33.21 44.95,-43.89 19.13,-10.71 40.38,-16.05 63.74,-16.05 35.45,0 64.58,11.83 87.37,35.46 l 19.84,-19.83 c -12.95,-14.08 -28.78,-24.85 -47.49,-32.3 -18.71,-7.46 -39.04,-11.18 -60.99,-11.18 -29.27,0 -55.65,6.47 -79.14,19.42"
         style="fill:#6bccbb;fill-opacity:1;fill-rule:nonzero;stroke:none"
         id="path32"
         inkscape:connector-curvature="0" /><path
         d="m 4831.25,5544.93 c 13.93,7.6 31.16,11.4 51.71,11.4 v -29.13 l -7.18,0.43 c -23.36,0 -41.65,-7.18 -54.87,-21.53 -13.23,-14.35 -19.84,-34.48 -19.84,-60.35 v -113.13 h -29.96 v 222.02 h 28.7 v -43.47 c 7.03,14.91 17.52,26.17 31.44,33.76"
         style="fill:#6bccbb;fill-opacity:1;fill-rule:nonzero;stroke:none"
         id="path34"
         inkscape:connector-curvature="0" /><path
         d="m 5166.17,5554.64 -111.01,-248.61 c -9.01,-20.82 -19.41,-35.6 -31.23,-44.32 -11.82,-8.72 -26.03,-13.08 -42.63,-13.08 -10.7,0 -20.68,1.69 -29.97,5.05 -9.29,3.38 -17.3,8.45 -24.06,15.2 l 13.93,22.37 c 11.25,-11.25 24.76,-16.88 40.52,-16.88 10.13,0 18.78,2.82 25.96,8.45 7.18,5.63 13.86,15.19 20.05,28.7 l 9.71,21.52 -99.2,221.6 h 31.24 l 83.57,-188.67 83.58,188.67 h 29.54"
         style="fill:#6bccbb;fill-opacity:1;fill-rule:nonzero;stroke:none"
         id="path36"
         inkscape:connector-curvature="0" /><path
         d="m 5395.79,5367.86 c 12.66,7.18 22.58,17.38 29.76,30.61 7.17,13.22 10.76,28.28 10.76,45.16 0,16.88 -3.59,31.87 -10.76,44.96 -7.18,13.07 -17.1,23.28 -29.76,30.59 -12.66,7.32 -26.74,10.98 -42.21,10.98 -15.76,0 -29.9,-3.66 -42.42,-10.98 -12.52,-7.31 -22.37,-17.52 -29.55,-30.59 -7.17,-13.09 -10.76,-28.08 -10.76,-44.96 0,-16.88 3.59,-31.94 10.76,-45.16 7.18,-13.23 17.03,-23.43 29.55,-30.61 12.52,-7.17 26.66,-10.76 42.42,-10.76 15.47,0 29.55,3.59 42.21,10.76 z m 16.46,174.33 c 16.89,-9.43 30.11,-22.72 39.68,-39.89 9.56,-17.17 14.35,-36.72 14.35,-58.67 0,-22.23 -4.79,-41.93 -14.35,-59.1 -9.57,-17.16 -22.73,-30.45 -39.47,-39.88 -16.74,-9.43 -35.66,-14.14 -56.77,-14.14 -18.01,0 -34.26,3.72 -48.75,11.18 -14.5,7.45 -26.38,18.36 -35.67,32.72 v -123.67 h -29.96 v 303.9 h 28.7 v -43.89 c 9,14.62 20.89,25.87 35.67,33.76 14.77,7.88 31.44,11.82 50.01,11.82 20.82,0 39.68,-4.72 56.56,-14.14"
         style="fill:#6bccbb;fill-opacity:1;fill-rule:nonzero;stroke:none"
         id="path38"
         inkscape:connector-curvature="0" /><path
         d="m 5677.32,5346.13 c -5.63,-5.07 -12.6,-8.94 -20.89,-11.62 -8.31,-2.66 -16.96,-4 -25.96,-4 -20.83,0 -36.87,5.63 -48.12,16.89 -11.26,11.25 -16.88,27.14 -16.88,47.69 v 134.22 h -39.68 v 25.33 h 39.68 v 48.54 h 29.97 v -48.54 h 67.53 v -25.33 h -67.53 v -132.53 c 0,-13.23 3.3,-23.29 9.91,-30.19 6.61,-6.89 16.11,-10.34 28.49,-10.34 6.19,0 12.17,0.99 17.94,2.96 5.77,1.96 10.77,4.79 14.99,8.44 l 10.55,-21.52"
         style="fill:#6bccbb;fill-opacity:1;fill-rule:nonzero;stroke:none"
         id="path40"
         inkscape:connector-curvature="0" /><path
         d="m 5889.84,5367.86 c 12.52,7.18 22.3,17.38 29.34,30.61 7.03,13.22 10.55,28.28 10.55,45.16 0,16.88 -3.52,31.93 -10.55,45.16 -7.04,13.22 -16.82,23.43 -29.34,30.61 -12.52,7.18 -26.66,10.76 -42.42,10.76 -15.76,0 -29.9,-3.58 -42.42,-10.76 -12.52,-7.18 -22.37,-17.39 -29.54,-30.61 -7.18,-13.23 -10.77,-28.28 -10.77,-45.16 0,-16.88 3.59,-31.94 10.77,-45.16 7.17,-13.23 17.02,-23.43 29.54,-30.61 12.52,-7.17 26.66,-10.76 42.42,-10.76 15.76,0 29.9,3.59 42.42,10.76 z m -100.24,-22.79 c -17.17,9.71 -30.68,23.15 -40.53,40.31 -9.85,17.16 -14.77,36.58 -14.77,58.25 0,21.67 4.92,41.08 14.77,58.25 9.85,17.16 23.36,30.53 40.53,40.1 17.15,9.56 36.43,14.35 57.82,14.35 21.38,0 40.66,-4.79 57.83,-14.35 17.16,-9.57 30.6,-22.94 40.31,-40.1 9.71,-17.17 14.56,-36.58 14.56,-58.25 0,-21.67 -4.85,-41.09 -14.56,-58.25 -9.71,-17.16 -23.15,-30.6 -40.31,-40.31 -17.17,-9.71 -36.45,-14.56 -57.83,-14.56 -21.39,0 -40.67,4.85 -57.82,14.56"
         style="fill:#6bccbb;fill-opacity:1;fill-rule:nonzero;stroke:none"
         id="path42"
         inkscape:connector-curvature="0" /><path
         d="m 6163.57,5365.76 c 12.11,7.73 21.11,18.91 27.01,33.55 v 36.3 h -69.63 c -37.98,0 -56.99,-13.23 -56.99,-39.68 0,-12.94 4.92,-23.14 14.79,-30.59 9.84,-7.47 23.63,-11.2 41.34,-11.2 16.9,0 31.39,3.87 43.48,11.62 z m 33.77,168.83 c 15.47,-14.5 23.22,-35.95 23.22,-64.37 v -137.6 h -28.71 v 34.61 c -6.76,-11.54 -16.66,-20.54 -29.74,-27.01 -13.09,-6.48 -28.64,-9.71 -46.64,-9.71 -24.77,0 -44.48,5.91 -59.11,17.73 -14.62,11.81 -21.96,27.44 -21.96,46.85 0,18.85 6.85,34.04 20.48,45.59 13.65,11.53 35.39,17.3 65.21,17.3 h 70.49 v 13.51 c 0,19.13 -5.33,33.69 -16.03,43.69 -10.69,9.98 -26.31,14.98 -46.86,14.98 -14.06,0 -27.58,-2.32 -40.51,-6.96 -12.94,-4.65 -24.06,-11.05 -33.35,-19.21 l -13.5,22.37 c 11.25,9.56 24.76,16.95 40.53,22.16 15.74,5.2 32.34,7.81 49.8,7.81 28.97,0 51.21,-7.25 66.68,-21.74"
         style="fill:#6bccbb;fill-opacity:1;fill-rule:nonzero;stroke:none"
         id="path44"
         inkscape:connector-curvature="0" /><path
         d="m 6342.76,5338.31 c -16.46,5.21 -29.34,11.75 -38.62,19.63 l 13.5,23.65 c 9.29,-7.33 20.96,-13.31 35.03,-17.94 14.07,-4.65 28.7,-6.97 43.9,-6.97 20.26,0 35.24,3.17 44.96,9.49 9.71,6.33 14.56,15.27 14.56,26.81 0,8.16 -2.68,14.56 -8.03,19.2 -5.34,4.65 -12.1,8.16 -20.25,10.56 -8.16,2.38 -18.99,4.7 -32.5,6.96 -18.02,3.38 -32.5,6.82 -43.48,10.34 -10.97,3.52 -20.33,9.5 -28.06,17.94 -7.75,8.44 -11.61,20.12 -11.61,35.03 0,18.58 7.73,33.77 23.21,45.59 15.48,11.82 37,17.73 64.58,17.73 14.35,0 28.7,-1.9 43.05,-5.7 14.35,-3.8 26.18,-8.8 35.45,-14.98 l -13.07,-24.06 c -18.3,12.66 -40.11,18.99 -65.43,18.99 -19.14,0 -33.56,-3.38 -43.26,-10.13 -9.71,-6.76 -14.56,-15.61 -14.56,-26.59 0,-8.45 2.74,-15.19 8.23,-20.26 5.48,-5.07 12.3,-8.8 20.47,-11.18 8.15,-2.4 19.41,-4.86 33.77,-7.4 17.72,-3.37 31.93,-6.75 42.62,-10.12 10.7,-3.38 19.84,-9.15 27.44,-17.31 7.59,-8.16 11.39,-19.41 11.39,-33.77 0,-19.41 -8.08,-34.82 -24.27,-46.22 -16.18,-11.4 -38.62,-17.09 -67.32,-17.09 -18.01,0 -35.24,2.6 -51.7,7.8"
         style="fill:#6bccbb;fill-opacity:1;fill-rule:nonzero;stroke:none"
         id="path46"
         inkscape:connector-curvature="0" /><path
         d="m 6582.08,5338.31 c -16.47,5.21 -29.34,11.75 -38.63,19.63 l 13.51,23.65 c 9.29,-7.33 20.96,-13.31 35.03,-17.94 14.07,-4.65 28.7,-6.97 43.9,-6.97 20.26,0 35.24,3.17 44.96,9.49 9.7,6.33 14.56,15.27 14.56,26.81 0,8.16 -2.68,14.56 -8.03,19.2 -5.34,4.65 -12.1,8.16 -20.25,10.56 -8.17,2.38 -19,4.7 -32.5,6.96 -18.02,3.38 -32.5,6.82 -43.48,10.34 -10.98,3.52 -20.33,9.5 -28.07,17.94 -7.74,8.44 -11.61,20.12 -11.61,35.03 0,18.58 7.74,33.77 23.21,45.59 15.48,11.82 37.01,17.73 64.58,17.73 14.36,0 28.71,-1.9 43.06,-5.7 14.35,-3.8 26.17,-8.8 35.45,-14.98 l -13.08,-24.06 c -18.3,12.66 -40.1,18.99 -65.43,18.99 -19.14,0 -33.55,-3.38 -43.26,-10.13 -9.7,-6.76 -14.56,-15.61 -14.56,-26.59 0,-8.45 2.75,-15.19 8.23,-20.26 5.48,-5.07 12.31,-8.8 20.47,-11.18 8.16,-2.4 19.42,-4.86 33.77,-7.4 17.73,-3.37 31.94,-6.75 42.63,-10.12 10.69,-3.38 19.83,-9.15 27.43,-17.31 7.6,-8.16 11.4,-19.41 11.4,-33.77 0,-19.41 -8.09,-34.82 -24.27,-46.22 -16.18,-11.4 -38.62,-17.09 -67.32,-17.09 -18.01,0 -35.25,2.6 -51.7,7.8"
         style="fill:#6bccbb;fill-opacity:1;fill-rule:nonzero;stroke:none"
         id="path48"
         inkscape:connector-curvature="0" /><path
         d="m 6845.88,5510.11 c -14.5,-13.65 -22.73,-31.44 -24.69,-53.4 h 157.44 c -1.97,21.96 -10.21,39.75 -24.7,53.4 -14.49,13.64 -32.57,20.47 -54.24,20.47 -21.38,0 -39.32,-6.83 -53.81,-20.47 z m 161.03,-75.76 h -185.72 c 1.69,-23.09 10.55,-41.73 26.59,-55.93 16.04,-14.22 36.3,-21.32 60.78,-21.32 13.78,0 26.45,2.46 37.99,7.39 11.53,4.92 21.52,12.16 29.97,21.73 l 16.89,-19.41 c -9.86,-11.82 -22.17,-20.83 -36.94,-27.01 -14.77,-6.19 -31.02,-9.29 -48.76,-9.29 -22.78,0 -42.98,4.85 -60.56,14.56 -17.59,9.71 -31.31,23.15 -41.16,40.31 -9.85,17.16 -14.77,36.58 -14.77,58.25 0,21.67 4.7,41.08 14.14,58.25 9.42,17.16 22.37,30.53 38.84,40.1 16.45,9.56 34.96,14.35 55.49,14.35 20.54,0 38.98,-4.79 55.3,-14.35 16.32,-9.57 29.13,-22.87 38.42,-39.89 9.27,-17.03 13.92,-36.51 13.92,-58.46 l -0.42,-9.28"
         style="fill:#6bccbb;fill-opacity:1;fill-rule:nonzero;stroke:none"
         id="path50"
         inkscape:connector-curvature="0" /><path
         d="m 7218.37,5346.13 c -5.63,-5.07 -12.59,-8.94 -20.89,-11.62 -8.3,-2.66 -16.96,-4 -25.96,-4 -20.83,0 -36.86,5.63 -48.11,16.89 -11.26,11.25 -16.89,27.14 -16.89,47.69 v 134.22 h -39.68 v 25.33 h 39.68 v 48.54 h 29.96 v -48.54 h 67.54 v -25.33 h -67.54 v -132.53 c 0,-13.23 3.31,-23.29 9.92,-30.19 6.61,-6.89 16.11,-10.34 28.5,-10.34 6.18,0 12.17,0.99 17.94,2.96 5.76,1.96 10.76,4.79 14.98,8.44 l 10.55,-21.52"
         style="fill:#6bccbb;fill-opacity:1;fill-rule:nonzero;stroke:none"
         id="path52"
         inkscape:connector-curvature="0" /><path
         d="m 7629.48,5436.88 -70.92,158.7 -70.91,-158.7 z m 11.4,-25.32 h -164.62 l -35.45,-78.94 h -32.51 l 135.07,295.46 h 30.82 l 135.06,-295.46 h -32.92 l -35.45,78.94"
         style="fill:#6bccbb;fill-opacity:1;fill-rule:nonzero;stroke:none"
         id="path54"
         inkscape:connector-curvature="0" /><path
         d="m 7964.41,5532.05 c 16.47,-16.18 24.69,-39.74 24.69,-70.69 v -128.74 h -29.96 v 125.78 c 0,23.08 -5.77,40.67 -17.31,52.77 -11.54,12.09 -28,18.14 -49.38,18.14 -23.93,0 -42.84,-7.11 -56.78,-21.31 -13.93,-14.22 -20.89,-33.84 -20.89,-58.89 v -116.49 h -29.97 v 222.02 h 28.7 v -40.95 c 8.16,13.51 19.48,23.99 33.98,31.45 14.49,7.45 31.31,11.19 50.44,11.19 27.86,0 50.02,-8.09 66.48,-24.28"
         style="fill:#6bccbb;fill-opacity:1;fill-rule:nonzero;stroke:none"
         id="path56"
         inkscape:connector-curvature="0" /><path
         d="m 8214.07,5365.76 c 12.1,7.73 21.1,18.91 27.01,33.55 v 36.3 h -69.64 c -37.99,0 -56.98,-13.23 -56.98,-39.68 0,-12.94 4.92,-23.14 14.78,-30.59 9.84,-7.47 23.63,-11.2 41.35,-11.2 16.89,0 31.38,3.87 43.48,11.62 z m 33.77,168.83 c 15.47,-14.5 23.21,-35.95 23.21,-64.37 v -137.6 h -28.7 v 34.61 c -6.76,-11.54 -16.67,-20.54 -29.76,-27.01 -13.08,-6.48 -28.63,-9.71 -46.64,-9.71 -24.76,0 -44.46,5.91 -59.09,17.73 -14.64,11.81 -21.95,27.44 -21.95,46.85 0,18.85 6.83,34.04 20.47,45.59 13.65,11.53 35.39,17.3 65.21,17.3 h 70.49 v 13.51 c 0,19.13 -5.34,33.69 -16.03,43.69 -10.7,9.98 -26.32,14.98 -46.86,14.98 -14.07,0 -27.58,-2.32 -40.52,-6.96 -12.95,-4.65 -24.06,-11.05 -33.35,-19.21 l -13.5,22.37 c 11.25,9.56 24.76,16.95 40.52,22.16 15.76,5.2 32.36,7.81 49.81,7.81 28.97,0 51.21,-7.25 66.69,-21.74"
         style="fill:#6bccbb;fill-opacity:1;fill-rule:nonzero;stroke:none"
         id="path58"
         inkscape:connector-curvature="0" /><path
         d="m 8385.44,5645.81 h 29.97 v -313.19 h -29.97 v 313.19"
         style="fill:#6bccbb;fill-opacity:1;fill-rule:nonzero;stroke:none"
         id="path60"
         inkscape:connector-curvature="0" /><path
         d="m 8718.46,5554.64 -111,-248.61 c -9.02,-20.82 -19.42,-35.6 -31.24,-44.32 -11.82,-8.72 -26.03,-13.08 -42.63,-13.08 -10.7,0 -20.68,1.69 -29.97,5.05 -9.29,3.38 -17.3,8.45 -24.06,15.2 l 13.93,22.37 c 11.25,-11.25 24.76,-16.88 40.52,-16.88 10.13,0 18.78,2.82 25.96,8.45 7.18,5.63 13.86,15.19 20.05,28.7 l 9.7,21.52 -99.19,221.6 h 31.24 l 83.58,-188.67 83.57,188.67 h 29.54"
         style="fill:#6bccbb;fill-opacity:1;fill-rule:nonzero;stroke:none"
         id="path62"
         inkscape:connector-curvature="0" /><path
         d="m 8916.83,5346.13 c -5.62,-5.07 -12.59,-8.94 -20.89,-11.62 -8.3,-2.66 -16.95,-4 -25.95,-4 -20.83,0 -36.87,5.63 -48.12,16.89 -11.26,11.25 -16.88,27.14 -16.88,47.69 v 134.22 h -39.68 v 25.33 h 39.68 v 48.54 h 29.96 v -48.54 h 67.54 v -25.33 h -67.54 v -132.53 c 0,-13.23 3.31,-23.29 9.92,-30.19 6.61,-6.89 16.1,-10.34 28.5,-10.34 6.18,0 12.16,0.99 17.94,2.96 5.76,1.96 10.76,4.79 14.98,8.44 l 10.54,-21.52"
         style="fill:#6bccbb;fill-opacity:1;fill-rule:nonzero;stroke:none"
         id="path64"
         inkscape:connector-curvature="0" /><path
         d="m 9004.21,5554.64 h 29.97 v -222.02 h -29.97 z m -0.42,54.87 c -4.22,4.22 -6.34,9.29 -6.34,15.2 0,5.63 2.12,10.55 6.34,14.77 4.21,4.22 9.42,6.33 15.61,6.33 6.18,0 11.4,-2.05 15.62,-6.12 4.22,-4.08 6.33,-8.93 6.33,-14.56 0,-6.19 -2.11,-11.4 -6.33,-15.62 -4.22,-4.22 -9.44,-6.33 -15.62,-6.33 -6.19,0 -11.4,2.11 -15.61,6.33"
         style="fill:#6bccbb;fill-opacity:1;fill-rule:nonzero;stroke:none"
         id="path66"
         inkscape:connector-curvature="0" /><path
         d="m 9183.81,5344.86 c -17.31,9.57 -30.89,23 -40.74,40.31 -9.85,17.3 -14.77,36.79 -14.77,58.46 0,21.67 4.92,41.08 14.77,58.25 9.85,17.16 23.43,30.53 40.74,40.1 17.3,9.56 36.93,14.35 58.87,14.35 19.14,0 36.23,-3.74 51.29,-11.19 15.05,-7.46 26.94,-18.36 35.67,-32.71 l -22.38,-15.19 c -7.31,10.97 -16.6,19.2 -27.85,24.69 -11.26,5.49 -23.5,8.23 -36.73,8.23 -16.03,0 -30.46,-3.58 -43.26,-10.76 -12.8,-7.18 -22.79,-17.39 -29.97,-30.61 -7.17,-13.23 -10.76,-28.28 -10.76,-45.16 0,-17.17 3.59,-32.29 10.76,-45.37 7.18,-13.09 17.17,-23.22 29.97,-30.4 12.8,-7.17 27.23,-10.76 43.26,-10.76 13.23,0 25.47,2.67 36.73,8.02 11.25,5.34 20.54,13.51 27.85,24.48 l 22.38,-15.19 c -8.73,-14.36 -20.69,-25.27 -35.88,-32.72 -15.2,-7.46 -32.22,-11.18 -51.08,-11.18 -21.94,0 -41.57,4.79 -58.87,14.35"
         style="fill:#6bccbb;fill-opacity:1;fill-rule:nonzero;stroke:none"
         id="path68"
         inkscape:connector-curvature="0" /><path
         d="m 9429.04,5338.31 c -16.46,5.21 -29.34,11.75 -38.62,19.63 l 13.5,23.65 c 9.29,-7.33 20.96,-13.31 35.03,-17.94 14.07,-4.65 28.7,-6.97 43.9,-6.97 20.26,0 35.24,3.17 44.96,9.49 9.71,6.33 14.56,15.27 14.56,26.81 0,8.16 -2.68,14.56 -8.03,19.2 -5.34,4.65 -12.1,8.16 -20.25,10.56 -8.17,2.38 -19,4.7 -32.5,6.96 -18.02,3.38 -32.5,6.82 -43.48,10.34 -10.97,3.52 -20.33,9.5 -28.06,17.94 -7.75,8.44 -11.62,20.12 -11.62,35.03 0,18.58 7.74,33.77 23.22,45.59 15.48,11.82 37,17.73 64.58,17.73 14.35,0 28.7,-1.9 43.05,-5.7 14.35,-3.8 26.18,-8.8 35.45,-14.98 l -13.07,-24.06 c -18.3,12.66 -40.11,18.99 -65.43,18.99 -19.14,0 -33.56,-3.38 -43.26,-10.13 -9.71,-6.76 -14.56,-15.61 -14.56,-26.59 0,-8.45 2.74,-15.19 8.23,-20.26 5.48,-5.07 12.3,-8.8 20.47,-11.18 8.15,-2.4 19.41,-4.86 33.77,-7.4 17.72,-3.37 31.93,-6.75 42.62,-10.12 10.7,-3.38 19.84,-9.15 27.43,-17.31 7.6,-8.16 11.4,-19.41 11.4,-33.77 0,-19.41 -8.09,-34.82 -24.27,-46.22 -16.18,-11.4 -38.62,-17.09 -67.32,-17.09 -18.01,0 -35.25,2.6 -51.7,7.8"
         style="fill:#6bccbb;fill-opacity:1;fill-rule:nonzero;stroke:none"
         id="path70"
         inkscape:connector-curvature="0" /></g></g></svg>