<?xml version="1.0" encoding="UTF-8"?><svg id="Layer_1" xmlns="http://www.w3.org/2000/svg" viewBox="0 0 340 280"><defs><style>.cls-1{fill:#fff;}.cls-2{fill:#ececf1;}.cls-3{fill:#333;}.cls-4{fill:#1a1a1a;}.cls-5{fill:#6bcbba;}</style></defs><g><path class="cls-1" d="M131.62,271.36h171.72c33.96-57.24,33.96-114.48,0-171.72H131.62c47.49,57.24,47.49,114.48,0,171.72Z"/><rect class="cls-5" x="188.43" y="132.36" width="96.76" height="12.27"/><rect class="cls-2" x="180.94" y="169.15" width="128.11" height="4.09"/><rect class="cls-2" x="180.94" y="190.28" width="128.11" height="4.09"/></g><circle class="cls-5" cx="60.75" cy="126.57" r="47.53"/><polygon class="cls-3" points="65.33 269.73 55.59 269.73 60.03 119.41 65.33 269.73"/><polygon class="cls-3" points="60.86 170.74 69.36 159 60.75 173.65 59.82 172.02 60.86 170.74"/><polygon class="cls-3" points="59.93 182.61 51.44 170.86 60.05 185.52 60.98 183.89 59.93 182.61"/><g><circle class="cls-2" cx="31.29" cy="60.16" r="6.44"/><circle class="cls-2" cx="50.6" cy="60.16" r="6.44"/><circle class="cls-2" cx="69.91" cy="60.16" r="6.44"/><circle class="cls-2" cx="89.22" cy="60.16" r="6.44"/><path class="cls-2" d="M104.95,68H15.41c-.89,0-1.61-1.17-1.61-2.62v-10.44c0-1.45,.72-2.62,1.61-2.62H104.95c.89,0,1.61,1.17,1.61,2.62v10.44c0,1.45-.72,2.62-1.61,2.62ZM15.41,53.37c-.53,0-.97,.7-.97,1.57v10.44c0,.87,.43,1.57,.97,1.57H104.95c.53,0,.97-.7,.97-1.57v-10.44c0-.87-.43-1.57-.97-1.57H15.41Z"/><path class="cls-2" d="M47.58,9.38c.83,0,1.5,.67,1.5,1.5V43.5c0,.83-.67,1.5-1.5,1.5H15.63c-.83,0-1.5-.67-1.5-1.5V10.89c0-.83,.67-1.5,1.5-1.5h31.94m0-1.5H15.63c-1.66,0-3.01,1.35-3.01,3.01V43.5c0,1.66,1.35,3.01,3.01,3.01h31.94c1.66,0,3.01-1.35,3.01-3.01V10.89c0-1.66-1.35-3.01-3.01-3.01h0Z"/><path class="cls-3" d="M42.6,17.95H21.28c-.42,0-.75-.33-.76-.75,0-.42,.33-.75,.75-.76,0,0,0,0,0,0h21.31c.42,0,.75,.33,.76,.75,0,.42-.33,.75-.75,.76,0,0,0,0,0,0h0Z"/><path class="cls-3" d="M42.6,23.28H21.28c-.42,0-.75-.33-.76-.75,0-.42,.33-.75,.75-.76,0,0,0,0,0,0h21.31c.42,0,.75,.33,.76,.75,0,.42-.33,.75-.75,.76,0,0,0,0,0,0h0Z"/><path class="cls-3" d="M42.6,28.61H21.28c-.42,0-.75-.33-.76-.75,0-.42,.33-.75,.75-.76,0,0,0,0,0,0h21.31c.42,0,.75,.33,.76,.75,0,.42-.33,.75-.75,.76,0,0,0,0,0,0h0Z"/><path class="cls-3" d="M42.6,33.94H21.28c-.42,0-.75-.33-.76-.75,0-.42,.33-.75,.75-.76,0,0,0,0,0,0h21.31c.42,0,.75,.33,.76,.75,0,.42-.33,.75-.75,.76,0,0,0,0,0,0h0Z"/><path class="cls-3" d="M42.6,39.27H21.28c-.42,0-.75-.34-.75-.75,0-.42,.34-.75,.75-.75h21.31c.42,0,.75,.34,.75,.75,0,.41-.34,.75-.75,.75h0Z"/><g><path class="cls-2" d="M166.26,19.68c.8,.22,1.27,1.05,1.05,1.85l-8.66,31.44c-.22,.8-1.05,1.27-1.85,1.05l-30.8-8.48c-.8-.22-1.27-1.05-1.05-1.85l8.66-31.44c.22-.8,1.05-1.27,1.85-1.05l30.8,8.48m.4-1.45l-30.8-8.48c-1.6-.44-3.26,.5-3.7,2.1h0s-8.66,31.44-8.66,31.44c-.44,1.6,.5,3.26,2.1,3.7h0l30.8,8.48c1.6,.44,3.26-.5,3.7-2.1h0s8.66-31.44,8.66-31.44c.44-1.6-.5-3.26-2.1-3.7h0Z"/><path class="cls-3" d="M159.18,26.62l-20.55-5.66c-.4-.11-.64-.52-.53-.92s.52-.64,.92-.53c0,0,0,0,0,0l20.55,5.66c.4,.11,.63,.53,.52,.93-.11,.4-.52,.63-.92,.52h0Z"/><path class="cls-3" d="M157.76,31.76l-20.55-5.66c-.4-.11-.64-.52-.53-.92s.52-.64,.92-.53c0,0,0,0,0,0l20.55,5.66c.4,.11,.63,.53,.52,.93-.11,.4-.52,.63-.92,.52h0Z"/><path class="cls-3" d="M156.35,36.9l-20.55-5.66c-.4-.11-.64-.52-.53-.92s.52-.64,.92-.53c0,0,0,0,0,0l20.55,5.66c.4,.11,.63,.53,.52,.93-.11,.4-.52,.63-.92,.52h0Z"/><path class="cls-3" d="M154.94,42.03l-20.55-5.66c-.4-.11-.64-.52-.53-.92s.52-.64,.92-.53c0,0,0,0,0,0l20.55,5.66c.4,.11,.63,.53,.52,.93-.11,.4-.52,.63-.92,.52h0Z"/><path class="cls-3" d="M153.52,47.17l-20.55-5.66c-.4-.11-.64-.52-.53-.92,.11-.4,.52-.64,.92-.53h0s20.55,5.66,20.55,5.66c.4,.11,.64,.53,.52,.93-.11,.4-.52,.63-.92,.52h0Z"/></g><path class="cls-2" d="M102.55,46.51h-32.78c-1.85,0-3.34-1.5-3.34-3.34V19.71c0-1.85,1.5-3.34,3.34-3.34h32.78c1.85,0,3.34,1.5,3.34,3.34v23.46c0,1.85-1.5,3.34-3.34,3.34Zm-32.78-28.64c-1.02,0-1.84,.82-1.84,1.84v23.46c0,1.02,.82,1.84,1.84,1.84h32.78c1.02,0,1.84-.82,1.84-1.84V19.71c0-1.02-.82-1.84-1.84-1.84h-32.78Z"/><path class="cls-3" d="M96.82,26.86h-21.31c-.42,0-.75-.34-.75-.76,0-.41,.34-.75,.75-.75h21.31c.42,0,.75,.33,.76,.75s-.33,.75-.75,.76c0,0,0,0,0,0Z"/><path class="cls-3" d="M96.82,32.19h-21.31c-.42,0-.75-.34-.75-.76,0-.41,.34-.75,.75-.75h21.31c.42,0,.75,.33,.76,.75s-.33,.75-.75,.76c0,0,0,0,0,0Z"/><path class="cls-3" d="M96.82,37.51h-21.31c-.42,0-.75-.34-.75-.76,0-.41,.34-.75,.75-.75h21.31c.42,0,.75,.33,.76,.75s-.33,.75-.75,.76c0,0,0,0,0,0Z"/><g><path class="cls-2" d="M200.4,85.52l-31.48-9.13c-1.77-.52-2.79-2.37-2.28-4.14l6.53-22.53c.52-1.77,2.37-2.79,4.14-2.28l31.48,9.13c1.77,.52,2.79,2.37,2.28,4.14l-6.53,22.53c-.52,1.77-2.37,2.79-4.14,2.28Zm-23.51-36.64c-.98-.28-1.99,.28-2.28,1.25l-6.53,22.53c-.28,.98,.28,1.99,1.25,2.28l31.48,9.13c.98,.28,1.99-.28,2.28-1.25l6.53-22.53c.28-.98-.28-1.99-1.25-2.28l-31.48-9.13Z"/><path class="cls-3" d="M200.37,65.06l-20.47-5.94c-.4-.12-.63-.53-.51-.93s.53-.63,.93-.51l20.47,5.94c.4,.12,.63,.53,.51,.93-.12,.4-.53,.63-.93,.51h0Z"/><path class="cls-3" d="M198.88,70.17l-20.47-5.94c-.4-.12-.63-.53-.51-.93,.12-.4,.53-.63,.93-.51l20.47,5.94c.4,.12,.63,.53,.51,.93s-.53,.63-.93,.51h0Z"/><path class="cls-3" d="M197.4,75.29l-20.47-5.94c-.4-.12-.63-.53-.51-.93s.53-.63,.93-.51l20.47,5.94c.4,.12,.63,.53,.51,.93-.12,.4-.53,.63-.93,.51Z"/></g></g><g><circle class="cls-3" cx="59.8" cy="121.08" r="35.53"/><circle class="cls-1" cx="59.8" cy="121.08" r="32.59"/><circle class="cls-3" cx="59.68" cy="121.2" r="4.35"/><rect class="cls-3" x="58.74" y="90.14" width="1.88" height="3.53"/><rect class="cls-3" x="58.74" y="148.73" width="1.88" height="3.53"/><rect class="cls-3" x="28.62" y="120.26" width="3.53" height="1.88"/><polygon class="cls-3" points="58.42 123.09 60.03 119.41 80.19 130.58 58.42 123.09"/><rect class="cls-3" x="55.21" y="76.96" width="9.18" height="10.59"/><ellipse class="cls-3" cx="59.8" cy="76.96" rx="10.59" ry="2.94"/></g><g><g><circle class="cls-3" cx="215.83" cy="220.84" r="18.45"/><g><circle class="cls-1" cx="215.83" cy="220.84" r="13.36"/><path class="cls-3" d="M215.84,235.19c-.09,0-.18,0-.27,0-3.83-.07-7.41-1.63-10.08-4.39-2.66-2.76-4.09-6.39-4.02-10.23,.07-3.83,1.63-7.41,4.39-10.08,2.76-2.66,6.39-4.09,10.23-4.02,3.83,.07,7.41,1.63,10.08,4.39,2.66,2.76,4.09,6.39,4.02,10.23-.07,3.83-1.63,7.41-4.39,10.08-2.7,2.6-6.23,4.02-9.96,4.02Zm-.01-26.73c-3.22,0-6.26,1.23-8.58,3.47-2.38,2.29-3.72,5.38-3.78,8.68-.06,3.3,1.17,6.43,3.46,8.81,2.29,2.38,5.38,3.72,8.68,3.78,3.3,.06,6.43-1.17,8.81-3.46,2.38-2.29,3.72-5.38,3.78-8.68,.06-3.3-1.17-6.43-3.46-8.81-2.29-2.38-5.38-3.72-8.68-3.78-.08,0-.15,0-.23,0Z"/></g></g><rect class="cls-3" x="230.25" y="232.42" width="1.99" height="6.5" transform="translate(-98.81 226.55) rotate(-43.96)"/><g><path class="cls-3" d="M235.29,236.76h2.05c.5,0,.91,.41,.91,.91v7.29h-3.88v-7.29c0-.5,.41-.91,.91-.91Z" transform="translate(573.63 250.2) rotate(136.04)"/><path class="cls-3" d="M237.8,245.79s-.02,0-.04,0c-.51,0-.98-.22-1.34-.58l-5.07-5.25c-.38-.4-.37-1.03,.03-1.41l2.79-2.69c.19-.18,.45-.28,.71-.28,.26,0,.52,.11,.7,.3l5.07,5.25c.35,.37,.54,.85,.53,1.36,0,.51-.22,.98-.58,1.34l-1.48,1.43c-.36,.34-.83,.53-1.32,.53Zm-.06-1.97h0Zm-4.25-4.54l4.32,4.48,1.36-1.31-4.32-4.48-1.36,1.31Z"/></g><g><circle class="cls-5" cx="215.83" cy="220.84" r="5.7"/><path id="path18" class="cls-4" d="M211.58,220.29c0-.95,.77-1.72,1.72-1.72,.95,0,1.72,.77,1.72,1.72,0,.95-.77,1.72-1.72,1.72s-1.72-.77-1.72-1.72"/></g></g></svg>