<?xml version="1.0" encoding="UTF-8"?><svg id="Layer_1" xmlns="http://www.w3.org/2000/svg" viewBox="0 0 340 186.75"><defs><style>.cls-1{fill:#f7f7f9;}.cls-2{fill:#f2f2f7;}.cls-3{fill:#fff;}.cls-4{fill:#ececf1;}.cls-5{fill:#989898;}.cls-6{fill:#333;}.cls-7{fill:#1a1a1a;}.cls-8{fill:#6bcbba;}.cls-9{opacity:.4;}</style></defs><rect class="cls-8" x="9.71" y="99.83" width="315.58" height="39.03" rx="19.51" ry="19.51"/><g><g><circle class="cls-6" cx="166.26" cy="145.6" r="18.21"/><g><circle class="cls-3" cx="166.26" cy="145.6" r="13.19"/><path class="cls-6" d="M166.26,159.77c-.09,0-.18,0-.26,0-3.78-.07-7.32-1.61-9.94-4.33-2.63-2.72-4.04-6.31-3.97-10.09,.07-3.78,1.61-7.32,4.33-9.94,2.72-2.63,6.31-4.04,10.09-3.97,3.78,.07,7.32,1.61,9.94,4.33,2.63,2.72,4.04,6.31,3.97,10.09-.07,3.78-1.61,7.32-4.33,9.94-2.66,2.57-6.14,3.97-9.83,3.97Zm-.01-26.38c-3.18,0-6.18,1.21-8.47,3.42-2.35,2.26-3.67,5.31-3.73,8.57-.06,3.26,1.15,6.35,3.42,8.7,2.26,2.35,5.31,3.67,8.57,3.73,3.26,.06,6.35-1.15,8.7-3.42,2.35-2.26,3.67-5.31,3.73-8.57,.06-3.26-1.15-6.35-3.42-8.7-2.26-2.35-5.31-3.67-8.57-3.73-.08,0-.15,0-.23,0Z"/></g></g><rect class="cls-6" x="180.48" y="157.03" width="1.96" height="6.41" transform="translate(-60.39 170.86) rotate(-43.96)"/><g><path class="cls-6" d="M185.48,161.32h2c.5,0,.91,.41,.91,.91v7.19h-3.83v-7.19c0-.5,.41-.91,.91-.91Z" transform="translate(435.49 154.95) rotate(136.04)"/><path class="cls-6" d="M187.93,170.22s-.02,0-.03,0c-.5,0-.97-.21-1.32-.57l-5-5.19c-.38-.39-.37-1.01,.03-1.39l2.75-2.66c.19-.18,.44-.28,.7-.28,.26,0,.51,.11,.69,.3l5,5.19c.35,.36,.54,.84,.53,1.34,0,.5-.21,.97-.57,1.32l-1.46,1.41c-.35,.34-.81,.53-1.3,.53Zm-.06-1.94h0Zm-4.2-4.48l4.26,4.42,1.34-1.29-4.26-4.42-1.34,1.29Z"/></g><g><circle class="cls-8" cx="166.26" cy="145.6" r="5.62"/><path id="path18" class="cls-7" d="M162.06,145.06c0-.94,.76-1.7,1.7-1.7,.94,0,1.7,.76,1.7,1.7,0,.94-.76,1.7-1.7,1.7-.94,0-1.7-.76-1.7-1.7"/></g></g><g><rect class="cls-4" x="41.76" y="13.4" width="109.13" height="19.26" rx="9" ry="9"/><g><path class="cls-5" d="M67.33,26.98h-1.6v-7.77h1.6v7.77Z"/><path class="cls-5" d="M70.13,21.2l.05,.67c.41-.52,.97-.77,1.66-.77,.61,0,1.07,.18,1.37,.54,.3,.36,.45,.9,.46,1.61v3.73h-1.54v-3.69c0-.33-.07-.57-.21-.71-.14-.15-.38-.22-.71-.22-.43,0-.76,.19-.98,.56v4.07h-1.54v-5.78h1.45Z"/><path class="cls-5" d="M76.68,19.78v1.42h.99v1.13h-.99v2.88c0,.21,.04,.37,.12,.46,.08,.09,.24,.14,.47,.14,.17,0,.32-.01,.45-.04v1.17c-.3,.09-.61,.14-.93,.14-1.08,0-1.63-.55-1.66-1.64v-3.11h-.84v-1.13h.84v-1.42h1.54Z"/><path class="cls-5" d="M81.19,27.08c-.85,0-1.54-.26-2.07-.78-.53-.52-.8-1.21-.8-2.08v-.15c0-.58,.11-1.1,.34-1.56,.22-.46,.54-.81,.95-1.06,.41-.25,.88-.37,1.41-.37,.79,0,1.41,.25,1.87,.75,.45,.5,.68,1.2,.68,2.12v.63h-3.68c.05,.38,.2,.68,.45,.91,.25,.23,.57,.34,.95,.34,.59,0,1.06-.22,1.39-.65l.76,.85c-.23,.33-.54,.58-.94,.77-.4,.18-.83,.28-1.31,.28Zm-.18-4.75c-.31,0-.55,.1-.74,.31-.19,.21-.31,.5-.37,.89h2.15v-.12c0-.34-.1-.61-.28-.8-.18-.19-.43-.28-.76-.28Z"/><path class="cls-5" d="M87.69,22.65c-.21-.03-.4-.04-.56-.04-.58,0-.97,.2-1.15,.59v3.78h-1.54v-5.78h1.46l.04,.69c.31-.53,.74-.8,1.29-.8,.17,0,.33,.02,.48,.07l-.02,1.48Z"/><path class="cls-5" d="M89.85,21.2l.05,.67c.41-.52,.97-.77,1.66-.77,.61,0,1.07,.18,1.37,.54,.3,.36,.45,.9,.46,1.61v3.73h-1.54v-3.69c0-.33-.07-.57-.21-.71-.14-.15-.38-.22-.71-.22-.43,0-.76,.19-.98,.56v4.07h-1.54v-5.78h1.45Z"/><path class="cls-5" d="M97.21,27.08c-.85,0-1.54-.26-2.07-.78-.53-.52-.8-1.21-.8-2.08v-.15c0-.58,.11-1.1,.34-1.56,.22-.46,.54-.81,.95-1.06,.41-.25,.88-.37,1.41-.37,.79,0,1.41,.25,1.87,.75,.45,.5,.68,1.2,.68,2.12v.63h-3.68c.05,.38,.2,.68,.45,.91,.25,.23,.57,.34,.95,.34,.59,0,1.06-.22,1.39-.65l.76,.85c-.23,.33-.54,.58-.94,.77-.4,.18-.83,.28-1.31,.28Zm-.18-4.75c-.31,0-.55,.1-.74,.31-.19,.21-.31,.5-.37,.89h2.15v-.12c0-.34-.1-.61-.28-.8-.18-.19-.43-.28-.76-.28Z"/><path class="cls-5" d="M102.31,19.78v1.42h.99v1.13h-.99v2.88c0,.21,.04,.37,.12,.46,.08,.09,.24,.14,.47,.14,.17,0,.32-.01,.45-.04v1.17c-.3,.09-.61,.14-.93,.14-1.08,0-1.63-.55-1.66-1.64v-3.11h-.84v-1.13h.84v-1.42h1.54Z"/><path class="cls-5" d="M111.37,25.37h-2.81l-.53,1.6h-1.7l2.89-7.77h1.48l2.91,7.77h-1.7l-.54-1.6Zm-2.38-1.3h1.94l-.98-2.91-.97,2.91Z"/><path class="cls-5" d="M117.48,22.65c-.21-.03-.4-.04-.56-.04-.58,0-.97,.2-1.15,.59v3.78h-1.54v-5.78h1.46l.04,.69c.31-.53,.74-.8,1.29-.8,.17,0,.33,.02,.48,.07l-.02,1.48Z"/><path class="cls-5" d="M120.53,25.84c.28,0,.52-.08,.69-.23,.18-.16,.27-.36,.28-.62h1.45c0,.39-.11,.75-.32,1.08-.21,.33-.5,.58-.86,.76-.36,.18-.77,.27-1.21,.27-.83,0-1.48-.26-1.95-.79-.48-.52-.72-1.25-.72-2.18v-.1c0-.89,.24-1.6,.71-2.13,.47-.53,1.12-.8,1.95-.8,.72,0,1.3,.21,1.74,.62,.44,.41,.66,.96,.66,1.64h-1.45c0-.3-.1-.54-.28-.73-.18-.19-.41-.28-.7-.28-.36,0-.63,.13-.81,.39-.18,.26-.27,.69-.27,1.28v.16c0,.6,.09,1.02,.27,1.28,.18,.26,.46,.39,.83,.39Z"/><path class="cls-5" d="M125.33,21.83c.41-.49,.92-.74,1.54-.74,1.25,0,1.89,.73,1.91,2.18v3.7h-1.54v-3.66c0-.33-.07-.58-.21-.73-.14-.16-.38-.24-.71-.24-.45,0-.78,.17-.98,.52v4.11h-1.54v-8.2h1.54v3.05Z"/><path class="cls-5" d="M129.93,19.7c0-.23,.08-.42,.23-.57,.15-.15,.37-.22,.63-.22s.47,.07,.63,.22c.16,.15,.23,.34,.23,.57s-.08,.43-.24,.58c-.16,.15-.37,.22-.63,.22s-.47-.07-.63-.22c-.16-.15-.24-.34-.24-.58Zm1.64,7.27h-1.55v-5.78h1.55v5.78Z"/><path class="cls-5" d="M135.01,25.09l1.07-3.89h1.61l-1.95,5.78h-1.47l-1.95-5.78h1.61l1.07,3.89Z"/><path class="cls-5" d="M140.96,27.08c-.85,0-1.54-.26-2.07-.78-.53-.52-.8-1.21-.8-2.08v-.15c0-.58,.11-1.1,.34-1.56,.22-.46,.54-.81,.95-1.06,.41-.25,.88-.37,1.41-.37,.79,0,1.41,.25,1.87,.75,.45,.5,.68,1.2,.68,2.12v.63h-3.68c.05,.38,.2,.68,.45,.91,.25,.23,.57,.34,.95,.34,.59,0,1.06-.22,1.39-.65l.76,.85c-.23,.33-.54,.58-.94,.77-.4,.18-.83,.28-1.31,.28Zm-.18-4.75c-.31,0-.55,.1-.74,.31-.19,.21-.31,.5-.37,.89h2.15v-.12c0-.34-.1-.61-.28-.8-.18-.19-.43-.28-.76-.28Z"/></g><path class="cls-6" d="M51.56,14.07c-4.84,0-8.76,3.92-8.76,8.76s3.92,8.76,8.76,8.76,8.76-3.92,8.76-8.76c-.01-4.83-3.93-8.75-8.76-8.76Zm0,2.63c1.45,0,2.63,1.18,2.63,2.63s-1.18,2.63-2.63,2.63-2.63-1.18-2.63-2.63c0-1.45,1.18-2.62,2.63-2.63Zm0,12.66c-2.11,0-4.08-1.06-5.26-2.81,.04-1.75,3.51-2.72,5.26-2.72s5.22,.96,5.26,2.72c-1.18,1.74-3.15,2.79-5.26,2.81Z"/></g><g><rect class="cls-4" x="9.66" y="65.83" width="115.55" height="19.26" rx="9" ry="9"/><g><path class="cls-5" d="M34.6,79.51v-7.77h2.72c.94,0,1.66,.18,2.15,.54,.49,.36,.73,.89,.73,1.59,0,.38-.1,.72-.29,1.01-.2,.29-.47,.5-.82,.64,.4,.1,.71,.3,.94,.6,.23,.3,.34,.67,.34,1.11,0,.75-.24,1.31-.72,1.7-.48,.38-1.16,.58-2.04,.59h-3.02Zm1.6-4.52h1.19c.81-.01,1.21-.34,1.21-.97,0-.35-.1-.61-.31-.76-.2-.15-.53-.23-.97-.23h-1.12v1.96Zm0,1.13v2.1h1.37c.38,0,.67-.09,.88-.27,.21-.18,.32-.43,.32-.74,0-.71-.37-1.07-1.11-1.08h-1.47Z"/><path class="cls-5" d="M44.82,79.51c-.07-.14-.12-.31-.15-.52-.37,.42-.86,.62-1.46,.62-.57,0-1.03-.16-1.41-.49-.37-.33-.56-.74-.56-1.24,0-.61,.23-1.08,.68-1.41,.45-.33,1.11-.49,1.97-.5h.71v-.33c0-.27-.07-.48-.21-.64-.14-.16-.35-.24-.65-.24-.26,0-.46,.06-.61,.19-.15,.12-.22,.3-.22,.51h-1.54c0-.33,.1-.64,.31-.93,.21-.28,.5-.51,.88-.67,.38-.16,.8-.24,1.27-.24,.71,0,1.28,.18,1.7,.54,.42,.36,.63,.86,.63,1.51v2.5c0,.55,.08,.96,.23,1.24v.09h-1.56Zm-1.28-1.07c.23,0,.44-.05,.63-.15s.33-.24,.43-.41v-.99h-.58c-.77,0-1.18,.27-1.23,.8v.09c0,.19,.06,.35,.2,.48,.14,.12,.32,.19,.56,.19Z"/><path class="cls-5" d="M48.96,79.51h-1.55v-8.2h1.55v8.2Z"/><path class="cls-5" d="M53.58,79.51c-.07-.14-.12-.31-.15-.52-.37,.42-.86,.62-1.46,.62-.57,0-1.03-.16-1.41-.49-.37-.33-.56-.74-.56-1.24,0-.61,.23-1.08,.68-1.41,.45-.33,1.11-.49,1.97-.5h.71v-.33c0-.27-.07-.48-.21-.64-.14-.16-.35-.24-.65-.24-.26,0-.46,.06-.61,.19-.15,.12-.22,.3-.22,.51h-1.54c0-.33,.1-.64,.31-.93,.21-.28,.5-.51,.88-.67,.38-.16,.8-.24,1.27-.24,.71,0,1.28,.18,1.7,.54,.42,.36,.63,.86,.63,1.51v2.5c0,.55,.08,.96,.23,1.24v.09h-1.56Zm-1.28-1.07c.23,0,.44-.05,.63-.15s.33-.24,.43-.41v-.99h-.58c-.77,0-1.18,.27-1.23,.8v.09c0,.19,.06,.35,.2,.48,.14,.12,.32,.19,.56,.19Z"/><path class="cls-5" d="M57.52,73.74l.05,.67c.41-.52,.97-.77,1.66-.77,.61,0,1.07,.18,1.37,.54s.45,.9,.46,1.61v3.73h-1.54v-3.69c0-.33-.07-.57-.21-.71-.14-.15-.38-.22-.71-.22-.43,0-.76,.19-.98,.56v4.07h-1.54v-5.78h1.45Z"/><path class="cls-5" d="M64.62,78.38c.28,0,.52-.08,.69-.23,.18-.16,.27-.36,.28-.62h1.45c0,.39-.11,.75-.32,1.08-.21,.33-.5,.58-.86,.76-.36,.18-.77,.27-1.21,.27-.83,0-1.48-.26-1.95-.79-.48-.52-.72-1.25-.72-2.18v-.1c0-.89,.24-1.6,.71-2.13,.47-.53,1.12-.8,1.95-.8,.72,0,1.3,.21,1.74,.62,.44,.41,.66,.96,.66,1.64h-1.45c0-.3-.1-.54-.28-.73-.18-.19-.41-.28-.7-.28-.36,0-.63,.13-.81,.39-.18,.26-.27,.69-.27,1.28v.16c0,.6,.09,1.02,.27,1.28,.18,.26,.46,.39,.83,.39Z"/><path class="cls-5" d="M70.58,79.62c-.85,0-1.54-.26-2.07-.78-.53-.52-.8-1.21-.8-2.08v-.15c0-.58,.11-1.1,.34-1.56,.22-.46,.54-.81,.95-1.06,.41-.25,.88-.37,1.41-.37,.79,0,1.41,.25,1.87,.75,.45,.5,.68,1.2,.68,2.12v.63h-3.68c.05,.38,.2,.68,.45,.91,.25,.23,.57,.34,.95,.34,.59,0,1.06-.22,1.39-.65l.76,.85c-.23,.33-.54,.58-.94,.77-.4,.18-.83,.28-1.31,.28Zm-.18-4.75c-.31,0-.55,.1-.74,.31-.19,.21-.31,.5-.37,.89h2.15v-.12c0-.34-.1-.61-.28-.8-.18-.19-.43-.28-.76-.28Z"/><path class="cls-5" d="M82.08,78.76c0-.25,.08-.44,.25-.6,.17-.15,.37-.23,.62-.23s.46,.08,.63,.23c.17,.15,.25,.35,.25,.6s-.08,.44-.25,.59c-.16,.15-.37,.23-.63,.23s-.46-.08-.62-.23c-.16-.15-.25-.35-.25-.59Z"/><path class="cls-5" d="M85.26,78.76c0-.25,.08-.44,.25-.6,.17-.15,.37-.23,.62-.23s.46,.08,.63,.23c.17,.15,.25,.35,.25,.6s-.08,.44-.25,.59c-.16,.15-.37,.23-.63,.23s-.46-.08-.62-.23c-.16-.15-.25-.35-.25-.59Z"/><path class="cls-5" d="M88.44,78.76c0-.25,.08-.44,.25-.6,.17-.15,.37-.23,.62-.23s.46,.08,.63,.23c.17,.15,.25,.35,.25,.6s-.08,.44-.25,.59c-.16,.15-.37,.23-.63,.23s-.46-.08-.62-.23c-.16-.15-.25-.35-.25-.59Z"/><path class="cls-5" d="M91.61,78.76c0-.25,.08-.44,.25-.6,.17-.15,.37-.23,.62-.23s.46,.08,.63,.23c.17,.15,.25,.35,.25,.6s-.08,.44-.25,.59c-.16,.15-.37,.23-.63,.23s-.46-.08-.62-.23c-.16-.15-.25-.35-.25-.59Z"/><path class="cls-5" d="M94.81,79.51v-7.77h2.72c.94,0,1.66,.18,2.15,.54,.49,.36,.73,.89,.73,1.59,0,.38-.1,.72-.29,1.01-.2,.29-.47,.5-.82,.64,.4,.1,.71,.3,.94,.6,.23,.3,.34,.67,.34,1.11,0,.75-.24,1.31-.72,1.7-.48,.38-1.16,.58-2.04,.59h-3.02Zm1.6-4.52h1.19c.81-.01,1.21-.34,1.21-.97,0-.35-.1-.61-.31-.76-.2-.15-.53-.23-.97-.23h-1.12v1.96Zm0,1.13v2.1h1.37c.38,0,.67-.09,.88-.27,.21-.18,.32-.43,.32-.74,0-.71-.37-1.07-1.11-1.08h-1.47Z"/><path class="cls-5" d="M107.5,73.04h-2.38v6.48h-1.6v-6.48h-2.35v-1.3h6.33v1.3Z"/><path class="cls-5" d="M114.36,76.93c-.06,.84-.37,1.49-.93,1.98-.56,.48-1.29,.72-2.2,.72-1,0-1.78-.34-2.35-1.01-.57-.67-.86-1.59-.86-2.76v-.48c0-.75,.13-1.41,.4-1.98,.26-.57,.64-1.01,1.13-1.31,.49-.3,1.06-.46,1.71-.46,.9,0,1.62,.24,2.17,.72,.55,.48,.86,1.16,.95,2.02h-1.6c-.04-.5-.18-.87-.42-1.09s-.61-.34-1.1-.34c-.53,0-.93,.19-1.2,.57-.27,.38-.4,.98-.41,1.78v.59c0,.84,.13,1.45,.38,1.84,.25,.39,.66,.58,1.2,.58,.49,0,.86-.11,1.11-.34,.24-.23,.38-.58,.42-1.05h1.6Z"/></g><g><circle class="cls-6" cx="19.35" cy="75.68" r="8.78"/><path class="cls-4" d="M21.99,73.11c-.34-.99-1.3-1.13-2.43-.96l-.34-1.41-.86,.2,.33,1.37c-.23,.05-.46,.11-.68,.17l-.33-1.38-.86,.2,.34,1.41c-.19,.05-.37,.1-.54,.14h0s-1.18,.28-1.18,.28l.22,.92s.63-.16,.62-.15c.35-.08,.51,.09,.58,.26l.38,1.61s.06-.01,.09-.02c-.03,0-.06,.01-.09,.02l.54,2.25c.01,.11-.01,.3-.25,.36,.01,0-.62,.15-.62,.15l.07,1.07,1.12-.27c.21-.05,.41-.09,.61-.14l.34,1.43,.86-.2-.34-1.41c.24-.05,.47-.1,.69-.16l.33,1.41,.86-.2-.34-1.42c1.42-.43,2.35-1.03,2.15-2.42-.16-1.12-.79-1.48-1.65-1.48,.44-.37,.64-.89,.39-1.62h0Zm-.47,3.34c.25,1.07-1.6,1.38-2.18,1.52l-.45-1.89c.58-.14,2.37-.74,2.63,.37Zm-1.04-2.57c.23,.97-1.32,1.22-1.8,1.34l-.41-1.71c.48-.12,1.97-.63,2.21,.38Z"/></g></g><g><rect class="cls-2" x="116.65" y="41.22" width="199.01" height="19.26" rx="9" ry="9"/><rect class="cls-1" x="124.14" y="50.32" width="199.01" height="19.26" rx="9" ry="9"/><g><rect class="cls-4" x="132.7" y="59.41" width="199.01" height="19.26" rx="9" ry="9"/><g><path class="cls-5" d="M153.86,66.62h-2.38v6.48h-1.6v-6.48h-2.35v-1.3h6.33v1.3Z"/><path class="cls-5" d="M157.57,68.77c-.21-.03-.4-.04-.56-.04-.58,0-.97,.2-1.15,.59v3.78h-1.54v-5.78h1.46l.04,.69c.31-.53,.74-.8,1.29-.8,.17,0,.33,.02,.48,.07l-.02,1.48Z"/><path class="cls-5" d="M161.5,73.1c-.07-.14-.12-.31-.15-.52-.37,.42-.86,.62-1.46,.62-.57,0-1.03-.16-1.41-.49-.37-.33-.56-.74-.56-1.24,0-.61,.23-1.08,.68-1.41,.45-.33,1.11-.49,1.97-.5h.71v-.33c0-.27-.07-.48-.21-.64-.14-.16-.35-.24-.65-.24-.26,0-.46,.06-.61,.19-.15,.12-.22,.3-.22,.51h-1.54c0-.33,.1-.64,.31-.93,.21-.28,.5-.51,.88-.67,.38-.16,.8-.24,1.27-.24,.71,0,1.28,.18,1.7,.54,.42,.36,.63,.86,.63,1.51v2.5c0,.55,.08,.96,.23,1.24v.09h-1.56Zm-1.28-1.07c.23,0,.44-.05,.63-.15s.33-.24,.43-.41v-.99h-.58c-.77,0-1.18,.27-1.23,.8v.09c0,.19,.06,.35,.2,.48,.14,.12,.32,.19,.56,.19Z"/><path class="cls-5" d="M165.43,67.32l.05,.67c.41-.52,.97-.77,1.66-.77,.61,0,1.07,.18,1.37,.54,.3,.36,.45,.9,.46,1.61v3.73h-1.54v-3.69c0-.33-.07-.57-.21-.71-.14-.15-.38-.22-.71-.22-.43,0-.76,.19-.98,.56v4.07h-1.54v-5.78h1.45Z"/><path class="cls-5" d="M173.27,71.5c0-.19-.09-.34-.28-.45-.19-.11-.49-.21-.9-.29-1.37-.29-2.06-.87-2.06-1.75,0-.51,.21-.94,.64-1.28,.43-.34,.98-.52,1.67-.52,.73,0,1.32,.17,1.76,.52,.44,.35,.66,.79,.66,1.35h-1.54c0-.22-.07-.4-.21-.55-.14-.14-.36-.22-.67-.22-.26,0-.46,.06-.6,.18-.14,.12-.21,.27-.21,.45,0,.17,.08,.31,.24,.41,.16,.11,.44,.2,.82,.27,.38,.08,.71,.16,.97,.26,.82,.3,1.22,.82,1.22,1.55,0,.53-.23,.95-.68,1.28-.45,.33-1.04,.49-1.75,.49-.48,0-.91-.09-1.29-.26-.38-.17-.67-.41-.88-.71-.21-.3-.32-.63-.32-.97h1.46c.01,.27,.12,.48,.3,.63,.19,.15,.44,.22,.76,.22,.3,0,.52-.06,.67-.17,.15-.11,.23-.26,.23-.44Z"/><path class="cls-5" d="M179.11,73.1c-.07-.14-.12-.31-.15-.52-.37,.42-.86,.62-1.46,.62-.57,0-1.03-.16-1.41-.49-.37-.33-.56-.74-.56-1.24,0-.61,.23-1.08,.68-1.41,.45-.33,1.11-.49,1.97-.5h.71v-.33c0-.27-.07-.48-.21-.64-.14-.16-.35-.24-.65-.24-.26,0-.46,.06-.61,.19-.15,.12-.22,.3-.22,.51h-1.54c0-.33,.1-.64,.31-.93,.21-.28,.5-.51,.88-.67,.38-.16,.8-.24,1.27-.24,.71,0,1.28,.18,1.7,.54,.42,.36,.63,.86,.63,1.51v2.5c0,.55,.08,.96,.23,1.24v.09h-1.56Zm-1.28-1.07c.23,0,.44-.05,.63-.15s.33-.24,.43-.41v-.99h-.58c-.77,0-1.18,.27-1.23,.8v.09c0,.19,.06,.35,.2,.48,.14,.12,.32,.19,.56,.19Z"/><path class="cls-5" d="M184.03,71.96c.28,0,.52-.08,.69-.23,.18-.16,.27-.36,.28-.62h1.45c0,.39-.11,.75-.32,1.08-.21,.33-.5,.58-.86,.76-.36,.18-.77,.27-1.21,.27-.83,0-1.48-.26-1.95-.79-.48-.52-.72-1.25-.72-2.18v-.1c0-.89,.24-1.6,.71-2.13,.47-.53,1.12-.8,1.95-.8,.72,0,1.3,.21,1.74,.62,.44,.41,.66,.96,.66,1.64h-1.45c0-.3-.1-.54-.28-.73-.18-.19-.41-.28-.7-.28-.36,0-.63,.13-.81,.39-.18,.26-.27,.69-.27,1.28v.16c0,.6,.09,1.02,.27,1.28,.18,.26,.46,.39,.83,.39Z"/><path class="cls-5" d="M189.17,65.9v1.42h.99v1.13h-.99v2.88c0,.21,.04,.37,.12,.46,.08,.09,.24,.14,.47,.14,.17,0,.32-.01,.45-.04v1.17c-.3,.09-.61,.14-.93,.14-1.08,0-1.63-.55-1.66-1.64v-3.11h-.84v-1.13h.84v-1.42h1.54Z"/><path class="cls-5" d="M191.01,65.82c0-.23,.08-.42,.23-.57,.15-.15,.37-.22,.63-.22s.47,.07,.63,.22c.16,.15,.23,.34,.23,.57s-.08,.43-.24,.58c-.16,.15-.37,.22-.63,.22s-.47-.07-.63-.22c-.16-.15-.24-.34-.24-.58Zm1.64,7.27h-1.55v-5.78h1.55v5.78Z"/><path class="cls-5" d="M193.68,70.15c0-.57,.11-1.08,.33-1.53,.22-.45,.54-.8,.95-1.04,.41-.25,.9-.37,1.44-.37,.78,0,1.42,.24,1.91,.72,.49,.48,.77,1.12,.82,1.94v.4c.01,.89-.24,1.6-.73,2.13-.49,.54-1.16,.8-1.99,.8s-1.5-.27-1.99-.8-.74-1.26-.74-2.18v-.07Zm1.54,.11c0,.55,.1,.97,.31,1.26,.21,.29,.5,.44,.89,.44s.67-.14,.88-.43c.21-.29,.32-.75,.32-1.38,0-.54-.11-.96-.32-1.25-.21-.3-.51-.44-.89-.44s-.67,.15-.88,.44c-.21,.29-.31,.75-.31,1.37Z"/><path class="cls-5" d="M201.52,67.32l.05,.67c.41-.52,.97-.77,1.66-.77,.61,0,1.07,.18,1.37,.54,.3,.36,.45,.9,.46,1.61v3.73h-1.54v-3.69c0-.33-.07-.57-.21-.71-.14-.15-.38-.22-.71-.22-.43,0-.76,.19-.98,.56v4.07h-1.54v-5.78h1.45Z"/><path class="cls-5" d="M210.45,68.52h.82c.39,0,.68-.1,.87-.29,.19-.2,.28-.46,.28-.78s-.09-.56-.28-.73c-.19-.17-.44-.26-.77-.26-.3,0-.54,.08-.74,.24-.2,.16-.3,.37-.3,.63h-1.54c0-.41,.11-.77,.33-1.09,.22-.32,.52-.57,.92-.76,.39-.18,.83-.27,1.3-.27,.82,0,1.47,.2,1.93,.59,.47,.39,.7,.94,.7,1.63,0,.36-.11,.68-.33,.98-.22,.3-.5,.53-.85,.69,.44,.16,.76,.39,.98,.7,.22,.31,.32,.68,.32,1.11,0,.69-.25,1.24-.76,1.66-.5,.42-1.17,.62-2,.62-.78,0-1.41-.2-1.9-.61-.49-.41-.74-.95-.74-1.62h1.54c0,.29,.11,.53,.33,.72,.22,.19,.49,.28,.81,.28,.37,0,.65-.1,.86-.29,.21-.19,.31-.45,.31-.77,0-.78-.43-1.16-1.28-1.16h-.82v-1.21Z"/><path class="cls-5" d="M218.91,73.1h-1.54v-5.95l-1.84,.57v-1.25l3.22-1.15h.17v7.78Z"/><path class="cls-5" d="M223.9,71.96c.28,0,.52-.08,.69-.23,.18-.16,.27-.36,.28-.62h1.45c0,.39-.11,.75-.32,1.08-.21,.33-.5,.58-.86,.76-.36,.18-.77,.27-1.21,.27-.83,0-1.48-.26-1.95-.79-.48-.52-.72-1.25-.72-2.18v-.1c0-.89,.24-1.6,.71-2.13,.47-.53,1.12-.8,1.95-.8,.72,0,1.3,.21,1.74,.62,.44,.41,.66,.96,.66,1.64h-1.45c0-.3-.1-.54-.28-.73-.18-.19-.41-.28-.7-.28-.36,0-.63,.13-.81,.39-.18,.26-.27,.69-.27,1.28v.16c0,.6,.09,1.02,.27,1.28,.18,.26,.46,.39,.83,.39Z"/><path class="cls-5" d="M227.36,69.27l.45-3.95h4.36v1.29h-3.09l-.19,1.67c.37-.2,.76-.29,1.17-.29,.74,0,1.32,.23,1.74,.69,.42,.46,.63,1.1,.63,1.93,0,.5-.11,.95-.32,1.35-.21,.4-.52,.7-.91,.92s-.86,.33-1.4,.33c-.47,0-.91-.1-1.31-.29-.4-.19-.72-.46-.95-.8-.23-.35-.36-.74-.37-1.18h1.53c.03,.32,.14,.58,.34,.76,.19,.18,.45,.27,.76,.27,.35,0,.62-.13,.81-.38,.19-.25,.28-.61,.28-1.07s-.11-.78-.33-1.01c-.22-.23-.53-.35-.92-.35-.37,0-.66,.1-.89,.29l-.15,.14-1.23-.3Z"/><path class="cls-5" d="M238.69,66.18l-3.01,6.91h-1.63l3.01-6.53h-3.87v-1.24h5.49v.86Z"/><path class="cls-5" d="M243.43,73.1h-1.54v-5.95l-1.84,.57v-1.25l3.22-1.15h.17v7.78Z"/><path class="cls-5" d="M251.19,69.88c0,1.08-.22,1.9-.67,2.47-.45,.57-1.1,.85-1.95,.85s-1.49-.28-1.94-.84-.68-1.36-.69-2.4v-1.43c0-1.09,.23-1.91,.68-2.47,.45-.56,1.1-.84,1.95-.84s1.49,.28,1.94,.84c.45,.56,.68,1.36,.69,2.4v1.43Zm-1.54-1.57c0-.64-.09-1.11-.26-1.41-.18-.29-.45-.44-.82-.44s-.63,.14-.8,.42c-.17,.28-.26,.72-.27,1.31v1.89c0,.63,.09,1.11,.26,1.41,.17,.31,.45,.46,.83,.46s.65-.15,.82-.44c.17-.3,.25-.75,.26-1.36v-1.85Z"/><path class="cls-5" d="M256.79,70.17h.88v1.24h-.88v1.68h-1.54v-1.68h-3.19l-.07-.97,3.24-5.12h1.56v4.85Zm-3.26,0h1.72v-2.74l-.1,.18-1.62,2.57Z"/><path class="cls-5" d="M258.65,72.34c0-.25,.08-.44,.25-.6,.17-.15,.37-.23,.62-.23s.46,.08,.63,.23c.17,.15,.25,.35,.25,.6s-.08,.44-.25,.59c-.16,.15-.37,.23-.63,.23s-.46-.08-.62-.23c-.16-.15-.25-.35-.25-.59Z"/><path class="cls-5" d="M261.82,72.34c0-.25,.08-.44,.25-.6,.17-.15,.37-.23,.62-.23s.46,.08,.63,.23c.17,.15,.25,.35,.25,.6s-.08,.44-.25,.59c-.16,.15-.37,.23-.63,.23s-.46-.08-.62-.23c-.16-.15-.25-.35-.25-.59Z"/><path class="cls-5" d="M265,72.34c0-.25,.08-.44,.25-.6,.17-.15,.37-.23,.62-.23s.46,.08,.63,.23c.17,.15,.25,.35,.25,.6s-.08,.44-.25,.59c-.16,.15-.37,.23-.63,.23s-.46-.08-.62-.23c-.16-.15-.25-.35-.25-.59Z"/><path class="cls-5" d="M273.32,66.18l-3.01,6.91h-1.63l3.01-6.53h-3.87v-1.24h5.49v.86Z"/><path class="cls-5" d="M279.37,67.39c0,.38-.09,.71-.28,1-.19,.29-.45,.53-.78,.7,.38,.18,.68,.43,.9,.75,.22,.32,.33,.69,.33,1.12,0,.69-.23,1.24-.7,1.64-.47,.4-1.11,.6-1.92,.6s-1.45-.2-1.92-.6c-.47-.4-.71-.95-.71-1.63,0-.43,.11-.81,.33-1.13,.22-.32,.52-.57,.89-.75-.33-.17-.59-.41-.78-.7-.19-.29-.28-.63-.28-1,0-.66,.22-1.19,.66-1.58,.44-.39,1.04-.59,1.8-.59s1.35,.19,1.8,.58c.44,.39,.66,.92,.66,1.59Zm-1.38,3.47c0-.34-.1-.61-.29-.81-.2-.2-.46-.3-.79-.3s-.59,.1-.78,.3c-.2,.2-.29,.47-.29,.81s.1,.6,.29,.8c.19,.2,.46,.3,.8,.3s.6-.1,.79-.29c.19-.2,.29-.47,.29-.81Zm-.16-3.39c0-.3-.08-.55-.24-.73-.16-.18-.39-.27-.68-.27s-.51,.09-.67,.27-.24,.42-.24,.74,.08,.56,.24,.75c.16,.19,.39,.28,.68,.28s.52-.09,.68-.28c.16-.19,.24-.44,.24-.75Z"/><path class="cls-5" d="M280.81,69.27l.45-3.95h4.36v1.29h-3.09l-.19,1.67c.37-.2,.76-.29,1.17-.29,.74,0,1.32,.23,1.74,.69,.42,.46,.63,1.1,.63,1.93,0,.5-.11,.95-.32,1.35-.21,.4-.52,.7-.91,.92s-.86,.33-1.4,.33c-.47,0-.91-.1-1.31-.29-.4-.19-.72-.46-.95-.8-.23-.35-.36-.74-.37-1.18h1.53c.03,.32,.14,.58,.34,.76,.19,.18,.45,.27,.76,.27,.35,0,.62-.13,.81-.38,.19-.25,.28-.61,.28-1.07s-.11-.78-.33-1.01c-.22-.23-.53-.35-.92-.35-.37,0-.66,.1-.89,.29l-.15,.14-1.23-.3Z"/><path class="cls-5" d="M287.08,69.27l.45-3.95h4.36v1.29h-3.09l-.19,1.67c.37-.2,.76-.29,1.17-.29,.74,0,1.32,.23,1.74,.69,.42,.46,.63,1.1,.63,1.93,0,.5-.11,.95-.32,1.35-.21,.4-.52,.7-.91,.92s-.86,.33-1.4,.33c-.47,0-.91-.1-1.31-.29-.4-.19-.72-.46-.95-.8-.23-.35-.36-.74-.37-1.18h1.53c.03,.32,.14,.58,.34,.76,.19,.18,.45,.27,.76,.27,.35,0,.62-.13,.81-.38,.19-.25,.28-.61,.28-1.07s-.11-.78-.33-1.01c-.22-.23-.53-.35-.92-.35-.37,0-.66,.1-.89,.29l-.15,.14-1.23-.3Z"/><path class="cls-5" d="M293.61,73.1v-4.65h-.86v-1.13h.86v-.49c0-.65,.19-1.15,.56-1.51,.37-.36,.89-.54,1.56-.54,.21,0,.48,.04,.78,.11l-.02,1.2c-.13-.03-.28-.05-.47-.05-.58,0-.87,.27-.87,.82v.46h1.15v1.13h-1.15v4.65h-1.55Z"/><path class="cls-5" d="M302.28,69.88c0,1.08-.22,1.9-.67,2.47-.45,.57-1.1,.85-1.95,.85s-1.49-.28-1.94-.84-.68-1.36-.69-2.4v-1.43c0-1.09,.23-1.91,.68-2.47,.45-.56,1.1-.84,1.95-.84s1.49,.28,1.94,.84c.45,.56,.68,1.36,.69,2.4v1.43Zm-1.54-1.57c0-.64-.09-1.11-.26-1.41-.18-.29-.45-.44-.82-.44s-.63,.14-.8,.42c-.17,.28-.26,.72-.27,1.31v1.89c0,.63,.09,1.11,.26,1.41,.17,.31,.45,.46,.83,.46s.65-.15,.82-.44c.17-.3,.25-.75,.26-1.36v-1.85Z"/><path class="cls-5" d="M305.79,71.96c.28,0,.52-.08,.69-.23,.18-.16,.27-.36,.28-.62h1.45c0,.39-.11,.75-.32,1.08-.21,.33-.5,.58-.86,.76-.36,.18-.77,.27-1.21,.27-.83,0-1.48-.26-1.95-.79-.48-.52-.72-1.25-.72-2.18v-.1c0-.89,.24-1.6,.71-2.13,.47-.53,1.12-.8,1.95-.8,.72,0,1.3,.21,1.74,.62,.44,.41,.66,.96,.66,1.64h-1.45c0-.3-.1-.54-.28-.73-.18-.19-.41-.28-.7-.28-.36,0-.63,.13-.81,.39-.18,.26-.27,.69-.27,1.28v.16c0,.6,.09,1.02,.27,1.28,.18,.26,.46,.39,.83,.39Z"/><path class="cls-5" d="M313.59,70.17h.88v1.24h-.88v1.68h-1.54v-1.68h-3.19l-.07-.97,3.24-5.12h1.56v4.85Zm-3.26,0h1.72v-2.74l-.1,.18-1.62,2.57Z"/></g></g></g><g class="cls-9"><g><path class="cls-3" d="M40.15,120.64c0,1.68-.35,2.97-1.04,3.86-.7,.89-1.72,1.34-3.06,1.34s-2.34-.44-3.04-1.31c-.7-.87-1.06-2.13-1.08-3.76v-2.24c0-1.7,.35-2.99,1.06-3.87,.7-.88,1.72-1.32,3.05-1.32s2.34,.44,3.04,1.31c.7,.87,1.06,2.12,1.08,3.76v2.24Zm-2.42-2.46c0-1.01-.14-1.74-.41-2.2-.28-.46-.71-.69-1.29-.69s-.99,.22-1.26,.66c-.27,.44-.41,1.12-.43,2.05v2.96c0,.99,.14,1.73,.41,2.21,.27,.48,.7,.72,1.3,.72s1.02-.23,1.28-.69c.26-.46,.4-1.17,.41-2.13v-2.89Z"/><path class="cls-3" d="M45.32,119.33l1.52-2.7h2.58l-2.57,4.43,2.68,4.61h-2.59l-1.61-2.84-1.6,2.84h-2.6l2.68-4.61-2.57-4.43h2.59l1.49,2.7Z"/><path class="cls-3" d="M57.04,113.38v1.99h-.23c-1.09,.02-1.97,.3-2.64,.85-.67,.55-1.07,1.32-1.2,2.3,.65-.66,1.46-.99,2.45-.99,1.06,0,1.9,.38,2.52,1.14,.62,.76,.94,1.76,.94,2.99,0,.79-.17,1.51-.51,2.15-.34,.64-.83,1.14-1.45,1.5-.63,.36-1.34,.54-2.13,.54-1.28,0-2.32-.45-3.11-1.34-.79-.89-1.18-2.08-1.18-3.57v-.87c0-1.32,.25-2.49,.75-3.5,.5-1.01,1.21-1.79,2.15-2.35,.93-.55,2.02-.83,3.25-.84h.4Zm-2.36,6.1c-.39,0-.74,.1-1.06,.3-.32,.2-.55,.47-.7,.81v.73c0,.81,.16,1.44,.48,1.89,.32,.45,.76,.68,1.34,.68,.52,0,.94-.2,1.26-.61,.32-.41,.48-.94,.48-1.59s-.16-1.2-.48-1.6c-.32-.41-.76-.61-1.3-.61Z"/><path class="cls-3" d="M62.76,118.52h1.29c.61,0,1.07-.15,1.36-.46,.3-.31,.44-.71,.44-1.22s-.15-.87-.44-1.15c-.29-.27-.7-.41-1.21-.41-.46,0-.85,.13-1.16,.38-.31,.25-.47,.58-.47,.99h-2.42c0-.64,.17-1.2,.51-1.71,.34-.5,.82-.9,1.44-1.18,.62-.28,1.29-.43,2.04-.43,1.29,0,2.3,.31,3.03,.92,.73,.62,1.1,1.46,1.1,2.55,0,.56-.17,1.07-.51,1.54-.34,.47-.79,.83-1.34,1.08,.69,.25,1.2,.61,1.53,1.1,.34,.49,.51,1.07,.51,1.74,0,1.08-.39,1.95-1.18,2.6-.79,.65-1.83,.98-3.13,.98-1.21,0-2.21-.32-2.98-.96-.77-.64-1.16-1.49-1.16-2.54h2.42c0,.46,.17,.83,.51,1.12,.34,.29,.76,.43,1.27,.43,.57,0,1.02-.15,1.35-.46,.33-.3,.49-.71,.49-1.21,0-1.21-.67-1.82-2.01-1.82h-1.28v-1.89Z"/><path class="cls-3" d="M70.49,119.69l.7-6.19h6.82v2.01h-4.84l-.3,2.62c.57-.31,1.18-.46,1.83-.46,1.16,0,2.07,.36,2.72,1.08,.66,.72,.99,1.72,.99,3.02,0,.79-.17,1.49-.5,2.11-.33,.62-.81,1.1-1.43,1.45-.62,.34-1.35,.51-2.19,.51-.74,0-1.42-.15-2.05-.45-.63-.3-1.13-.72-1.49-1.26-.37-.54-.56-1.16-.58-1.85h2.39c.05,.51,.23,.9,.53,1.18,.3,.28,.7,.42,1.19,.42,.55,0,.97-.2,1.26-.59,.3-.39,.44-.95,.44-1.67s-.17-1.22-.51-1.59c-.34-.37-.82-.55-1.45-.55-.57,0-1.04,.15-1.4,.45l-.23,.22-1.92-.48Z"/><path class="cls-3" d="M80.31,119.69l.7-6.19h6.82v2.01h-4.84l-.3,2.62c.57-.31,1.18-.46,1.83-.46,1.16,0,2.07,.36,2.72,1.08,.66,.72,.99,1.72,.99,3.02,0,.79-.17,1.49-.5,2.11-.33,.62-.81,1.1-1.43,1.45-.62,.34-1.35,.51-2.19,.51-.74,0-1.42-.15-2.05-.45-.63-.3-1.13-.72-1.49-1.26-.37-.54-.56-1.16-.58-1.85h2.39c.05,.51,.23,.9,.53,1.18,.3,.28,.7,.42,1.19,.42,.55,0,.97-.2,1.26-.59,.3-.39,.44-.95,.44-1.67s-.17-1.22-.51-1.59c-.34-.37-.82-.55-1.45-.55-.57,0-1.04,.15-1.4,.45l-.23,.22-1.92-.48Z"/><path class="cls-3" d="M95.42,120.81c-.63,.62-1.37,.93-2.21,.93-1.08,0-1.94-.37-2.58-1.11-.65-.74-.97-1.73-.97-2.99,0-.8,.17-1.53,.52-2.19,.35-.67,.83-1.18,1.46-1.55,.62-.37,1.33-.56,2.11-.56s1.52,.2,2.14,.6c.62,.4,1.11,.98,1.45,1.73,.35,.75,.52,1.61,.53,2.58v.89c0,2.03-.5,3.62-1.51,4.78-1.01,1.16-2.44,1.78-4.29,1.86h-.59s0-2.01,0-2.01h.53c2.1-.1,3.24-1.09,3.41-2.97Zm-1.61-.92c.39,0,.73-.1,1.01-.3,.28-.2,.49-.44,.64-.73v-.99c0-.82-.16-1.45-.47-1.91-.31-.45-.73-.68-1.25-.68-.48,0-.88,.22-1.2,.66-.31,.44-.47,1-.47,1.67s.15,1.21,.46,1.63c.3,.43,.73,.64,1.28,.64Z"/><path class="cls-3" d="M105.24,120.81c-.63,.62-1.37,.93-2.21,.93-1.08,0-1.94-.37-2.58-1.11-.65-.74-.97-1.73-.97-2.99,0-.8,.17-1.53,.52-2.19,.35-.67,.83-1.18,1.46-1.55,.62-.37,1.33-.56,2.11-.56s1.52,.2,2.14,.6c.62,.4,1.11,.98,1.45,1.73,.35,.75,.52,1.61,.53,2.58v.89c0,2.03-.5,3.62-1.51,4.78-1.01,1.16-2.44,1.78-4.29,1.86h-.59s0-2.01,0-2.01h.53c2.1-.1,3.24-1.09,3.41-2.97Zm-1.61-.92c.39,0,.73-.1,1.01-.3,.28-.2,.49-.44,.64-.73v-.99c0-.82-.16-1.45-.47-1.91-.31-.45-.73-.68-1.25-.68-.48,0-.88,.22-1.2,.66-.31,.44-.47,1-.47,1.67s.15,1.21,.46,1.63c.3,.43,.73,.64,1.28,.64Z"/><path class="cls-3" d="M117.67,121.24c0,1.45-.31,2.58-.93,3.39-.62,.81-1.48,1.22-2.59,1.22-.98,0-1.76-.38-2.35-1.13l-.11,.96h-2.17v-12.84h2.42v4.61c.56-.65,1.29-.98,2.2-.98,1.1,0,1.97,.41,2.6,1.22,.63,.81,.94,1.95,.94,3.42v.13Zm-2.42-.18c0-.91-.14-1.58-.43-2-.29-.42-.72-.63-1.3-.63-.77,0-1.3,.31-1.59,.94v3.57c.3,.64,.83,.95,1.6,.95s1.29-.38,1.54-1.15c.12-.37,.18-.93,.18-1.68Z"/><path class="cls-3" d="M127.24,120.64c0,1.68-.35,2.97-1.04,3.86-.7,.89-1.72,1.34-3.06,1.34s-2.34-.44-3.04-1.31c-.7-.87-1.06-2.13-1.08-3.76v-2.24c0-1.7,.35-2.99,1.06-3.87,.7-.88,1.72-1.32,3.05-1.32s2.34,.44,3.04,1.31c.7,.87,1.06,2.12,1.08,3.76v2.24Zm-2.42-2.46c0-1.01-.14-1.74-.41-2.2-.28-.46-.71-.69-1.29-.69s-.99,.22-1.26,.66c-.27,.44-.41,1.12-.43,2.05v2.96c0,.99,.14,1.73,.41,2.21,.27,.48,.7,.72,1.3,.72s1.02-.23,1.28-.69c.26-.46,.4-1.17,.41-2.13v-2.89Z"/><path class="cls-3" d="M134.22,125.68c-.11-.22-.19-.49-.24-.81-.59,.65-1.35,.98-2.28,.98-.89,0-1.62-.26-2.2-.77-.58-.51-.87-1.16-.87-1.94,0-.96,.36-1.69,1.07-2.21,.71-.51,1.74-.77,3.08-.78h1.11v-.52c0-.42-.11-.75-.32-1-.21-.25-.55-.38-1.02-.38-.41,0-.73,.1-.96,.29-.23,.2-.35,.46-.35,.8h-2.42c0-.52,.16-1.01,.48-1.45,.32-.45,.78-.8,1.37-1.05,.59-.25,1.25-.38,1.99-.38,1.11,0,2,.28,2.65,.84,.65,.56,.98,1.35,.98,2.36v3.92c0,.86,.13,1.51,.36,1.95v.14h-2.44Zm-2-1.68c.36,0,.69-.08,.99-.24,.3-.16,.52-.37,.67-.64v-1.55h-.9c-1.21,0-1.85,.42-1.93,1.25v.14c0,.3,.1,.55,.31,.74,.21,.2,.5,.29,.87,.29Z"/><path class="cls-3" d="M146.3,121.24c0,1.45-.31,2.58-.93,3.39-.62,.81-1.48,1.22-2.59,1.22-.98,0-1.76-.38-2.35-1.13l-.11,.96h-2.17v-12.84h2.42v4.61c.56-.65,1.29-.98,2.2-.98,1.1,0,1.97,.41,2.6,1.22,.63,.81,.94,1.95,.94,3.42v.13Zm-2.42-.18c0-.91-.14-1.58-.43-2-.29-.42-.72-.63-1.3-.63-.77,0-1.3,.31-1.59,.94v3.57c.3,.64,.83,.95,1.6,.95s1.29-.38,1.54-1.15c.12-.37,.18-.93,.18-1.68Z"/><path class="cls-3" d="M154.84,121.09h1.38v1.95h-1.38v2.63h-2.42v-2.63h-4.99l-.11-1.52,5.07-8.02h2.44v7.59Zm-5.11,0h2.69v-4.3l-.16,.28-2.53,4.02Z"/><path class="cls-3" d="M165.76,121.24c0,1.45-.31,2.58-.93,3.39-.62,.81-1.48,1.22-2.59,1.22-.98,0-1.76-.38-2.35-1.13l-.11,.96h-2.17v-12.84h2.42v4.61c.56-.65,1.29-.98,2.2-.98,1.1,0,1.97,.41,2.6,1.22,.63,.81,.94,1.95,.94,3.42v.13Zm-2.42-.18c0-.91-.14-1.58-.43-2-.29-.42-.72-.63-1.3-.63-.77,0-1.3,.31-1.59,.94v3.57c.3,.64,.83,.95,1.6,.95s1.29-.38,1.54-1.15c.12-.37,.18-.93,.18-1.68Z"/><path class="cls-3" d="M167.51,119.69l.7-6.19h6.82v2.01h-4.84l-.3,2.62c.57-.31,1.18-.46,1.83-.46,1.16,0,2.07,.36,2.72,1.08,.66,.72,.99,1.72,.99,3.02,0,.79-.17,1.49-.5,2.11-.33,.62-.81,1.1-1.43,1.45-.62,.34-1.35,.51-2.19,.51-.74,0-1.42-.15-2.05-.45-.63-.3-1.13-.72-1.49-1.26-.37-.54-.56-1.16-.58-1.85h2.39c.05,.51,.23,.9,.53,1.18,.3,.28,.7,.42,1.19,.42,.55,0,.97-.2,1.26-.59,.3-.39,.44-.95,.44-1.67s-.17-1.22-.51-1.59c-.34-.37-.82-.55-1.45-.55-.57,0-1.04,.15-1.4,.45l-.23,.22-1.92-.48Z"/><path class="cls-3" d="M180.83,123.89c.45,0,.81-.12,1.09-.37,.28-.25,.42-.57,.43-.98h2.27c0,.61-.17,1.17-.5,1.68-.33,.51-.78,.91-1.35,1.19-.57,.28-1.2,.42-1.89,.42-1.29,0-2.31-.41-3.06-1.23-.75-.82-1.12-1.96-1.12-3.41v-.16c0-1.39,.37-2.5,1.11-3.34,.74-.83,1.76-1.25,3.05-1.25,1.13,0,2.04,.32,2.72,.97,.68,.64,1.03,1.5,1.04,2.57h-2.27c-.01-.47-.16-.85-.43-1.15-.28-.29-.65-.44-1.1-.44-.56,0-.99,.21-1.27,.62-.29,.41-.43,1.08-.43,2v.25c0,.93,.14,1.6,.43,2.01,.28,.41,.72,.61,1.3,.61Z"/><path class="cls-3" d="M192.45,113.38v1.99h-.23c-1.09,.02-1.97,.3-2.64,.85-.67,.55-1.07,1.32-1.2,2.3,.65-.66,1.46-.99,2.45-.99,1.06,0,1.9,.38,2.52,1.14,.62,.76,.94,1.76,.94,2.99,0,.79-.17,1.51-.51,2.15-.34,.64-.83,1.14-1.45,1.5-.63,.36-1.34,.54-2.13,.54-1.28,0-2.32-.45-3.11-1.34-.79-.89-1.18-2.08-1.18-3.57v-.87c0-1.32,.25-2.49,.75-3.5,.5-1.01,1.21-1.79,2.15-2.35,.93-.55,2.02-.83,3.25-.84h.4Zm-2.36,6.1c-.39,0-.74,.1-1.06,.3-.32,.2-.55,.47-.7,.81v.73c0,.81,.16,1.44,.48,1.89,.32,.45,.76,.68,1.34,.68,.52,0,.94-.2,1.26-.61,.32-.41,.48-.94,.48-1.59s-.16-1.2-.48-1.6c-.32-.41-.76-.61-1.3-.61Z"/><path class="cls-3" d="M203.97,121.24c0,1.45-.31,2.58-.93,3.39-.62,.81-1.48,1.22-2.59,1.22-.98,0-1.76-.38-2.35-1.13l-.11,.96h-2.17v-12.84h2.42v4.61c.56-.65,1.29-.98,2.2-.98,1.1,0,1.97,.41,2.6,1.22,.63,.81,.94,1.95,.94,3.42v.13Zm-2.42-.18c0-.91-.14-1.58-.43-2-.29-.42-.72-.63-1.3-.63-.77,0-1.3,.31-1.59,.94v3.57c.3,.64,.83,.95,1.6,.95s1.29-.38,1.54-1.15c.12-.37,.18-.93,.18-1.68Z"/><path class="cls-3" d="M211.22,125.68h-2.42v-9.31l-2.88,.89v-1.96l5.04-1.81h.26v12.19Z"/><path class="cls-3" d="M217.64,118.52h1.29c.61,0,1.07-.15,1.36-.46,.3-.31,.44-.71,.44-1.22s-.15-.87-.44-1.15c-.29-.27-.7-.41-1.21-.41-.46,0-.85,.13-1.16,.38-.31,.25-.47,.58-.47,.99h-2.42c0-.64,.17-1.2,.51-1.71,.34-.5,.82-.9,1.44-1.18,.62-.28,1.29-.43,2.04-.43,1.29,0,2.3,.31,3.03,.92,.73,.62,1.1,1.46,1.1,2.55,0,.56-.17,1.07-.51,1.54-.34,.47-.79,.83-1.34,1.08,.69,.25,1.2,.61,1.53,1.1,.34,.49,.51,1.07,.51,1.74,0,1.08-.39,1.95-1.18,2.6-.79,.65-1.83,.98-3.13,.98-1.21,0-2.21-.32-2.98-.96-.77-.64-1.16-1.49-1.16-2.54h2.42c0,.46,.17,.83,.51,1.12,.34,.29,.76,.43,1.27,.43,.57,0,1.02-.15,1.35-.46,.33-.3,.49-.71,.49-1.21,0-1.21-.67-1.82-2.01-1.82h-1.28v-1.89Z"/><path class="cls-3" d="M230.65,120.81c-.63,.62-1.37,.93-2.21,.93-1.08,0-1.94-.37-2.58-1.11-.65-.74-.97-1.73-.97-2.99,0-.8,.17-1.53,.52-2.19,.35-.67,.83-1.18,1.46-1.55,.62-.37,1.33-.56,2.11-.56s1.52,.2,2.14,.6c.62,.4,1.11,.98,1.45,1.73,.35,.75,.52,1.61,.53,2.58v.89c0,2.03-.5,3.62-1.51,4.78-1.01,1.16-2.44,1.78-4.29,1.86h-.59s0-2.01,0-2.01h.53c2.1-.1,3.24-1.09,3.41-2.97Zm-1.61-.92c.39,0,.73-.1,1.01-.3,.28-.2,.49-.44,.64-.73v-.99c0-.82-.16-1.45-.47-1.91-.31-.45-.73-.68-1.25-.68-.48,0-.88,.22-1.2,.66-.31,.44-.47,1-.47,1.67s.15,1.21,.46,1.63c.3,.43,.73,.64,1.28,.64Z"/><path class="cls-3" d="M243.16,125.68h-8.34v-1.66l3.94-4.2c.54-.59,.94-1.11,1.2-1.55s.39-.86,.39-1.25c0-.54-.14-.97-.41-1.27-.27-.31-.66-.46-1.17-.46-.55,0-.98,.19-1.29,.56-.31,.38-.47,.87-.47,1.48h-2.42c0-.74,.18-1.42,.53-2.03,.35-.61,.85-1.09,1.5-1.44,.65-.35,1.38-.52,2.2-.52,1.25,0,2.23,.3,2.92,.9,.69,.6,1.04,1.45,1.04,2.55,0,.6-.16,1.21-.47,1.84-.31,.62-.85,1.35-1.6,2.18l-2.77,2.92h5.23v1.95Z"/><path class="cls-3" d="M248.91,125.84c-1.33,0-2.41-.41-3.24-1.22-.83-.81-1.25-1.9-1.25-3.25v-.23c0-.91,.18-1.72,.53-2.44,.35-.72,.85-1.27,1.49-1.66,.64-.39,1.38-.58,2.2-.58,1.24,0,2.21,.39,2.92,1.17,.71,.78,1.07,1.89,1.07,3.32v.99h-5.76c.08,.59,.31,1.06,.71,1.42,.39,.36,.89,.54,1.49,.54,.93,0,1.66-.34,2.18-1.01l1.19,1.33c-.36,.51-.85,.91-1.47,1.2-.62,.29-1.3,.43-2.06,.43Zm-.28-7.43c-.48,0-.87,.16-1.17,.49-.3,.32-.49,.79-.57,1.39h3.36v-.19c-.01-.54-.16-.95-.43-1.25-.28-.29-.67-.44-1.19-.44Z"/><path class="cls-3" d="M262.09,120.64c0,1.68-.35,2.97-1.04,3.86-.7,.89-1.72,1.34-3.06,1.34s-2.34-.44-3.04-1.31c-.7-.87-1.06-2.13-1.08-3.76v-2.24c0-1.7,.35-2.99,1.06-3.87,.7-.88,1.72-1.32,3.05-1.32s2.34,.44,3.04,1.31c.7,.87,1.06,2.12,1.08,3.76v2.24Zm-2.42-2.46c0-1.01-.14-1.74-.41-2.2-.28-.46-.71-.69-1.29-.69s-.99,.22-1.26,.66c-.27,.44-.41,1.12-.43,2.05v2.96c0,.99,.14,1.73,.41,2.21,.27,.48,.7,.72,1.3,.72s1.02-.23,1.28-.69c.26-.46,.4-1.17,.41-2.13v-2.89Z"/><path class="cls-3" d="M263.94,124.49c0-.38,.13-.7,.39-.94,.26-.24,.58-.36,.97-.36s.72,.12,.98,.36c.26,.24,.39,.55,.39,.94s-.13,.69-.38,.92c-.26,.24-.59,.36-.99,.36s-.72-.12-.98-.36c-.26-.24-.38-.54-.38-.92Z"/><path class="cls-3" d="M268.92,124.49c0-.38,.13-.7,.39-.94,.26-.24,.58-.36,.97-.36s.72,.12,.98,.36c.26,.24,.39,.55,.39,.94s-.13,.69-.38,.92c-.26,.24-.59,.36-.99,.36s-.72-.12-.98-.36c-.26-.24-.38-.54-.38-.92Z"/><path class="cls-3" d="M273.89,124.49c0-.38,.13-.7,.39-.94,.26-.24,.58-.36,.97-.36s.72,.12,.98,.36c.26,.24,.39,.55,.39,.94s-.13,.69-.38,.92c-.26,.24-.59,.36-.99,.36s-.72-.12-.98-.36c-.26-.24-.38-.54-.38-.92Z"/></g></g></svg>