<?xml version="1.0" encoding="UTF-8"?><svg id="Layer_1" xmlns="http://www.w3.org/2000/svg" xmlns:xlink="http://www.w3.org/1999/xlink" viewBox="0 0 340 204"><defs><style>.cls-1{fill:none;}.cls-2{clip-path:url(#clippath);}.cls-3,.cls-4{fill:#fff;}.cls-5,.cls-6{fill:#333;}.cls-7{fill:#c9c9c9;}.cls-8{fill:#6bcbba;}.cls-6{isolation:isolate;opacity:.5;}.cls-4{opacity:.3;}</style><clipPath id="clippath"><rect class="cls-1" x="9.24" y="32.29" width="332" height="170"/></clipPath></defs><path class="cls-8" d="M220.88,52.72H46.49c-1.79,0-3.24,1.48-3.24,3.32v84.33c0,1.83,1.45,3.32,3.24,3.32H220.88c1.79,0,3.24-1.49,3.24-3.32V56.04c0-1.83-1.45-3.32-3.24-3.32Z"/><path class="cls-4" d="M167.63,83.96c.53-3.57-2.19-5.49-5.91-6.77l1.21-4.84-2.95-.73-1.17,4.71c-.77-.19-1.57-.38-2.36-.56l1.18-4.74-2.94-.73-1.21,4.84c-.64-.15-1.27-.29-1.88-.44h0s-4.06-1.03-4.06-1.03l-.78,3.15s2.19,.5,2.14,.53c1.19,.3,1.41,1.09,1.37,1.71l-1.37,5.51c.08,.02,.19,.05,.31,.1-.1-.02-.2-.05-.31-.08l-1.93,7.72c-.15,.36-.52,.91-1.35,.7,.03,.04-2.14-.53-2.14-.53l-1.46,3.37,3.83,.96c.71,.18,1.41,.37,2.1,.54l-1.22,4.89,2.94,.73,1.21-4.84c.8,.22,1.58,.42,2.35,.61l-1.2,4.82,2.95,.73,1.22-4.89c5.02,.95,8.8,.57,10.39-3.98,1.28-3.66-.06-5.77-2.71-7.14,1.92-.44,3.37-1.71,3.76-4.33h0Zm-6.73,9.44c-.91,3.66-7.07,1.68-9.07,1.18l1.62-6.48c2,.5,8.4,1.49,7.45,5.3Zm.91-9.49c-.83,3.33-5.96,1.64-7.62,1.22l1.47-5.88c1.66,.41,7.02,1.19,6.15,4.66Z"/><path class="cls-7" d="M282.77,28.4H22.5c-.23,0-.41-.2-.41-.43,0-.22,.19-.4,.41-.41H282.77c.23,0,.41,.2,.41,.43,0,.22-.19,.4-.41,.41Z"/><ellipse class="cls-5" cx="31.7" cy="17.95" rx="4.5" ry="4.6"/><ellipse class="cls-5" cx="47.24" cy="17.95" rx="4.5" ry="4.6"/><ellipse class="cls-5" cx="62.77" cy="17.95" rx="4.5" ry="4.6"/><path class="cls-5" d="M273.46,14.5h-11.04c-.46,0-.83,.39-.82,.85,0,.45,.37,.81,.82,.82h11.04c.46,0,.83-.39,.82-.85,0-.45-.37-.81-.82-.82Z"/><path class="cls-5" d="M273.46,17.63h-11.04c-.46,0-.83,.39-.82,.85,0,.45,.37,.81,.82,.82h11.04c.46,0,.83-.39,.82-.85,0-.45-.37-.81-.82-.82Z"/><path class="cls-5" d="M273.46,20.76h-11.04c-.46,0-.83,.39-.82,.85,0,.45,.37,.81,.82,.82h11.04c.46,0,.83-.39,.82-.85,0-.45-.37-.81-.82-.82Z"/><g class="cls-2"><g><rect class="cls-5" x="47.25" y="21.89" width=".85" height="33.4"/><rect class="cls-5" x="47.25" y="72.64" width=".85" height="39.83"/><rect class="cls-5" x="45.98" y="118.81" width="65.58" height=".85"/><rect class="cls-5" x="25.67" y="172.54" width="99.42" height=".85"/><rect class="cls-5" x="207.17" y="-6.88" width=".85" height="42.73"/><rect class="cls-5" x="138.62" y="42.62" width="62.21" height=".85"/><rect class="cls-5" x="131.44" y="52.29" width=".85" height="46.22"/><path class="cls-5" d="M47.67,73.12c-3.97,0-7.19-3.22-7.19-7.19s3.22-7.19,7.19-7.19,7.19,3.22,7.19,7.19c0,3.97-3.22,7.19-7.19,7.19Zm0-13.54c-3.5,0-6.35,2.84-6.35,6.35s2.84,6.35,6.35,6.35,6.35-2.84,6.35-6.35c0-3.5-2.84-6.34-6.35-6.35Z"/><path class="cls-5" d="M18.9,180.16c-3.97,0-7.19-3.22-7.19-7.19s3.22-7.19,7.19-7.19,7.19,3.22,7.19,7.19h0c0,3.97-3.22,7.19-7.19,7.19Zm0-13.54c-3.5,0-6.35,2.84-6.35,6.35s2.84,6.35,6.35,6.35,6.35-2.84,6.35-6.35h0c0-3.5-2.84-6.34-6.35-6.35Z"/><circle class="cls-3" cx="48.09" cy="119.24" r="6.77"/><rect class="cls-5" x="219.71" y="40.51" width="35.35" height=".85"/><rect class="cls-5" x="190.63" y="72.64" width=".85" height="37.73"/><rect class="cls-5" x="152.6" y="118.81" width="24.11" height=".85"/><rect class="cls-5" x="251.6" y="122.62" width="58.38" height=".85"/><rect class="cls-5" x="244.83" y="130.24" width=".85" height="35.96"/><rect class="cls-5" x="138.63" y="172.54" width="99.42" height=".85"/><rect class="cls-5" x="131.44" y="139.97" width=".85" height="26.23"/><circle class="cls-3" cx="191.06" cy="67.93" r="6.77"/><path class="cls-5" d="M207.6,49.81c-3.97,0-7.19-3.22-7.19-7.19s3.22-7.19,7.19-7.19,7.19,3.22,7.19,7.19c0,3.97-3.22,7.19-7.19,7.19Zm0-13.54c-3.5,0-6.35,2.84-6.35,6.35s2.84,6.35,6.35,6.35,6.35-2.84,6.35-6.35c0-3.5-2.84-6.34-6.35-6.35h0Z"/><path class="cls-5" d="M131.86,49.81c-3.97,0-7.19-3.22-7.19-7.19s3.22-7.19,7.19-7.19,7.19,3.22,7.19,7.19c0,3.97-3.22,7.19-7.19,7.19Zm0-13.54c-3.5,0-6.35,2.84-6.35,6.35s2.84,6.35,6.35,6.35,6.35-2.84,6.35-6.35c0-3.5-2.84-6.34-6.35-6.35h0Z"/><path class="cls-5" d="M244.83,130.66c-3.97,0-7.19-3.22-7.19-7.19s3.22-7.19,7.19-7.19,7.19,3.22,7.19,7.19h0c0,3.97-3.22,7.19-7.19,7.19Zm0-13.54c-3.5,0-6.35,2.84-6.35,6.35s2.84,6.35,6.35,6.35,6.35-2.84,6.35-6.35h0c0-3.5-2.84-6.34-6.35-6.35Z"/><path class="cls-5" d="M244.83,180.66c-3.97,0-7.19-3.22-7.19-7.19s3.22-7.19,7.19-7.19,7.19,3.22,7.19,7.19h0c0,3.97-3.22,7.19-7.19,7.19Zm0-13.54c-3.5,0-6.35,2.84-6.35,6.35s2.84,6.35,6.35,6.35,6.35-2.84,6.35-6.35h0c0-3.5-2.84-6.34-6.35-6.35Z"/><path class="cls-5" d="M131.86,180.16c-3.97,0-7.19-3.22-7.19-7.19s3.22-7.19,7.19-7.19,7.19,3.22,7.19,7.19h0c0,3.97-3.22,7.19-7.19,7.19Zm0-13.54c-3.5,0-6.35,2.84-6.35,6.35s2.84,6.35,6.35,6.35,6.35-2.84,6.35-6.35h0c0-3.5-2.84-6.34-6.35-6.35Z"/><path class="cls-5" d="M190.63,127.43c-3.97,0-7.19-3.22-7.19-7.19s3.22-7.19,7.19-7.19,7.19,3.22,7.19,7.19h0c0,3.97-3.22,7.19-7.19,7.19Zm0-13.54c-3.5,0-6.35,2.84-6.35,6.35s2.84,6.35,6.35,6.35,6.35-2.84,6.35-6.35c0-3.5-2.84-6.34-6.35-6.35Z"/><path class="cls-5" d="M18.9,109.08c-4.67,0-8.46,3.79-8.46,8.46s3.79,8.46,8.46,8.46,8.46-3.79,8.46-8.46c-.01-4.67-3.79-8.45-8.46-8.46Zm0,2.54c1.4,0,2.54,1.14,2.54,2.54s-1.14,2.54-2.54,2.54-2.54-1.14-2.54-2.54c0-1.4,1.14-2.53,2.54-2.54Zm0,12.22c-2.04,0-3.94-1.02-5.08-2.71,.04-1.69,3.38-2.62,5.08-2.62s5.04,.93,5.08,2.62c-1.14,1.68-3.04,2.7-5.08,2.71Z"/><path class="cls-5" d="M131.9,110.08c-4.67,0-8.46,3.79-8.46,8.46s3.79,8.46,8.46,8.46,8.46-3.79,8.46-8.46c-.01-4.67-3.79-8.45-8.46-8.46Zm0,2.54c1.4,0,2.54,1.14,2.54,2.54s-1.14,2.54-2.54,2.54-2.54-1.14-2.54-2.54c0-1.4,1.14-2.53,2.54-2.54Zm0,12.22c-2.04,0-3.94-1.02-5.08-2.71,.04-1.69,3.38-2.62,5.08-2.62s5.04,.93,5.08,2.62c-1.14,1.68-3.04,2.7-5.08,2.71Z"/><path class="cls-5" d="M48.09,1.58c-4.67,0-8.46,3.79-8.46,8.46s3.79,8.46,8.46,8.46,8.46-3.79,8.46-8.46c-.01-4.67-3.79-8.45-8.46-8.46Zm0,2.54c1.4,0,2.54,1.14,2.54,2.54s-1.14,2.54-2.54,2.54-2.54-1.14-2.54-2.54c0-1.4,1.14-2.53,2.54-2.54Zm0,12.22c-2.04,0-3.94-1.02-5.08-2.71,.04-1.69,3.38-2.62,5.08-2.62s5.04,.93,5.08,2.62c-1.14,1.68-3.04,2.7-5.08,2.71Z"/><path class="cls-5" d="M266.9,32.04c-4.67,0-8.46,3.79-8.46,8.46s3.79,8.46,8.46,8.46,8.46-3.79,8.46-8.46c-.01-4.67-3.79-8.45-8.46-8.46Zm0,2.54c1.4,0,2.54,1.14,2.54,2.54s-1.14,2.54-2.54,2.54-2.54-1.14-2.54-2.54c0-1.4,1.14-2.53,2.54-2.54Zm0,12.22c-2.04,0-3.94-1.02-5.08-2.71,.04-1.69,3.38-2.62,5.08-2.62s5.04,.93,5.08,2.62c-1.14,1.68-3.04,2.7-5.08,2.71Z"/><path class="cls-5" d="M320.98,114.16c-4.67,0-8.46,3.79-8.46,8.46s3.79,8.46,8.46,8.46,8.46-3.79,8.46-8.46c-.01-4.67-3.79-8.45-8.46-8.46Zm0,2.54c1.4,0,2.54,1.14,2.54,2.54s-1.14,2.54-2.54,2.54-2.54-1.14-2.54-2.54c0-1.4,1.14-2.53,2.54-2.54Zm0,12.22c-2.04,0-3.94-1.02-5.08-2.71,.04-1.69,3.38-2.62,5.08-2.62s5.04,.93,5.08,2.62c-1.14,1.68-3.04,2.7-5.08,2.71Z"/></g></g><g><g><path class="cls-5" d="M89.71,112.31H46.49c-1.83,0-3.32-1.49-3.32-3.32v-39.46c0-1.83,1.49-3.32,3.32-3.32h43.22c1.83,0,3.32,1.49,3.32,3.32v39.46c0,1.83-1.49,3.32-3.32,3.32Z"/><circle class="cls-5" cx="59.22" cy="82.82" r="5.39"/><path class="cls-5" d="M80.76,94.75h-25.32c-.89,0-1.6-.72-1.6-1.6s.72-1.6,1.6-1.6h25.32c.89,0,1.6,.72,1.6,1.6s-.72,1.6-1.6,1.6Z"/><path class="cls-5" d="M67.66,101.09h-12.22c-.89,0-1.61-.72-1.61-1.6s.72-1.61,1.6-1.61h12.22c.89,0,1.61,.72,1.61,1.6s-.72,1.61-1.6,1.61h0Z"/><path class="cls-6" d="M89.71,112.31H46.49c-1.83,0-3.32-1.49-3.32-3.32v-39.46c0-1.83,1.49-3.32,3.32-3.32h43.22c1.83,0,3.32,1.49,3.32,3.32v39.46c0,1.83-1.49,3.32-3.32,3.32Z"/><circle class="cls-3" cx="59.22" cy="82.82" r="5.39"/><path class="cls-3" d="M80.76,94.75h-25.32c-.89,0-1.6-.72-1.6-1.6s.72-1.6,1.6-1.6h25.32c.89,0,1.6,.72,1.6,1.6s-.72,1.6-1.6,1.6Z"/><path class="cls-3" d="M67.66,101.09h-12.22c-.89,0-1.61-.72-1.61-1.6s.72-1.61,1.6-1.61h12.22c.89,0,1.61,.72,1.61,1.6s-.72,1.61-1.6,1.61h0Z"/><circle class="cls-8" cx="47.38" cy="66.08" r="8.64"/></g><g><path class="cls-5" d="M221.1,108.4h-43.22c-1.83,0-3.32,1.49-3.32,3.32v32.57h49.86v-32.57c0-1.83-1.49-3.32-3.32-3.32Z"/><path class="cls-6" d="M221.1,154.5h-43.22c-1.83,0-3.32-1.49-3.32-3.33v-39.55c0-1.84,1.49-3.33,3.32-3.33h43.22c1.83,0,3.32,1.49,3.32,3.33v39.55c0,1.84-1.49,3.33-3.32,3.33Z"/><circle class="cls-3" cx="190.61" cy="121.71" r="5.39"/><path class="cls-3" d="M212.15,135.29h-25.32c-.89,0-1.61-.71-1.61-1.6,0-.89,.71-1.61,1.6-1.61h25.33c.89,0,1.61,.71,1.61,1.6,0,.89-.71,1.61-1.6,1.61h0Z"/><path class="cls-3" d="M199.05,141.63h-12.22c-.89,0-1.6-.72-1.6-1.6s.72-1.6,1.6-1.6h12.22c.89,0,1.6,.72,1.6,1.6s-.72,1.6-1.6,1.6Z"/><path class="cls-5" d="M176.98,166.08c-6.28,0-11.38-5.09-11.38-11.38,0-6.28,5.09-11.38,11.38-11.38s11.38,5.09,11.38,11.38h0c0,6.28-5.09,11.38-11.38,11.38Z"/><path class="cls-3" d="M181.46,153.58h-3.37v-3.37c0-.62-.5-1.12-1.12-1.12-.62,0-1.12,.5-1.12,1.12h0v3.37h-3.37c-.62,0-1.12,.5-1.12,1.12s.5,1.12,1.12,1.12h3.37v3.37c0,.62,.5,1.12,1.12,1.12,.62,0,1.12-.5,1.12-1.12h0v-3.37h3.37c.62,0,1.12-.5,1.12-1.12s-.5-1.12-1.12-1.12h0Z"/><circle class="cls-5" cx="177.09" cy="154.88" r="11"/><g><path class="cls-3" d="M179.27,157.12c1.59-1.8,3.18-3.6,4.77-5.4,.05-.23,.1-.57,0-.95-.15-.58-.48-.69-1.27-1.59-.71-.81-.79-1.12-1.27-1.27-.37-.12-.72-.06-.95,0l-5.72,4.77,4.45,4.45Z"/><path class="cls-3" d="M174.18,153.31l4.45,4.45c-.23,.39-.64,.78-.97,1.17-.22,.26-.56,.37-.89,.3s-.6-.14-1.01-.21l-1.27,1.27-2.54-2.54c.42-.32,.85-.95,1.27-1.27-.08-.13-.32-.64-.32-1.27s1.14-1.84,1.27-1.91Z"/><path class="cls-3" d="M171.64,158.71l1.59,1.59c-.21,.32-.42,.64-.64,.95-.85-.21-1.7-.42-2.54-.64,.53-.64,1.06-1.27,1.59-1.91Z"/></g></g><g><path class="cls-5" d="M173.87,52.79c-1.83,0-3.32,1.49-3.32,3.32v23.82c0,1.83,1.49,3.32,3.32,3.32h50.5v-30.46h-50.5Z"/><path class="cls-6" d="M309.29,83.24H173.87c-1.83,0-3.32-1.49-3.32-3.32v-23.82c0-1.83,1.49-3.32,3.32-3.32h135.42c1.83,0,3.32,1.49,3.32,3.32v23.82c0,1.83-1.49,3.32-3.32,3.32Z"/><circle class="cls-3" cx="192.19" cy="69.54" r="5.39"/><path class="cls-3" d="M305.1,67.97h-97.35c-.89,0-1.6-.72-1.6-1.6s.72-1.6,1.6-1.6h97.35c.89,0,1.6,.72,1.6,1.6s-.72,1.6-1.6,1.6Z"/><path class="cls-3" d="M268.12,74.31h-60.38c-.89,0-1.61-.72-1.61-1.6,0-.89,.72-1.61,1.6-1.61h60.38c.89,0,1.6,.72,1.6,1.61,0,.88-.72,1.6-1.6,1.6Z"/><path class="cls-5" d="M308.71,62.46c-6.28,0-11.38-5.09-11.38-11.38,0-6.28,5.09-11.38,11.38-11.38,6.28,0,11.38,5.09,11.38,11.38h0c0,6.28-5.09,11.38-11.38,11.38Z"/><path class="cls-3" d="M313.2,49.96h-3.37v-3.37c0-.62-.5-1.12-1.12-1.12-.62,0-1.12,.5-1.12,1.12v3.37h-3.37c-.62,0-1.12,.5-1.12,1.12,0,.62,.5,1.12,1.12,1.12h3.37v3.37c0,.62,.5,1.12,1.12,1.12,.62,0,1.12-.5,1.12-1.12v-3.37h3.37c.62,0,1.12-.5,1.12-1.12s-.5-1.12-1.12-1.12Z"/><g><circle class="cls-5" cx="309.09" cy="50.88" r="11"/><g><path class="cls-3" d="M311.27,53.12c1.59-1.8,3.18-3.6,4.77-5.4,.05-.23,.1-.57,0-.95-.15-.58-.48-.69-1.27-1.59-.71-.81-.79-1.12-1.27-1.27-.37-.12-.72-.06-.95,0-1.91,1.59-3.81,3.18-5.72,4.77,1.48,1.48,2.97,2.97,4.45,4.45Z"/><path class="cls-3" d="M306.18,49.31l4.45,4.45c-.23,.39-.64,.78-.97,1.17-.22,.26-.56,.37-.89,.3s-.6-.14-1.01-.21l-1.27,1.27-2.54-2.54c.42-.32,.85-.95,1.27-1.27-.08-.13-.32-.64-.32-1.27s1.14-1.84,1.27-1.91Z"/><path class="cls-3" d="M303.64,54.71l1.59,1.59c-.21,.32-.42,.64-.64,.95-.85-.21-1.7-.42-2.54-.64,.53-.64,1.06-1.27,1.59-1.91Z"/></g></g></g></g></svg>