<?xml version="1.0" encoding="UTF-8"?><svg id="Layer_1" xmlns="http://www.w3.org/2000/svg" xmlns:xlink="http://www.w3.org/1999/xlink" viewBox="0 0 340 290"><defs><style>.cls-1,.cls-2{fill:none;}.cls-3{clip-path:url(#clippath);}.cls-4{fill:#fff;}.cls-5{fill:#ececf1;}.cls-6,.cls-7,.cls-8{fill:#333;}.cls-9,.cls-10{fill:#6bcbba;}.cls-7{stroke-width:.5px;}.cls-7,.cls-2{stroke:#333;stroke-miterlimit:10;}.cls-2{stroke-width:2px;}.cls-10,.cls-8{isolation:isolate;}</style><clipPath id="clippath"><path class="cls-1" d="M238.23,147.16H102.91c-8.08-20.2-16.18-42.29-18.22-63.43-1.33-13.87,2.06-27.46,8.12-41.6h123.2c-6.06,14.14-6.65,32.87-4.04,46.45,4.12,21.42,10.1,36.36,26.26,58.57Z"/></clipPath></defs><g><path class="cls-2" d="M69.72,179.58c0-26.22,46.98-47.48,104.92-47.48s104.92,21.26,104.92,47.48"/><g><path class="cls-9" d="M243.37,149.41H102.25c-27.91-47.04-27.91-94.07,0-141.11H243.37c-39.02,47.04-39.02,94.07,0,141.11Z"/><rect class="cls-8" x="122.41" y="25.09" width="79.52" height="10.08"/><g class="cls-3"><g><rect class="cls-7" x="113.47" y="63.85" width=".29" height="15.48"/><rect class="cls-7" x="113.47" y="83.93" width=".29" height="13.62"/><rect class="cls-7" x="113.04" y="99.72" width="22.42" height=".29"/><rect class="cls-7" x="106.09" y="118.09" width="33.99" height=".29"/><rect class="cls-7" x="168.15" y="54.01" width=".29" height="14.61"/><rect class="cls-7" x="144.71" y="70.94" width="21.27" height=".29"/><rect class="cls-7" x="142.26" y="73.25" width=".29" height="19.53"/><path class="cls-7" d="M113.62,84.1c-1.36,0-2.46-1.1-2.46-2.46s1.1-2.46,2.46-2.46,2.46,1.1,2.46,2.46c0,1.36-1.1,2.46-2.46,2.46Zm0-4.63c-1.2,0-2.17,.97-2.17,2.17s.97,2.17,2.17,2.17,2.17-.97,2.17-2.17c0-1.2-.97-2.17-2.17-2.17Z"/><path class="cls-7" d="M103.78,120.69c-1.36,0-2.46-1.1-2.46-2.46s1.1-2.46,2.46-2.46,2.46,1.1,2.46,2.46h0c0,1.36-1.1,2.46-2.46,2.46Zm0-4.63c-1.2,0-2.17,.97-2.17,2.17s.97,2.17,2.17,2.17,2.17-.97,2.17-2.17h0c0-1.2-.97-2.17-2.17-2.17Z"/><circle class="cls-4" cx="113.76" cy="99.87" r="2.31"/><rect class="cls-7" x="173.5" y="81.5" width="24.01" height=".29"/><rect class="cls-7" x="171.04" y="83.93" width=".29" height="13.62"/><rect class="cls-7" x="149.49" y="99.72" width="19.24" height=".29"/><rect class="cls-7" x="183.34" y="101.02" width="19.96" height=".29"/><rect class="cls-7" x="181.02" y="103.63" width=".29" height="12.3"/><rect class="cls-7" x="144.71" y="118.09" width="33.99" height=".29"/><rect class="cls-7" x="142.26" y="106.95" width=".29" height="8.97"/><circle class="cls-4" cx="171.19" cy="81.64" r="2.31"/><path class="cls-7" d="M168.29,73.39c-1.36,0-2.46-1.1-2.46-2.46s1.1-2.46,2.46-2.46,2.46,1.1,2.46,2.46c0,1.36-1.1,2.46-2.46,2.46Zm0-4.63c-1.2,0-2.17,.97-2.17,2.17s.97,2.17,2.17,2.17,2.17-.97,2.17-2.17c0-1.2-.97-2.17-2.17-2.17h0Z"/><path class="cls-7" d="M142.4,73.39c-1.36,0-2.46-1.1-2.46-2.46s1.1-2.46,2.46-2.46,2.46,1.1,2.46,2.46c0,1.36-1.1,2.46-2.46,2.46Zm0-4.63c-1.2,0-2.17,.97-2.17,2.17s.97,2.17,2.17,2.17,2.17-.97,2.17-2.17c0-1.2-.97-2.17-2.17-2.17h0Z"/><path class="cls-7" d="M181.02,103.77c-1.36,0-2.46-1.1-2.46-2.46s1.1-2.46,2.46-2.46,2.46,1.1,2.46,2.46h0c0,1.36-1.1,2.46-2.46,2.46Zm0-4.63c-1.2,0-2.17,.97-2.17,2.17s.97,2.17,2.17,2.17,2.17-.97,2.17-2.17h0c0-1.2-.97-2.17-2.17-2.17Z"/><circle class="cls-4" cx="181.02" cy="118.24" r="2.31"/><path class="cls-7" d="M142.4,120.69c-1.36,0-2.46-1.1-2.46-2.46s1.1-2.46,2.46-2.46,2.46,1.1,2.46,2.46h0c0,1.36-1.1,2.46-2.46,2.46Zm0-4.63c-1.2,0-2.17,.97-2.17,2.17s.97,2.17,2.17,2.17,2.17-.97,2.17-2.17h0c0-1.2-.97-2.17-2.17-2.17Z"/><path class="cls-7" d="M171.04,102.32c-1.36,0-2.46-1.1-2.46-2.46s1.1-2.46,2.46-2.46,2.46,1.1,2.46,2.46h0c0,1.36-1.1,2.46-2.46,2.46Zm0-4.63c-1.2,0-2.17,.97-2.17,2.17s.97,2.17,2.17,2.17,2.17-.97,2.17-2.17c0-1.2-.97-2.17-2.17-2.17Z"/><path class="cls-6" d="M103.78,96.39c-1.6,0-2.89,1.3-2.89,2.89s1.3,2.89,2.89,2.89,2.89-1.3,2.89-2.89c0-1.6-1.3-2.89-2.89-2.89Zm0,.87c.48,0,.87,.39,.87,.87s-.39,.87-.87,.87-.87-.39-.87-.87c0-.48,.39-.87,.87-.87Zm0,4.18c-.7,0-1.35-.35-1.74-.93,.01-.58,1.16-.9,1.74-.9s1.72,.32,1.74,.9c-.39,.58-1.04,.92-1.74,.93Z"/><path class="cls-6" d="M113.76,56.9c-1.6,0-2.89,1.3-2.89,2.89s1.3,2.89,2.89,2.89,2.89-1.3,2.89-2.89c0-1.6-1.3-2.89-2.89-2.89Zm0,.87c.48,0,.87,.39,.87,.87s-.39,.87-.87,.87-.87-.39-.87-.87c0-.48,.39-.87,.87-.87Zm0,4.18c-.7,0-1.35-.35-1.74-.93,.01-.58,1.16-.9,1.74-.9s1.72,.32,1.74,.9c-.39,.58-1.04,.92-1.74,.93Z"/><path class="cls-6" d="M168.29,46.92c-1.6,0-2.89,1.3-2.89,2.89s1.3,2.89,2.89,2.89,2.89-1.3,2.89-2.89c0-1.6-1.3-2.89-2.89-2.89Zm0,.87c.48,0,.87,.39,.87,.87s-.39,.87-.87,.87-.87-.39-.87-.87c0-.48,.39-.87,.87-.87Zm0,4.18c-.7,0-1.35-.35-1.74-.93,.01-.58,1.16-.9,1.74-.9s1.72,.32,1.74,.9c-.39,.58-1.04,.92-1.74,.93Z"/><path class="cls-6" d="M201.56,78.6c-1.6,0-2.89,1.3-2.89,2.89s1.3,2.89,2.89,2.89,2.89-1.3,2.89-2.89c0-1.6-1.3-2.89-2.89-2.89Zm0,.87c.48,0,.87,.39,.87,.87s-.39,.87-.87,.87-.87-.39-.87-.87c0-.48,.39-.87,.87-.87Zm0,4.18c-.7,0-1.35-.35-1.74-.93,.01-.58,1.16-.9,1.74-.9s1.72,.32,1.74,.9c-.39,.58-1.04,.92-1.74,.93Z"/><path class="cls-6" d="M207.06,98.13c-1.6,0-2.89,1.3-2.89,2.89s1.3,2.89,2.89,2.89,2.89-1.3,2.89-2.89c0-1.6-1.3-2.89-2.89-2.89Zm0,.87c.48,0,.87,.39,.87,.87s-.39,.87-.87,.87-.87-.39-.87-.87c0-.48,.39-.87,.87-.87Zm0,4.18c-.7,0-1.35-.35-1.74-.93,.01-.58,1.16-.9,1.74-.9s1.72,.32,1.74,.9c-.39,.58-1.04,.92-1.74,.93Z"/><g><rect class="cls-6" x="147.76" y="104.59" width=".79" height="2.59" transform="translate(-31.99 132.51) rotate(-43.96)"/><g><path class="cls-6" d="M149.76,106.31h.82c.2,0,.36,.16,.36,.36v2.91h-1.54v-2.91c0-.2,.16-.36,.36-.36Z" transform="translate(333.21 81.4) rotate(136.04)"/><path class="cls-6" d="M150.76,109.9s0,0-.01,0c-.2,0-.39-.09-.53-.23l-2.02-2.09c-.15-.16-.15-.41,.01-.56l1.11-1.07c.08-.07,.18-.11,.28-.11,.1,0,.2,.05,.28,.12l2.02,2.09c.14,.15,.22,.34,.21,.54,0,.2-.09,.39-.23,.53l-.59,.57c-.14,.14-.33,.21-.53,.21Zm-.02-.78h0Zm-1.69-1.8l1.72,1.78,.54-.52-1.72-1.78-.54,.52Z"/></g><g><circle class="cls-7" cx="142.02" cy="99.98" r="7.34"/><g><circle class="cls-4" cx="142.02" cy="99.98" r="5.32"/><path class="cls-6" d="M142.03,105.69s-.07,0-.11,0c-1.53-.03-2.95-.65-4.01-1.75-1.06-1.1-1.63-2.54-1.6-4.07,.03-1.53,.65-2.95,1.75-4.01,1.1-1.06,2.54-1.63,4.07-1.6,1.53,.03,2.95,.65,4.01,1.75,1.06,1.1,1.63,2.54,1.6,4.07-.03,1.53-.65,2.95-1.75,4.01-1.07,1.03-2.48,1.6-3.96,1.6Zm0-10.64c-1.28,0-2.49,.49-3.41,1.38-.95,.91-1.48,2.14-1.5,3.45-.02,1.31,.47,2.56,1.38,3.51s2.14,1.48,3.45,1.5c1.31,.02,2.56-.47,3.51-1.38,.95-.91,1.48-2.14,1.5-3.45,.02-1.31-.47-2.56-1.38-3.51-.91-.95-2.14-1.48-3.45-1.5-.03,0-.06,0-.09,0Z"/></g><path class="cls-9" d="M142.03,96.02c-2.24,0-4.06,1.82-4.06,4.06s1.82,4.06,4.06,4.06,4.06-1.82,4.06-4.06c0-2.24-1.82-4.06-4.06-4.06Zm0,1.22c.67,0,1.22,.55,1.22,1.22s-.55,1.22-1.22,1.22-1.22-.55-1.22-1.22c0-.67,.55-1.22,1.22-1.22Zm0,5.87c-.98,0-1.89-.49-2.44-1.3,.02-.81,1.62-1.26,2.44-1.26s2.42,.45,2.44,1.26c-.55,.81-1.46,1.3-2.44,1.3Z"/></g></g><g><circle class="cls-7" cx="171.87" cy="81.87" r="5.69"/><g><path class="cls-4" d="M172.99,83.03c.82-.93,1.64-1.86,2.46-2.79,.03-.12,.05-.29,0-.49-.08-.3-.25-.36-.66-.82-.36-.42-.41-.58-.66-.66-.19-.06-.37-.03-.49,0-.99,.82-1.97,1.64-2.96,2.46,.77,.77,1.53,1.53,2.3,2.3Z"/><path class="cls-4" d="M170.36,81.06l2.3,2.3c-.12,.2-.33,.4-.5,.61-.11,.13-.29,.19-.46,.16s-.31-.07-.52-.11l-.66,.66-1.31-1.31c.22-.16,.44-.49,.66-.66-.04-.07-.16-.33-.16-.66s.59-.95,.66-.99Z"/><path class="cls-4" d="M169.05,83.85l.82,.82c-.11,.16-.22,.33-.33,.49-.44-.11-.88-.22-1.31-.33,.27-.33,.55-.66,.82-.99Z"/></g></g><g><circle class="cls-7" cx="113.3" cy="81.87" r="5.69"/><g><path class="cls-4" d="M114.42,83.03c.82-.93,1.64-1.86,2.46-2.79,.03-.12,.05-.29,0-.49-.08-.3-.25-.36-.66-.82-.36-.42-.41-.58-.66-.66-.19-.06-.37-.03-.49,0-.99,.82-1.97,1.64-2.96,2.46,.77,.77,1.53,1.53,2.3,2.3Z"/><path class="cls-4" d="M111.79,81.06l2.3,2.3c-.12,.2-.33,.4-.5,.61-.11,.13-.29,.19-.46,.16s-.31-.07-.52-.11l-.66,.66-1.31-1.31c.22-.16,.44-.49,.66-.66-.04-.07-.16-.33-.16-.66s.59-.95,.66-.99Z"/><path class="cls-4" d="M110.48,83.85l.82,.82c-.11,.16-.22,.33-.33,.49-.44-.11-.88-.22-1.31-.33,.27-.33,.55-.66,.82-.99Z"/></g></g></g></g></g><path class="cls-2" d="M279.57,179.58c0,27.49-46.98,49.78-104.92,49.78s-104.92-22.29-104.92-49.78"/><path class="cls-2" d="M260.48,230.07c-23.45,10.35-54.06,16.62-87.53,16.62s-61.55-5.76-84.6-15.36"/><path class="cls-2" d="M227.04,119.25c44.63,9.6,76.42,30.72,79.38,55.6"/><path class="cls-2" d="M50.06,158.68c6.16-11.31,17.4-21.27,32.13-28.92"/><g><path class="cls-5" d="M125.59,279.79h69.87c13.82-23.29,13.82-46.58,0-69.87H125.59c19.32,23.29,19.32,46.58,0,69.87Z"/><rect class="cls-9" x="148.7" y="223.23" width="39.37" height="4.99"/><rect class="cls-4" x="145.65" y="238.2" width="52.12" height="1.66"/><rect class="cls-4" x="145.65" y="246.79" width="52.12" height="1.66"/></g><g><path class="cls-5" d="M95.97,232.36H26.1c-13.82-23.29-13.82-46.58,0-69.87H95.97c-19.32,23.29-19.32,46.58,0,69.87Z"/><rect class="cls-9" x="33.87" y="170.82" width="39.37" height="4.99"/><rect class="cls-4" x="25.27" y="184.68" width="52.12" height="1.66"/><rect class="cls-4" x="25.27" y="193.27" width="52.12" height="1.66"/><rect class="cls-4" x="25.27" y="201.87" width="52.12" height="1.66"/><rect class="cls-4" x="25.27" y="210.46" width="52.12" height="1.66"/></g><g><path class="cls-5" d="M249.19,201.18h69.87c13.82-23.29,13.82-46.58,0-69.87h-69.87c19.32,23.29,19.32,46.58,0,69.87Z"/><rect class="cls-9" x="271.48" y="138.25" width="39.37" height="4.99"/><rect class="cls-4" x="267.32" y="152.11" width="52.12" height="1.66"/></g></g><g><g><path class="cls-8" d="M162.76,154.58v-14.21h11.63v14.21h10.53c.14,.07-8.49,8.56-16.34,16.24-5.62-4.91-11.25-11.33-16.87-16.24h11.06Z"/><path class="cls-8" d="M200.74,185.47h-62.63c-.81,0-1.47-.58-1.47-1.29v-14.73c0-.71,.66-1.29,1.47-1.29,8.22,0,32.87,0,24.65,0-.2,0,5.9,5.32,5.9,5.32,0,0,6.1-5.32,5.71-5.44,0,0,23.27,.11,26.37,.11,.64,0,.94,.29,1.04,.38,.27,.23,.43,.55,.43,.91v14.73c0,.71-.66,1.29-1.47,1.29Z"/></g><g><circle class="cls-10" cx="172.93" cy="179.27" r="4.05"/><circle class="cls-10" cx="183.72" cy="179.27" r="4.05"/><circle class="cls-10" cx="194.51" cy="179.27" r="4.05"/></g></g></svg>