<?xml version="1.0" encoding="UTF-8"?><svg id="Layer_1" xmlns="http://www.w3.org/2000/svg" xmlns:xlink="http://www.w3.org/1999/xlink" viewBox="0 0 275 90"><defs><style>.cls-1{fill:none;}.cls-2{clip-path:url(#clippath);}.cls-3{fill:#f7f7f9;}.cls-4{fill:#fff;}.cls-5{fill:#ececf1;}.cls-6{fill:#333;}.cls-7{fill:#1a1a1a;}.cls-8{fill:#6bcbba;}.cls-9{clip-path:url(#clippath-1);}</style><clipPath id="clippath"><rect class="cls-1" x="1.01" y="18.38" width="272.93" height="57.61"/></clipPath><clipPath id="clippath-1"><rect class="cls-1" x="293.13" y="18.62" width="272.93" height="57.61"/></clipPath></defs><g class="cls-2"><g><g><path class="cls-5" d="M25.61,44.35c0-6.06-4.91-10.96-10.97-10.96-6.06,0-10.96,4.91-10.96,10.97,0,1.48,.3,2.94,.88,4.3-.01-.01-.02-.02-.03-.04,.49,1.14,1.16,2.18,2,3.09,0,0,0,0,0,0,.07,.07,.14,.15,.2,.22,2.02,2.11,4.81,3.32,7.73,3.36l-.37,20.12h1.14l-.23-13.28,1.66-.87-.25-.48-1.41,.74-.11-6.24c5.96-.14,10.71-5,10.71-10.96Z"/><path class="cls-5" d="M48.11,33.98c0-8.08-6.55-14.62-14.63-14.61-8.08,0-14.62,6.55-14.61,14.63,0,1.97,.4,3.93,1.18,5.74-.01-.02-.03-.03-.04-.05,.65,1.51,1.55,2.91,2.66,4.12,0,0,0,0,.01,.01,.09,.1,.18,.2,.27,.29,2.7,2.82,6.41,4.43,10.31,4.49l-.49,26.84h1.53l-.31-17.71,2.21-1.16-.34-.64-1.89,.99-.15-8.32c7.94-.18,14.29-6.67,14.29-14.62Z"/><path class="cls-5" d="M99.96,54.49c0-4.08-3.31-7.39-7.39-7.38-4.08,0-7.39,3.31-7.38,7.39,0,1,.2,1.98,.59,2.9,0,0-.01-.02-.02-.02,.33,.76,.78,1.47,1.35,2.08,0,0,0,0,0,0,.05,.05,.09,.1,.14,.15,1.36,1.42,3.24,2.24,5.21,2.27l-.25,13.56h.77l-.16-8.95,1.12-.59-.17-.32-.95,.5-.07-4.2c4.01-.09,7.22-3.37,7.22-7.39Z"/><path class="cls-5" d="M131.25,44.35c0-6.06-4.91-10.96-10.97-10.96-6.06,0-10.96,4.91-10.96,10.97,0,1.48,.3,2.94,.88,4.3-.01-.01-.02-.02-.03-.04,.49,1.14,1.16,2.18,2,3.09,0,0,0,0,0,0,.07,.07,.14,.15,.2,.22,2.02,2.11,4.81,3.32,7.73,3.36l-.37,20.12h1.14l-.23-13.28,1.66-.87-.25-.48-1.41,.74-.11-6.24c5.96-.14,10.71-5,10.71-10.96Z"/><path class="cls-5" d="M85.02,39.01c0-7.1-5.76-12.85-12.86-12.84-7.1,0-12.85,5.76-12.84,12.86,0,1.73,.35,3.45,1.03,5.05-.01-.01-.03-.03-.04-.04,.57,1.33,1.36,2.55,2.34,3.62,0,0,0,0,0,0,.08,.09,.16,.17,.24,.26,2.37,2.47,5.64,3.89,9.06,3.94l-.43,23.58h1.34l-.27-15.57,1.94-1.02-.3-.56-1.66,.87-.13-7.31c6.98-.16,12.55-5.86,12.55-12.85Z"/><path class="cls-5" d="M175.17,33.98c0-8.08-6.55-14.62-14.63-14.61-8.08,0-14.62,6.55-14.61,14.63,0,1.97,.4,3.93,1.18,5.74-.01-.02-.03-.03-.04-.05,.65,1.51,1.55,2.91,2.66,4.12,0,0,0,0,.01,.01,.09,.1,.18,.2,.27,.29,2.7,2.82,6.41,4.43,10.31,4.49l-.49,26.84h1.53l-.31-17.71,2.21-1.16-.34-.64-1.89,.99-.15-8.32c7.94-.18,14.29-6.67,14.29-14.62Z"/><path class="cls-5" d="M244.62,44.35c0-6.06-4.91-10.96-10.97-10.96-6.06,0-10.96,4.91-10.96,10.97,0,1.48,.3,2.94,.88,4.3-.01-.01-.02-.02-.03-.04,.49,1.14,1.16,2.18,2,3.09,0,0,0,0,0,0,.07,.07,.14,.15,.2,.22,2.02,2.11,4.81,3.32,7.73,3.36l-.37,20.12h1.14l-.23-13.28,1.66-.87-.25-.48-1.41,.74-.11-6.24c5.96-.14,10.71-5,10.71-10.96Z"/><path class="cls-5" d="M212.08,39.01c0-7.1-5.76-12.85-12.86-12.84-7.1,0-12.85,5.76-12.84,12.86,0,1.73,.35,3.45,1.03,5.05-.01-.01-.03-.03-.04-.04,.57,1.33,1.36,2.55,2.34,3.62,0,0,0,0,0,0,.08,.09,.16,.17,.24,.26,2.37,2.47,5.64,3.89,9.06,3.94l-.43,23.58h1.34l-.27-15.57,1.94-1.02-.3-.56-1.66,.87-.13-7.31c6.98-.16,12.55-5.86,12.55-12.85Z"/><path class="cls-5" d="M267.13,33.98c0-8.08-6.55-14.62-14.63-14.61-8.08,0-14.62,6.55-14.61,14.63,0,1.97,.4,3.93,1.18,5.74-.01-.02-.03-.03-.04-.05,.65,1.51,1.55,2.91,2.66,4.12,0,0,0,0,.01,.01,.09,.1,.18,.2,.27,.29,2.7,2.82,6.41,4.43,10.31,4.49l-.49,26.84h1.53l-.31-17.71,2.21-1.16-.34-.64-1.89,.99-.15-8.32c7.94-.18,14.29-6.67,14.29-14.62Z"/><path class="cls-3" d="M257.33,28.76c-.6-1.76-2.3-1.99-4.31-1.7l-.6-2.5-1.52,.36,.58,2.43c-.4,.1-.81,.2-1.21,.31l-.58-2.45-1.52,.36,.59,2.5c-.33,.09-.65,.17-.96,.24h0s-2.1,.49-2.1,.49l.39,1.62s1.12-.29,1.1-.26c.62-.15,.9,.16,1.03,.46l.68,2.85s.1-.02,.16-.03c-.05,.01-.1,.02-.16,.04l.95,3.99c.02,.2-.02,.54-.45,.64,.02,.01-1.11,.26-1.11,.26l.13,1.89,1.98-.47c.37-.09,.73-.17,1.09-.25l.6,2.53,1.52-.36-.6-2.5c.42-.09,.82-.18,1.22-.28l.59,2.49,1.52-.36-.6-2.52c2.52-.76,4.16-1.83,3.81-4.28-.28-1.98-1.4-2.62-2.93-2.62,.77-.66,1.14-1.58,.69-2.87h0Zm-.84,5.91c.45,1.89-2.83,2.44-3.86,2.69l-.8-3.35c1.03-.25,4.19-1.31,4.66,.66Zm-1.83-4.56c.41,1.72-2.34,2.16-3.19,2.37l-.72-3.04c.86-.2,3.49-1.12,3.92,.67Z"/><path class="cls-3" d="M96.2,52.93c.15-1.01-.62-1.56-1.67-1.92l.34-1.37-.83-.21-.33,1.33c-.22-.05-.44-.11-.67-.16l.33-1.34-.83-.21-.34,1.37c-.18-.04-.36-.08-.53-.13h0s-1.15-.29-1.15-.29l-.22,.89s.62,.14,.61,.15c.34,.08,.4,.31,.39,.49l-.39,1.56s.05,.01,.09,.03c-.03,0-.06-.01-.09-.02l-.55,2.19c-.04,.1-.15,.26-.38,.2,0,.01-.61-.15-.61-.15l-.41,.95,1.09,.27c.2,.05,.4,.1,.59,.15l-.35,1.39,.83,.21,.34-1.37c.23,.06,.45,.12,.66,.17l-.34,1.36,.83,.21,.35-1.38c1.42,.27,2.49,.16,2.94-1.13,.36-1.04-.02-1.63-.77-2.02,.54-.13,.96-.48,1.06-1.22h0Zm-1.91,2.67c-.26,1.04-2,.48-2.57,.34l.46-1.84c.57,.14,2.38,.42,2.11,1.5Zm.26-2.69c-.24,.94-1.69,.46-2.16,.35l.42-1.67c.47,.12,1.99,.34,1.74,1.32Z"/><path class="cls-3" d="M18.8,42.78c.15-1.01-.62-1.56-1.67-1.92l.34-1.37-.83-.21-.33,1.33c-.22-.05-.44-.11-.67-.16l.33-1.34-.83-.21-.34,1.37c-.18-.04-.36-.08-.53-.13h0s-1.15-.29-1.15-.29l-.22,.89s.62,.14,.61,.15c.34,.08,.4,.31,.39,.49l-.39,1.56s.05,.01,.09,.03c-.03,0-.06-.01-.09-.02l-.55,2.19c-.04,.1-.15,.26-.38,.2,0,.01-.61-.15-.61-.15l-.41,.95,1.09,.27c.2,.05,.4,.1,.59,.15l-.35,1.39,.83,.21,.34-1.37c.23,.06,.45,.12,.66,.17l-.34,1.36,.83,.21,.35-1.38c1.42,.27,2.49,.16,2.94-1.13,.36-1.04-.02-1.63-.77-2.02,.54-.13,.96-.48,1.06-1.22h0Zm-1.91,2.67c-.26,1.04-2,.48-2.57,.34l.46-1.84c.57,.14,2.38,.42,2.11,1.5Zm.26-2.69c-.24,.94-1.69,.46-2.16,.35l.42-1.67c.47,.12,1.99,.34,1.74,1.32Z"/><path class="cls-3" d="M33.82,37.59l.95-3.57,2.25-.82,.56-2.1-.02-.05-2.21,.81,1.59-6h-4.52l-2.08,7.83-1.74,.64-.57,2.17,1.74-.64-1.23,4.61h12.03l.77-2.87h-7.51"/><path class="cls-3" d="M120.35,47.29l.68-2.55,1.61-.59,.4-1.5v-.04s-1.59,.58-1.59,.58l1.14-4.29h-3.23l-1.49,5.59-1.24,.45-.41,1.55,1.24-.45-.88,3.3h8.59l.55-2.05h-5.36"/><path class="cls-3" d="M72.94,32.87l-3.56,5.9,3.56,2.1,3.56-2.1-3.56-5.9Zm-3.56,6.58l3.56,5.01,3.56-5.01-3.56,2.1-3.56-2.1Z"/><path class="cls-3" d="M237.37,43.09c.15-1.01-.62-1.56-1.67-1.92l.34-1.37-.83-.21-.33,1.33c-.22-.05-.44-.11-.67-.16l.33-1.34-.83-.21-.34,1.37c-.18-.04-.36-.08-.53-.13h0s-1.15-.29-1.15-.29l-.22,.89s.62,.14,.61,.15c.34,.08,.4,.31,.39,.49l-.39,1.56s.05,.01,.09,.03c-.03,0-.06-.01-.09-.02l-.55,2.19c-.04,.1-.15,.26-.38,.2,0,.01-.61-.15-.61-.15l-.41,.95,1.09,.27c.2,.05,.4,.1,.59,.15l-.35,1.39,.83,.21,.34-1.37c.23,.06,.45,.12,.66,.17l-.34,1.36,.83,.21,.35-1.38c1.42,.27,2.49,.16,2.94-1.13,.36-1.04-.02-1.63-.77-2.02,.54-.13,.96-.48,1.06-1.22h0Zm-1.91,2.67c-.26,1.04-2,.48-2.57,.34l.46-1.84c.57,.14,2.38,.42,2.11,1.5Zm.26-2.69c-.24,.94-1.69,.46-2.16,.35l.42-1.67c.47,.12,1.99,.34,1.74,1.32Z"/><path class="cls-3" d="M199.2,33.19l-3.56,5.9,3.56,2.1,3.56-2.1-3.56-5.9Zm-3.56,6.58l3.56,5.01,3.56-5.01-3.56,2.1-3.56-2.1Z"/><path class="cls-3" d="M160.4,36.91h5.51v2.77h-3.39c.06,.79,.09,1.53,.14,2.32h-2.86v-2.29h-3.39c0-.91-.11-1.81,.06-2.66,.09-.45,.59-.85,.91-1.24,1.07-1.27,2.15-2.52,3.25-3.79,.43-.48,.85-.93,1.33-1.47h-5.29v-2.77h3.14v-2.32h2.74v2.26h3.42c0,.93,.11,1.84-.06,2.69-.09,.45-.59,.85-.93,1.24-1.07,1.27-2.15,2.52-3.25,3.79-.42,.51-.84,.96-1.33,1.47Z"/></g><g><path class="cls-6" d="M79.39,74.87s.09-1.99,2.04-1.76"/><circle class="cls-8" cx="78.84" cy="72" r=".97"/><rect class="cls-6" x="78.68" y="73.64" width=".27" height="1.92"/><path class="cls-6" d="M11.99,74.59s.09-1.99,2.04-1.76"/><circle class="cls-8" cx="11.44" cy="71.73" r=".97"/><rect class="cls-6" x="11.28" y="73.37" width=".27" height="1.92"/><path class="cls-6" d="M27.91,74.73s.09-1.99,2.04-1.76"/><circle class="cls-8" cx="27.36" cy="71.87" r=".97"/><rect class="cls-6" x="27.2" y="73.5" width=".27" height="1.92"/><path class="cls-6" d="M106.01,75.59s.09-1.99,2.04-1.76"/><path class="cls-6" d="M87.75,75.59s.09-1.99,2.04-1.76"/><path class="cls-6" d="M21.17,75.59s.09-1.99,2.04-1.76"/><path class="cls-6" d="M114.24,75.59s.09-1.99,2.04-1.76"/><path class="cls-6" d="M110.4,75.59s.09-1.99,2.04-1.76"/><path class="cls-6" d="M102.47,75.59s-.09-1.99-2.04-1.76"/><path class="cls-6" d="M70.9,75.59s-.09-1.99-2.04-1.76"/><path class="cls-6" d="M44.67,75.59s-.09-1.99-2.04-1.76"/><path class="cls-6" d="M16.81,75.59s-.09-1.99-2.04-1.76"/><path class="cls-6" d="M122.51,75.59s-.09-1.99-2.04-1.76"/><path class="cls-6" d="M110.71,75.73s-.09-1.99-2.04-1.76"/></g><g><path class="cls-6" d="M209.37,74.87s.09-1.99,2.04-1.76"/><circle class="cls-8" cx="208.82" cy="72" r=".97"/><rect class="cls-6" x="208.66" y="73.64" width=".27" height="1.92"/><path class="cls-6" d="M141.96,74.59s.09-1.99,2.04-1.76"/><circle class="cls-8" cx="141.41" cy="71.73" r=".97"/><rect class="cls-6" x="141.26" y="73.37" width=".27" height="1.92"/><path class="cls-6" d="M157.89,74.73s.09-1.99,2.04-1.76"/><circle class="cls-8" cx="157.34" cy="71.87" r=".97"/><rect class="cls-6" x="157.18" y="73.5" width=".27" height="1.92"/><path class="cls-6" d="M235.98,75.59s.09-1.99,2.04-1.76"/><path class="cls-6" d="M217.72,75.59s.09-1.99,2.04-1.76"/><path class="cls-6" d="M151.14,75.59s.09-1.99,2.04-1.76"/><path class="cls-6" d="M244.22,75.59s.09-1.99,2.04-1.76"/><path class="cls-6" d="M240.37,75.59s.09-1.99,2.04-1.76"/><path class="cls-6" d="M232.45,75.59s-.09-1.99-2.04-1.76"/><path class="cls-6" d="M200.87,75.59s-.09-1.99-2.04-1.76"/><path class="cls-6" d="M174.65,75.59s-.09-1.99-2.04-1.76"/><path class="cls-6" d="M146.78,75.59s-.09-1.99-2.04-1.76"/><path class="cls-6" d="M252.49,75.59s-.09-1.99-2.04-1.76"/><path class="cls-6" d="M240.68,75.73s-.09-1.99-2.04-1.76"/></g></g></g><g><g><circle class="cls-6" cx="109.91" cy="40.1" r="32.97"/><g><circle class="cls-4" cx="109.91" cy="40.1" r="23.88"/><path class="cls-6" d="M92.1,58.57c-4.93-4.76-7.72-11.15-7.84-18-.12-6.85,2.43-13.34,7.18-18.28,4.76-4.93,11.15-7.72,18-7.84,6.85-.12,13.34,2.43,18.28,7.18,4.93,4.76,7.72,11.15,7.84,18,.12,6.85-2.43,13.34-7.18,18.28-4.76,4.93-11.15,7.72-18,7.84-.16,0-.32,0-.48,0-6.68,0-12.98-2.54-17.8-7.19Zm17.41-40.57c-5.9,.11-11.41,2.51-15.51,6.76-4.1,4.25-6.3,9.84-6.19,15.74,.11,5.9,2.51,11.41,6.76,15.51,4.25,4.1,9.84,6.3,15.74,6.19,5.9-.11,11.41-2.51,15.51-6.76s6.3-9.84,6.19-15.74c-.11-5.9-2.51-11.41-6.76-15.51-4.15-4-9.58-6.19-15.33-6.19-.14,0-.27,0-.41,0Z"/></g></g><rect class="cls-6" x="76.57" y="64.84" width="11.61" height="3.56" transform="translate(-22.76 79.67) rotate(-46.04)"/><g><path class="cls-6" d="M69.84,68.56h6.93v13.75c0,.5-.41,.91-.91,.91h-5.1c-.5,0-.91-.41-.91-.91v-13.75h0Z" transform="translate(73.22 -29.62) rotate(43.96)"/><path class="cls-6" d="M68.31,83.73l-2.65-2.56c-.65-.63-1.02-1.48-1.04-2.39-.02-.91,.32-1.77,.95-2.42l9.05-9.39c.33-.34,.78-.54,1.25-.54,.47,0,.93,.17,1.27,.5l4.99,4.81c.71,.68,.73,1.81,.05,2.51l-9.05,9.39c-.63,.65-1.48,1.02-2.39,1.04-.02,0-.04,0-.06,0-.88,0-1.72-.34-2.36-.95Zm2.47-2.56h0Zm5.17-10.44l-7.71,8,2.43,2.34,7.71-8-2.43-2.34Z"/></g><g><circle class="cls-8" cx="109.91" cy="40.1" r="10.18"/><path id="path18" class="cls-7" d="M117.51,39.13c0-1.7-1.38-3.08-3.08-3.08-1.7,0-3.08,1.38-3.08,3.08,0,1.7,1.38,3.08,3.08,3.08,1.7,0,3.08-1.38,3.08-3.08"/></g></g><g><circle class="cls-8" cx="163.86" cy="52.54" r="17.3"/><path class="cls-6" d="M182.44,74.72h-37.15c-2.58,0-4.68-2.1-4.68-4.68v-13.35c0-2.58,2.1-4.68,4.68-4.68h37.15c2.58,0,4.68,2.1,4.68,4.68v13.35c0,2.58-2.1,4.68-4.68,4.68Z"/><g><path class="cls-4" d="M155,69.94c-.29,0-.59-.11-.81-.34l-5.45-5.45c-.22-.22-.34-.52-.34-.83,0-.31,.13-.61,.36-.82l5.75-5.45c.46-.44,1.19-.42,1.63,.04,.44,.46,.42,1.19-.04,1.63l-4.89,4.63,4.61,4.61c.45,.45,.45,1.18,0,1.63-.22,.22-.52,.34-.81,.34Z"/><path class="cls-4" d="M173.21,69.94c-.29,0-.59-.11-.81-.34-.45-.45-.45-1.18,0-1.63l4.61-4.61-4.89-4.63c-.46-.44-.48-1.16-.04-1.63s1.16-.48,1.63-.04l5.75,5.45c.23,.21,.35,.51,.36,.82,0,.31-.12,.61-.34,.83l-5.45,5.45c-.22,.22-.52,.34-.81,.34Z"/><path class="cls-4" d="M160.26,70.12c-.2,0-.41-.05-.59-.16-.54-.33-.72-1.03-.39-1.58l6.9-11.5c.33-.54,1.03-.72,1.58-.39,.54,.33,.72,1.03,.39,1.58l-6.9,11.5c-.22,.36-.6,.56-.99,.56Z"/></g></g><g class="cls-9"><g><path class="cls-5" d="M248.27,34.21c0-8.08-6.55-14.62-14.63-14.61-8.08,0-14.62,6.55-14.61,14.63,0,1.97,.4,3.93,1.18,5.74-.01-.02-.03-.03-.04-.05,.65,1.51,1.55,2.91,2.66,4.12,0,0,0,0,.01,.01,.09,.1,.18,.2,.27,.29,2.7,2.82,6.41,4.43,10.31,4.49l-.49,26.84h1.53l-.31-17.71,2.21-1.16-.34-.64-1.89,.99-.15-8.32c7.94-.18,14.29-6.67,14.29-14.62Z"/><path class="cls-5" d="M285.18,39.24c0-7.1-5.76-12.85-12.86-12.84-7.1,0-12.85,5.76-12.84,12.86,0,1.73,.35,3.45,1.03,5.05-.01-.01-.03-.03-.04-.04,.57,1.33,1.36,2.55,2.34,3.62,0,0,0,0,0,0,.08,.09,.16,.17,.24,.26,2.37,2.47,5.64,3.89,9.06,3.94l-.43,23.58h1.34l-.27-15.57,1.94-1.02-.3-.56-1.66,.87-.13-7.31c6.98-.16,12.55-5.86,12.55-12.85Z"/><path class="cls-3" d="M237.92,29.62c-.6-1.76-2.3-1.99-4.31-1.7l-.6-2.5-1.52,.36,.58,2.43c-.4,.1-.81,.2-1.21,.31l-.58-2.45-1.52,.36,.59,2.5c-.33,.09-.65,.17-.96,.24h0s-2.1,.49-2.1,.49l.39,1.62s1.12-.29,1.1-.26c.62-.15,.9,.16,1.03,.46l.68,2.85s.1-.02,.16-.03c-.05,.01-.1,.02-.16,.04l.95,3.99c.02,.2-.02,.54-.45,.64,.02,.01-1.11,.26-1.11,.26l.13,1.89,1.98-.47c.37-.09,.73-.17,1.09-.25l.6,2.53,1.52-.36-.6-2.5c.42-.09,.82-.18,1.22-.28l.59,2.49,1.52-.36-.6-2.52c2.52-.76,4.16-1.83,3.81-4.28-.28-1.98-1.4-2.62-2.93-2.62,.77-.66,1.14-1.58,.69-2.87h0Zm-.84,5.91c.45,1.89-2.83,2.44-3.86,2.69l-.8-3.35c1.03-.25,4.19-1.31,4.66,.66Zm-1.83-4.56c.41,1.72-2.34,2.16-3.19,2.37l-.72-3.04c.86-.2,3.49-1.12,3.92,.67Z"/><path class="cls-3" d="M272.74,33.1l-3.56,5.9,3.56,2.1,3.56-2.1-3.56-5.9Zm-3.56,6.58l3.56,5.01,3.56-5.01-3.56,2.1-3.56-2.1Z"/></g></g></svg>