<?xml version="1.0" encoding="UTF-8"?><svg id="Layer_1" xmlns="http://www.w3.org/2000/svg" viewBox="0 0 340 250"><defs><style>.cls-1{fill:#fff;}.cls-2{fill:#ececf1;}.cls-3{fill:#333;}.cls-4{fill:#1a1a1a;}.cls-5{fill:#6bcbba;}</style></defs><rect class="cls-1" x="80.7" y="13.31" width="242" height="227" rx="1.61" ry="1.61"/><path id="b4c13b4e-8ef9-4732-a242-1b77a57c7078-33" class="cls-2" d="M320.92,239.87H81.73c-1.53,0-2.78-1.25-2.78-2.78V14.96c0-1.53,1.25-2.78,2.78-2.78h239.18c1.53,0,2.78,1.25,2.78,2.78V237.09c0,1.53-1.25,2.78-2.78,2.78h0ZM81.73,13.29c-.92,0-1.66,.75-1.67,1.67V237.09c0,.92,.75,1.66,1.67,1.67h239.18c.92,0,1.66-.75,1.67-1.67V14.96c0-.92-.75-1.66-1.67-1.67H81.73Z"/><path id="b86923e0-dd17-408d-8c65-7675907766e6-34" class="cls-2" d="M194.75,69.9c-1.04,0-1.89,.85-1.88,1.89,0,1.04,.84,1.88,1.88,1.88h103.56c1.04,0,1.89-.85,1.88-1.89,0-1.04-.84-1.88-1.88-1.88h-103.56Z"/><path id="b7c93af7-a9b3-4ec5-8b9c-228075bea008-35" class="cls-2" d="M194.75,81.23c-1.04,0-1.89,.85-1.88,1.89,0,1.04,.84,1.88,1.88,1.88h52.87c1.04,0,1.89-.85,1.88-1.89,0-1.04-.84-1.88-1.88-1.88h-52.87Z"/><path id="bf6f3c94-5d99-4a3b-bad8-b2235a5a7f19-36" class="cls-2" d="M104.23,136.04c-1.04,0-1.89,.85-1.88,1.89,0,1.04,.84,1.88,1.88,1.88h194.18c1.04,0,1.89-.85,1.88-1.89,0-1.04-.84-1.88-1.88-1.88H104.23Z"/><path id="b0a6cee6-456b-42c7-b828-32d4ce813421-37" class="cls-2" d="M104.23,147.37c-1.04,0-1.89,.85-1.88,1.89,0,1.04,.84,1.88,1.88,1.88H247.72c1.04,0,1.89-.85,1.88-1.89,0-1.04-.84-1.88-1.88-1.88H104.23Z"/><path id="b1178f6f-c479-4db7-b1bf-97b40cae8cd0-38" class="cls-2" d="M104.23,158.44c-1.04,0-1.89,.85-1.89,1.89s.85,1.89,1.89,1.89h194.18c1.04,0,1.89-.85,1.88-1.89,0-1.04-.84-1.88-1.88-1.88H104.23Z"/><path id="ad9199b6-e18d-416a-bbd3-7817c0554bff-39" class="cls-2" d="M104.23,169.76c-1.04,0-1.89,.85-1.88,1.89,0,1.04,.84,1.88,1.88,1.88H247.72c1.04,0,1.89-.85,1.88-1.89,0-1.04-.84-1.88-1.88-1.88H104.23Z"/><path id="f7d611df-d029-4cc6-9561-be5a6829cf65-40" class="cls-5" d="M168.58,109.67H18.45c-1.53,0-2.78-1.25-2.78-2.78V41c0-1.53,1.25-2.78,2.78-2.78H168.58c1.53,0,2.78,1.25,2.78,2.78V106.89c0,1.53-1.25,2.78-2.78,2.78Z"/><path id="b2be1aaf-9241-4aa1-a473-dbb8e8dcff3c-41" class="cls-5" d="M297.22,213.83h-56.91c-1.53,0-2.78-1.25-2.78-2.78v-9.12c0-1.53,1.25-2.78,2.78-2.78h56.91c1.53,0,2.78,1.25,2.78,2.78v9.12c0,1.53-1.25,2.78-2.78,2.78Z"/><path id="e2582065-92bf-48dc-a28d-04f42179e35f-42" class="cls-1" d="M86.78,61.33c-.65,0-1.18,.85-1.18,1.89,0,1.04,.53,1.88,1.18,1.88h55.66c.65,0,1.18-.85,1.18-1.89,0-1.04-.53-1.88-1.18-1.88h-55.66Z"/><path id="bb678cb9-7d76-4fbb-a84c-c380d6521528-43" class="cls-1" d="M86.78,72.27c-.65,0-1.18,.85-1.18,1.89,0,1.04,.53,1.88,1.18,1.88h55.66c.65,0,1.18-.85,1.18-1.89,0-1.04-.53-1.88-1.18-1.88h-55.66Z"/><path id="a9697f3a-b5f3-4f74-8277-57e15506e4dd-44" class="cls-1" d="M86.78,83.07c-.65,0-1.18,.85-1.18,1.89,0,1.04,.53,1.88,1.18,1.88h23.95c.65,0,1.18-.85,1.18-1.89,0-1.04-.53-1.88-1.18-1.88h-23.95Z"/><circle class="cls-1" cx="58.52" cy="73.95" r="15.1"/><g><g><circle class="cls-3" cx="57.15" cy="73.35" r="17.02"/><g><circle class="cls-1" cx="57.15" cy="73.35" r="12.33"/><path class="cls-3" d="M57.16,86.59c-.08,0-.16,0-.25,0-3.54-.06-6.84-1.5-9.29-4.05-2.46-2.55-3.77-5.9-3.71-9.43,.06-3.54,1.5-6.84,4.05-9.29,2.55-2.46,5.9-3.77,9.43-3.71,3.54,.06,6.84,1.5,9.29,4.05,2.46,2.55,3.77,5.9,3.71,9.43-.06,3.54-1.5,6.84-4.05,9.29-2.49,2.4-5.74,3.71-9.19,3.71Zm-.01-24.66c-2.97,0-5.77,1.13-7.91,3.2-2.19,2.12-3.43,4.96-3.49,8.01-.06,3.05,1.08,5.93,3.2,8.13,2.12,2.19,4.96,3.43,8.01,3.49,3.05,.06,5.93-1.08,8.13-3.19,2.19-2.12,3.43-4.96,3.49-8.01,.06-3.05-1.08-5.93-3.2-8.13-2.12-2.19-4.96-3.43-8.01-3.49-.07,0-.14,0-.21,0Z"/></g></g><rect class="cls-3" x="70.45" y="84.04" width="1.84" height="5.99" transform="translate(-40.42 73.93) rotate(-43.96)"/><g><path class="cls-3" d="M75.18,88.04h1.75c.5,0,.91,.41,.91,.91v6.66h-3.58v-6.66c0-.5,.41-.91,.91-.91Z" transform="translate(194.53 105.13) rotate(136.04)"/><path class="cls-3" d="M77.41,96.36s-.02,0-.03,0c-.47,0-.91-.2-1.23-.54l-4.67-4.85c-.35-.36-.34-.95,.02-1.3l2.57-2.48c.18-.17,.41-.26,.65-.26,.24,0,.48,.11,.64,.28l4.67,4.85c.33,.34,.5,.78,.49,1.25,0,.47-.2,.91-.54,1.23l-1.37,1.32c-.33,.32-.76,.49-1.22,.49Zm-.06-1.81h0Zm-3.92-4.18l3.98,4.13,1.25-1.21-3.98-4.13-1.25,1.21Z"/></g><g><circle class="cls-5" cx="57.15" cy="73.35" r="5.26"/><path id="path18" class="cls-4" d="M53.23,72.85c0-.88,.71-1.59,1.59-1.59,.88,0,1.59,.71,1.59,1.59,0,.88-.71,1.59-1.59,1.59s-1.59-.71-1.59-1.59"/></g></g></svg>