<?xml version="1.0" encoding="UTF-8"?><svg id="Layer_1" xmlns="http://www.w3.org/2000/svg" viewBox="0 0 340 256.26"><defs><style>.cls-1{fill:#f7f7f9;}.cls-2,.cls-3{fill:#fff;}.cls-4{fill:#ececf1;}.cls-5{fill:#333;}.cls-6{fill:#6bcbba;}.cls-7{fill:gray;}.cls-8{isolation:isolate;opacity:.2;}.cls-3{opacity:.3;}</style></defs><g><rect id="e81a7c33-c795-457d-8abc-c4a3c260cd56" class="cls-4" x="87.22" y="103.14" width="241.6" height="141.74"/><rect id="be98c830-918a-42d1-b1b0-0085d5874e90" class="cls-2" x="94.12" y="115.3" width="227.78" height="118.25"/><rect id="ea07d9fd-7a34-4098-acd7-056fd1871281" class="cls-6" x="87.11" y="94.95" width="241.6" height="12.69"/><circle id="b9ed5a45-8896-4ed9-86b4-15f853c9a185" class="cls-2" cx="96.54" cy="102.42" r="2.35"/><circle id="a9233a38-f8ba-48e0-88f3-496fd4836d40" class="cls-2" cx="105.47" cy="102.42" r="2.35"/><circle id="aa82180f-a6a9-4f5f-82fc-e73106f4ad92" class="cls-2" cx="114.4" cy="102.42" r="2.35"/><g><path class="cls-4" d="M181.36,170.71c0-11.54-9.36-20.89-20.9-20.88-11.54,0-20.89,9.36-20.88,20.9,0,2.82,.57,5.61,1.68,8.2-.02-.02-.04-.04-.06-.07,.93,2.16,2.21,4.15,3.8,5.89,0,0,0,.01,.01,.02,.13,.14,.26,.28,.39,.42,3.86,4.02,9.16,6.33,14.73,6.41l-.71,38.34h2.18l-.44-25.31,3.15-1.66-.48-.91-2.69,1.42-.21-11.88c11.35-.26,20.41-9.53,20.41-20.89Z"/><path class="cls-1" d="M162.96,170.22c-.51-1.49-1.95-1.69-3.65-1.44l-.51-2.12-1.29,.31,.49,2.06c-.34,.08-.68,.17-1.03,.26l-.5-2.08-1.29,.31,.5,2.12c-.28,.07-.55,.14-.82,.21h0s-1.78,.42-1.78,.42l.33,1.38s.95-.25,.94-.22c.52-.12,.77,.14,.88,.39l.58,2.42s.08-.02,.14-.02c-.04,.01-.09,.02-.14,.03l.81,3.38c.02,.17-.02,.46-.38,.54,.02,.01-.94,.22-.94,.22l.11,1.6,1.68-.4c.31-.07,.62-.14,.92-.21l.51,2.14,1.29-.31-.51-2.12c.36-.08,.7-.16,1.03-.24l.5,2.11,1.29-.31-.51-2.14c2.14-.64,3.53-1.55,3.23-3.63-.24-1.68-1.19-2.23-2.49-2.23,.66-.56,.97-1.34,.59-2.44h0Zm-.71,5.02c.38,1.6-2.41,2.07-3.28,2.28l-.68-2.84c.88-.21,3.56-1.11,3.96,.56Zm-1.56-3.87c.35,1.46-1.98,1.83-2.71,2.01l-.61-2.58c.73-.17,2.96-.95,3.33,.57Z"/><path class="cls-4" d="M255.43,199.72c0-5.83-4.73-10.55-10.56-10.55-5.83,0-10.55,4.73-10.55,10.56,0,1.42,.29,2.83,.85,4.14-.01-.01-.02-.02-.03-.03,.47,1.09,1.12,2.1,1.92,2.97,0,0,0,0,0,0,.06,.07,.13,.14,.2,.21,1.95,2.03,4.63,3.2,7.44,3.24l-.36,19.37h1.1l-.22-12.79,1.59-.84-.24-.46-1.36,.72-.1-6c5.73-.13,10.31-4.82,10.31-10.55Z"/><path class="cls-4" d="M280.58,185.53c0-8.65-7.02-15.66-15.67-15.66-8.65,0-15.66,7.02-15.66,15.67,0,2.11,.43,4.21,1.26,6.15-.02-.02-.03-.03-.05-.05,.7,1.62,1.66,3.11,2.85,4.41,0,0,0,0,.01,.01,.1,.1,.19,.21,.29,.31,2.89,3.02,6.87,4.75,11.05,4.81l-.53,28.75h1.64l-.33-18.98,2.37-1.25-.36-.69-2.02,1.06-.16-8.91c8.51-.2,15.31-7.15,15.31-15.66Z"/><path class="cls-4" d="M234.09,177.9c0-10.14-8.23-18.35-18.37-18.35-10.14,0-18.35,8.23-18.35,18.37,0,2.48,.5,4.93,1.48,7.21-.02-.02-.04-.04-.05-.06,.82,1.9,1.95,3.65,3.34,5.17,0,0,0,0,.01,.01,.11,.12,.23,.25,.34,.36,3.39,3.53,8.05,5.56,12.95,5.63l-.62,33.69h1.92l-.39-22.24,2.77-1.46-.42-.8-2.37,1.25-.18-10.44c9.97-.23,17.94-8.38,17.94-18.35Z"/><circle class="cls-6" cx="178.55" cy="152.31" r="27.38"/><path class="cls-8" d="M158.33,134.02c-5.94,13.91,.51,30,14.42,35.94,10.82,4.63,23.38,1.82,31.21-6.96-5.94,13.91-22.04,20.36-35.94,14.42-13.91-5.94-20.36-22.04-14.42-35.94,1.16-2.72,2.76-5.24,4.73-7.45Z"/><rect class="cls-5" x="178.47" y="194.51" width="5.12" height="1.35" transform="translate(-70.09 106.81) rotate(-27.77)"/><path class="cls-5" d="M220.43,229.22s.1-2.07,2.12-1.83"/><circle class="cls-6" cx="219.85" cy="226.23" r="1.01"/><rect class="cls-5" x="219.69" y="227.94" width=".29" height="2"/><path class="cls-5" d="M150.18,228.93s.1-2.07,2.12-1.83"/><circle class="cls-6" cx="149.61" cy="225.95" r="1.01"/><rect class="cls-5" x="149.45" y="227.65" width=".29" height="2"/><path class="cls-5" d="M166.78,229.07s.1-2.07,2.12-1.83"/><circle class="cls-6" cx="166.21" cy="226.09" r="1.01"/><rect class="cls-5" x="166.04" y="227.8" width=".29" height="2"/><path class="cls-5" d="M210.91,135.73l2.03-1.63c-1.58-.17-2.23,.69-2.49,1.37-1.23-.51-2.58,.16-2.58,.16l4.07,1.48c-.21-.55-.56-1.03-1.03-1.38Z"/><path class="cls-5" d="M241.83,152.3l2.03-1.63c-1.58-.17-2.23,.69-2.49,1.37-1.23-.51-2.58,.16-2.58,.16l4.07,1.48c-.21-.55-.56-1.03-1.03-1.38Z"/><path class="cls-5" d="M208.48,166.43l2.03-1.63c-1.58-.17-2.23,.69-2.49,1.37-1.23-.51-2.58,.16-2.58,.16l4.07,1.48c-.21-.55-.56-1.03-1.03-1.38Z"/><path class="cls-5" d="M248.16,229.97s.1-2.07,2.12-1.83"/><path class="cls-5" d="M229.14,229.97s.1-2.07,2.12-1.83"/><path class="cls-5" d="M159.75,229.97s.1-2.07,2.12-1.83"/><path class="cls-5" d="M256.75,229.97s.1-2.07,2.12-1.83"/><path class="cls-5" d="M252.74,229.97s.1-2.07,2.12-1.83"/><path class="cls-5" d="M244.48,229.97s-.1-2.07-2.12-1.83"/><path class="cls-5" d="M211.57,229.97s-.1-2.07-2.12-1.83"/><path class="cls-5" d="M184.25,229.97s-.1-2.07-2.12-1.83"/><path class="cls-5" d="M155.21,229.97s-.1-2.07-2.12-1.83"/><path class="cls-5" d="M265.36,229.97s-.1-2.07-2.12-1.83"/><path class="cls-5" d="M253.06,230.11s-.1-2.07-2.12-1.83"/><rect class="cls-7" x="139.52" y="229.7" width="141.11" height=".32"/><path class="cls-3" d="M191.47,146.64c.51-3.4-2.08-5.23-5.63-6.45l1.15-4.61-2.81-.7-1.12,4.49c-.74-.18-1.5-.36-2.25-.53l1.13-4.52-2.8-.7-1.15,4.61c-.61-.14-1.21-.28-1.79-.42h0s-3.87-.98-3.87-.98l-.75,3s2.08,.48,2.04,.51c1.14,.28,1.34,1.04,1.31,1.63l-1.31,5.25c.08,.02,.18,.05,.29,.09-.09-.02-.19-.05-.3-.07l-1.84,7.36c-.14,.35-.49,.86-1.29,.67,.03,.04-2.04-.51-2.04-.51l-1.39,3.21,3.65,.91c.68,.17,1.35,.35,2,.52l-1.16,4.66,2.8,.7,1.15-4.61c.77,.21,1.51,.4,2.24,.58l-1.15,4.59,2.81,.7,1.16-4.65c4.79,.91,8.38,.54,9.9-3.79,1.22-3.49-.06-5.5-2.58-6.81,1.83-.42,3.21-1.63,3.58-4.12h0Zm-6.41,8.99c-.87,3.49-6.74,1.6-8.64,1.13l1.54-6.18c1.9,.47,8,1.41,7.1,5.05Zm.87-9.04c-.79,3.17-5.68,1.56-7.26,1.16l1.4-5.6c1.58,.39,6.69,1.13,5.86,4.44Z"/><polygon class="cls-5" points="178.62 152.31 178.7 152.31 180.05 229.94 177.19 229.94 178.62 152.31"/><path class="cls-1" d="M216.4,181.49l.81-3.03,1.91-.7,.47-1.78-.02-.04-1.88,.69,1.35-5.09h-3.84l-1.77,6.65-1.48,.54-.49,1.84,1.48-.54-1.04,3.92h10.21l.65-2.44h-6.37"/><path class="cls-1" d="M244.75,194.98l-3.02,5.01,3.02,1.78,3.02-1.78-3.02-5.01Zm-3.02,5.58l3.02,4.25,3.02-4.25-3.02,1.78-3.02-1.78Z"/><path class="cls-1" d="M264.87,188.19h4.68v2.35h-2.88c.05,.67,.07,1.3,.12,1.97h-2.42v-1.94h-2.88c0-.77-.1-1.54,.05-2.25,.07-.38,.5-.72,.77-1.05,.91-1.08,1.82-2.14,2.76-3.22,.36-.41,.72-.79,1.13-1.25h-4.49v-2.35h2.66v-1.97h2.33v1.92h2.9c0,.79,.1,1.56-.05,2.28-.07,.38-.5,.72-.79,1.05-.91,1.08-1.82,2.14-2.76,3.22-.36,.43-.71,.81-1.12,1.24Z"/></g></g><g><circle class="cls-4" cx="26.34" cy="63.75" r="6.32"/><circle class="cls-4" cx="45.3" cy="63.75" r="6.32"/><circle class="cls-4" cx="64.25" cy="63.75" r="6.32"/><circle class="cls-4" cx="83.21" cy="63.75" r="6.32"/><circle class="cls-4" cx="102.16" cy="63.75" r="6.32"/><circle class="cls-4" cx="121.12" cy="63.75" r="6.32"/><circle class="cls-4" cx="140.08" cy="63.75" r="6.32"/><path class="cls-4" d="M154.68,71.44H11.74c-1.42,0-2.57-1.15-2.57-2.57v-10.25c0-1.42,1.15-2.57,2.57-2.57H154.68c1.42,0,2.57,1.15,2.57,2.57v10.25c0,1.42-1.15,2.57-2.57,2.57ZM11.74,57.08c-.85,0-1.54,.69-1.54,1.54v10.25c0,.85,.69,1.54,1.54,1.54H154.68c.85,0,1.54-.69,1.54-1.54v-10.25c0-.85-.69-1.54-1.54-1.54H11.74Z"/><path class="cls-4" d="M42.33,13.9c.82,0,1.48,.66,1.48,1.48V47.39c0,.82-.66,1.48-1.48,1.48H10.97c-.82,0-1.48-.66-1.48-1.48V15.37c0-.82,.66-1.48,1.48-1.48h31.36m0-1.48H10.97c-1.63,0-2.95,1.32-2.95,2.95V47.39c0,1.63,1.32,2.95,2.95,2.95h31.36c1.63,0,2.95-1.32,2.95-2.95V15.37c0-1.63-1.32-2.95-2.95-2.95h0Z"/><path class="cls-5" d="M37.44,22.31H16.51c-.41,0-.74-.33-.74-.73,0-.41,.33-.74,.73-.74,0,0,0,0,0,0h20.92c.41,0,.74,.33,.74,.73,0,.41-.33,.74-.73,.74,0,0,0,0,0,0h0Z"/><path class="cls-5" d="M37.44,27.54H16.51c-.41,0-.74-.33-.74-.73,0-.41,.33-.74,.73-.74,0,0,0,0,0,0h20.92c.41,0,.74,.33,.74,.73,0,.41-.33,.74-.73,.74,0,0,0,0,0,0h0Z"/><path class="cls-5" d="M37.44,32.77H16.51c-.41,0-.74-.33-.74-.73,0-.41,.33-.74,.73-.74,0,0,0,0,0,0h20.92c.41,0,.74,.33,.74,.73,0,.41-.33,.74-.73,.74,0,0,0,0,0,0h0Z"/><path class="cls-5" d="M37.44,38.01H16.51c-.41,0-.74-.33-.74-.73,0-.41,.33-.74,.73-.74,0,0,0,0,0,0h20.92c.41,0,.74,.33,.74,.73,0,.41-.33,.74-.73,.74,0,0,0,0,0,0h0Z"/><path class="cls-5" d="M37.44,43.24H16.51c-.41,0-.74-.33-.74-.74,0-.41,.33-.74,.74-.74h20.93c.41,0,.74,.33,.74,.74,0,.41-.33,.74-.74,.74h0Z"/><path class="cls-4" d="M149.44,13.9c.82,0,1.48,.66,1.48,1.48V47.39c0,.82-.66,1.48-1.48,1.48h-31.36c-.82,0-1.48-.66-1.48-1.48V15.37c0-.82,.66-1.48,1.48-1.48h31.36m0-1.48h-31.36c-1.63,0-2.95,1.32-2.95,2.95h0V47.39c0,1.63,1.32,2.95,2.95,2.95h31.36c1.63,0,2.95-1.32,2.95-2.95h0V15.37c0-1.63-1.32-2.95-2.95-2.95h0Z"/><path class="cls-5" d="M144.55,22.31h-20.92c-.41,0-.74-.33-.74-.73s.33-.74,.73-.74c0,0,0,0,0,0h20.92c.41,0,.74,.34,.73,.74,0,.4-.33,.73-.73,.73h0Z"/><path class="cls-5" d="M144.55,27.54h-20.92c-.41,0-.74-.33-.74-.73s.33-.74,.73-.74c0,0,0,0,0,0h20.92c.41,0,.74,.34,.73,.74,0,.4-.33,.73-.73,.73h0Z"/><path class="cls-5" d="M144.55,32.77h-20.92c-.41,0-.74-.33-.74-.73s.33-.74,.73-.74c0,0,0,0,0,0h20.92c.41,0,.74,.34,.73,.74,0,.4-.33,.73-.73,.73h0Z"/><path class="cls-5" d="M144.55,38.01h-20.92c-.41,0-.74-.33-.74-.73s.33-.74,.73-.74c0,0,0,0,0,0h20.92c.41,0,.74,.34,.73,.74,0,.4-.33,.73-.73,.73h0Z"/><path class="cls-5" d="M144.55,43.24h-20.92c-.41,0-.74-.33-.74-.74,0-.41,.33-.74,.74-.74h20.93c.41,0,.74,.33,.74,.74,0,.41-.33,.74-.74,.74h0Z"/><g><rect class="cls-2" x="229.86" y="67.07" width="35.12" height="35.12"/><path class="cls-5" d="M263.09,66.94c.82,0,1.48,.66,1.48,1.48v32.01c0,.82-.66,1.48-1.48,1.48h-31.36c-.82,0-1.48-.66-1.48-1.48v-32.01c0-.82,.66-1.48,1.48-1.48h31.36m0-1.48h-31.36c-1.63,0-2.95,1.32-2.95,2.95v32.01c0,1.63,1.32,2.95,2.95,2.95h31.36c1.63,0,2.95-1.32,2.95-2.95v-32.01c0-1.63-1.32-2.95-2.95-2.95h0Z"/><path class="cls-5" d="M258.2,75.36h-20.92c-.41,0-.74-.33-.74-.73,0-.41,.33-.74,.73-.74,0,0,0,0,0,0h20.92c.41,0,.74,.33,.73,.74,0,.4-.33,.73-.73,.73Z"/><path class="cls-5" d="M258.2,80.59h-20.92c-.41,0-.74-.33-.74-.74s.33-.74,.74-.74h20.92c.41,0,.74,.33,.74,.74s-.33,.74-.74,.74Z"/><path class="cls-5" d="M258.2,85.82h-20.92c-.41,0-.74-.33-.74-.74s.33-.74,.74-.74c0,0,0,0,0,0h20.92c.41,0,.74,.33,.73,.74,0,.4-.33,.73-.73,.73Z"/><path class="cls-5" d="M258.2,91.05h-20.92c-.41,0-.74-.33-.74-.73,0-.41,.33-.74,.73-.74,0,0,0,0,0,0h20.92c.41,0,.74,.33,.73,.74,0,.4-.33,.73-.73,.73Z"/></g><path class="cls-4" d="M96.29,50.34h-32.18c-1.81,0-3.28-1.47-3.28-3.28V24.03c0-1.81,1.47-3.28,3.28-3.28h32.18c1.81,0,3.28,1.47,3.28,3.28v23.03c0,1.81-1.47,3.28-3.28,3.28Zm-32.18-28.12c-1,0-1.8,.81-1.81,1.81v23.03c0,1,.81,1.8,1.81,1.81h32.18c1,0,1.8-.81,1.81-1.81V24.03c0-1-.81-1.8-1.81-1.81h-32.18Z"/><path class="cls-5" d="M90.67,31.06h-20.92c-.41,0-.74-.34-.73-.74,0-.4,.33-.73,.73-.73h20.92c.41,0,.74,.33,.74,.73s-.33,.74-.73,.74c0,0,0,0,0,0Z"/><path class="cls-5" d="M90.67,36.29h-20.92c-.41,0-.74-.34-.73-.74,0-.4,.33-.73,.73-.73h20.92c.41,0,.74,.33,.74,.73s-.33,.74-.73,.74c0,0,0,0,0,0Z"/><path class="cls-5" d="M90.67,41.52h-20.92c-.41,0-.74-.34-.73-.74,0-.4,.33-.73,.73-.73h20.92c.41,0,.74,.33,.74,.73s-.33,.74-.73,.74c0,0,0,0,0,0Z"/><g><path class="cls-4" d="M207.26,62.04l-30.91-8.96c-1.74-.51-2.74-2.33-2.24-4.07l6.41-22.12c.51-1.74,2.33-2.74,4.07-2.24l30.91,8.96c1.74,.51,2.74,2.33,2.24,4.07l-6.41,22.12c-.51,1.74-2.33,2.74-4.07,2.24Zm-23.08-35.97c-.96-.28-1.96,.27-2.24,1.23l-6.41,22.12c-.28,.96,.27,1.96,1.23,2.24l30.91,8.96c.96,.28,1.96-.27,2.24-1.23l6.41-22.12c.28-.96-.27-1.96-1.23-2.24l-30.91-8.96Z"/><path class="cls-5" d="M207.23,41.95l-20.1-5.83c-.39-.11-.62-.52-.5-.92s.52-.62,.92-.5l20.1,5.83c.39,.11,.62,.52,.5,.92-.11,.39-.52,.62-.92,.5h0Z"/><path class="cls-5" d="M205.77,46.97l-20.1-5.83c-.39-.11-.62-.52-.5-.92,.11-.39,.52-.62,.92-.5l20.1,5.83c.39,.11,.62,.52,.5,.92s-.52,.62-.92,.5h0Z"/><path class="cls-5" d="M204.31,51.99l-20.1-5.83c-.39-.11-.62-.52-.5-.92s.52-.62,.92-.5l20.1,5.83c.39,.11,.62,.52,.5,.92-.11,.39-.52,.62-.92,.5Z"/></g></g></svg>