<?xml version="1.0" encoding="UTF-8"?><svg id="Layer_1" xmlns="http://www.w3.org/2000/svg" viewBox="0 0 1368.94 309.57"><defs><style>.cls-1{fill:#f7f7f9;}.cls-2{fill:#ececf1;}.cls-3{fill:#333;}.cls-4{fill:#6bcbba;}</style></defs><g><path class="cls-2" d="M127.8,150.07c-.02-30.8-24.99-55.75-55.79-55.73-30.8,.02-55.75,24.99-55.73,55.79,0,7.53,1.53,14.97,4.49,21.89-.05-.06-.11-.12-.17-.18,2.48,5.77,5.91,11.09,10.16,15.72,.01,.01,.03,.03,.04,.04,.34,.37,.69,.74,1.04,1.11,10.29,10.74,24.46,16.9,39.33,17.11l-1.88,102.34h5.82l-1.18-67.55,8.42-4.43-1.28-2.44-7.19,3.79-.55-31.71c30.29-.69,54.48-25.45,54.48-55.74Z"/><path class="cls-2" d="M242.27,97.33c-.02-41.07-33.33-74.35-74.4-74.32-41.07,.02-74.35,33.33-74.32,74.4,0,10.04,2.04,19.97,5.99,29.2-.07-.08-.15-.16-.22-.24,3.3,7.7,7.88,14.78,13.54,20.96,.02,.02,.03,.04,.05,.06,.46,.5,.92,.99,1.39,1.48,13.73,14.32,32.62,22.54,52.45,22.82l-2.51,136.48h7.76l-1.57-90.08,11.23-5.91-1.71-3.25-9.59,5.05-.74-42.29c40.39-.93,72.66-33.94,72.66-74.34Z"/><path class="cls-2" d="M505.94,201.64c-.01-20.75-16.84-37.56-37.59-37.55-20.75,.01-37.56,16.84-37.55,37.59,0,5.07,1.03,10.09,3.03,14.75-.04-.04-.07-.08-.11-.12,1.67,3.89,3.98,7.47,6.84,10.59,0,0,.02,.02,.03,.03,.23,.25,.46,.5,.7,.75,6.94,7.23,16.48,11.39,26.5,11.53l-1.27,68.96h3.92l-.79-45.51,5.67-2.99-.87-1.64-4.84,2.55-.37-21.37c20.41-.47,36.71-17.15,36.71-37.56Z"/><path class="cls-2" d="M665.08,150.07c-.02-30.8-24.99-55.75-55.79-55.73-30.8,.02-55.75,24.99-55.73,55.79,0,7.53,1.53,14.97,4.49,21.89-.05-.06-.11-.12-.17-.18,2.48,5.77,5.91,11.09,10.16,15.72,.01,.01,.03,.03,.04,.04,.34,.37,.69,.74,1.04,1.11,10.29,10.74,24.46,16.9,39.33,17.11l-1.88,102.34h5.82l-1.18-67.55,8.42-4.43-1.28-2.44-7.19,3.79-.55-31.71c30.29-.69,54.48-25.45,54.48-55.74Z"/><path class="cls-2" d="M429.96,122.89c-.02-36.09-29.29-65.33-65.38-65.31-36.09,.02-65.33,29.29-65.31,65.38,0,8.82,1.79,17.55,5.26,25.66-.06-.07-.13-.14-.19-.21,2.9,6.76,6.93,12.99,11.9,18.42,.01,.02,.03,.03,.05,.05,.4,.44,.81,.87,1.22,1.3,12.06,12.58,28.66,19.8,46.09,20.05l-2.21,119.94h6.82l-1.38-79.16,9.87-5.2-1.51-2.86-8.43,4.44-.65-37.16c35.5-.81,63.85-29.82,63.85-65.33Z"/><path class="cls-2" d="M888.43,97.33c-.02-41.07-33.33-74.35-74.4-74.32-41.07,.02-74.35,33.33-74.32,74.4,0,10.04,2.04,19.97,5.99,29.2-.07-.08-.15-.16-.22-.24,3.3,7.7,7.88,14.78,13.54,20.96,.02,.02,.03,.04,.05,.06,.46,.5,.92,.99,1.39,1.48,13.73,14.32,32.62,22.54,52.45,22.82l-2.51,136.48h7.76l-1.57-90.08,11.23-5.91-1.71-3.25-9.59,5.05-.74-42.29c40.39-.93,72.66-33.94,72.66-74.34Z"/><path class="cls-2" d="M1241.63,150.07c-.02-30.8-24.99-55.75-55.79-55.73-30.8,.02-55.75,24.99-55.73,55.79,0,7.53,1.53,14.97,4.49,21.89-.05-.06-.11-.12-.17-.18,2.48,5.77,5.91,11.09,10.16,15.72,.01,.01,.03,.03,.04,.04,.34,.37,.69,.74,1.04,1.11,10.29,10.74,24.46,16.9,39.33,17.11l-1.88,102.34h5.82l-1.18-67.55,8.42-4.43-1.28-2.44-7.19,3.79-.55-31.71c30.29-.69,54.48-25.45,54.48-55.74Z"/><path class="cls-2" d="M1076.13,122.89c-.02-36.09-29.29-65.33-65.38-65.31-36.09,.02-65.33,29.29-65.31,65.38,0,8.82,1.79,17.55,5.26,25.66-.06-.07-.13-.14-.19-.21,2.9,6.76,6.93,12.99,11.9,18.42,.01,.02,.03,.03,.05,.05,.4,.44,.81,.87,1.22,1.3,12.06,12.58,28.66,19.8,46.09,20.05l-2.21,119.94h6.82l-1.38-79.16,9.87-5.2-1.51-2.86-8.43,4.44-.65-37.16c35.5-.81,63.85-29.82,63.85-65.33Z"/><path class="cls-2" d="M1356.1,97.33c-.02-41.07-33.33-74.35-74.4-74.32-41.07,.02-74.35,33.33-74.32,74.4,0,10.04,2.04,19.97,5.99,29.2-.07-.08-.15-.16-.22-.24,3.3,7.7,7.88,14.78,13.54,20.96,.02,.02,.03,.04,.05,.06,.46,.5,.92,.99,1.39,1.48,13.73,14.32,32.62,22.54,52.45,22.82l-2.51,136.48h7.76l-1.57-90.08,11.23-5.91-1.71-3.25-9.59,5.05-.74-42.29c40.39-.93,72.66-33.94,72.66-74.34Z"/><path class="cls-1" d="M1306.23,70.75c-3.06-8.95-11.7-10.14-21.9-8.63l-3.03-12.71-7.73,1.84,2.95,12.37c-2.03,.48-4.1,1.02-6.16,1.55l-2.97-12.45-7.73,1.84,3.02,12.7c-1.67,.43-3.3,.86-4.91,1.24v-.04s-10.68,2.54-10.68,2.54l1.97,8.26s5.69-1.47,5.62-1.34c3.13-.75,4.59,.83,5.26,2.33l3.45,14.48c.22-.05,.5-.11,.83-.14-.26,.06-.53,.13-.82,.2l4.83,20.28c.1,1.02-.11,2.73-2.3,3.25,.12,.06-5.62,1.34-5.62,1.34l.66,9.6,10.07-2.4c1.87-.44,3.72-.85,5.54-1.27l3.07,12.85,7.73-1.84-3.03-12.72c2.13-.46,4.19-.93,6.19-1.41l3.01,12.66,7.73-1.84-3.06-12.83c12.83-3.85,21.15-9.29,19.37-21.77-1.43-10.05-7.1-13.34-14.91-13.35,3.94-3.35,5.79-8.04,3.53-14.59h0Zm-4.27,30.06c2.29,9.6-14.41,12.43-19.65,13.68l-4.06-17.03c5.24-1.25,21.32-6.67,23.71,3.34Zm-9.32-23.17c2.08,8.74-11.88,10.99-16.24,12.03l-3.68-15.44c4.37-1.04,17.75-5.7,19.92,3.42Z"/><path class="cls-1" d="M486.83,193.68c.77-5.14-3.15-7.91-8.5-9.75l1.74-6.97-4.24-1.06-1.69,6.78c-1.12-.28-2.26-.54-3.4-.8l1.7-6.83-4.24-1.06-1.74,6.97c-.92-.21-1.83-.42-2.71-.64v-.02s-5.84-1.46-5.84-1.46l-1.13,4.53s3.15,.72,3.08,.77c1.72,.43,2.03,1.57,1.98,2.47l-1.98,7.94c.12,.03,.27,.07,.44,.14-.14-.03-.29-.07-.45-.11l-2.77,11.12c-.21,.52-.74,1.3-1.94,1.01,.04,.06-3.08-.77-3.08-.77l-2.11,4.86,5.52,1.38c1.03,.26,2.03,.53,3.02,.78l-1.76,7.05,4.24,1.06,1.74-6.97c1.16,.31,2.28,.6,3.38,.88l-1.73,6.94,4.24,1.06,1.76-7.03c7.23,1.37,12.67,.82,14.96-5.73,1.84-5.27-.09-8.31-3.9-10.29,2.77-.64,4.86-2.46,5.42-6.23h0Zm-9.69,13.59c-1.31,5.27-10.18,2.42-13.05,1.71l2.33-9.34c2.88,.72,12.1,2.14,10.73,7.63Zm1.31-13.67c-1.2,4.79-8.58,2.36-10.97,1.76l2.11-8.47c2.39,.6,10.11,1.71,8.86,6.71Z"/><path class="cls-1" d="M93.18,142.06c.77-5.14-3.15-7.91-8.5-9.75l1.74-6.97-4.24-1.06-1.69,6.78c-1.12-.28-2.26-.54-3.4-.8l1.7-6.83-4.24-1.06-1.74,6.97c-.92-.21-1.83-.42-2.71-.64v-.02s-5.84-1.46-5.84-1.46l-1.13,4.53s3.15,.72,3.08,.77c1.72,.43,2.03,1.57,1.98,2.47l-1.98,7.94c.12,.03,.27,.07,.44,.14-.14-.03-.29-.07-.45-.11l-2.77,11.12c-.21,.52-.74,1.3-1.94,1.01,.04,.06-3.08-.77-3.08-.77l-2.11,4.86,5.52,1.38c1.03,.26,2.03,.53,3.02,.78l-1.76,7.05,4.24,1.06,1.74-6.97c1.16,.31,2.28,.6,3.38,.88l-1.73,6.94,4.24,1.06,1.76-7.03c7.23,1.37,12.67,.82,14.96-5.73,1.84-5.27-.09-8.31-3.9-10.29,2.77-.64,4.86-2.46,5.42-6.23h0Zm-9.69,13.59c-1.31,5.27-10.18,2.42-13.05,1.71l2.33-9.34c2.88,.72,12.1,2.14,10.73,7.63Zm1.31-13.67c-1.2,4.79-8.58,2.36-10.97,1.76l2.11-8.47c2.39,.6,10.11,1.71,8.86,6.71Z"/><path class="cls-1" d="M169.58,115.69l4.83-18.17,11.43-4.17,2.84-10.68-.1-.26-11.25,4.11,8.1-30.51h-22.98l-10.6,39.82-8.85,3.23-2.92,11.01,8.84-3.23-6.25,23.47h61.17l3.92-14.61h-38.18"/><path class="cls-1" d="M609.64,165.03l3.45-12.98,8.16-2.98,2.03-7.63-.07-.19-8.04,2.94,5.79-21.8h-16.42l-7.57,28.45-6.32,2.31-2.09,7.87,6.32-2.31-4.46,16.77h43.7l2.8-10.44h-27.28"/><path class="cls-1" d="M368.5,91.67l-18.09,30.01,18.09,10.69,18.09-10.69-18.09-30.01Zm-18.09,33.44l18.09,25.49,18.1-25.49-18.1,10.69-18.09-10.69Z"/><path class="cls-1" d="M1204.75,143.67c.77-5.14-3.15-7.91-8.5-9.75l1.74-6.97-4.24-1.06-1.69,6.78c-1.12-.28-2.26-.54-3.4-.8l1.7-6.83-4.24-1.06-1.74,6.97c-.92-.21-1.83-.42-2.71-.64v-.02s-5.84-1.46-5.84-1.46l-1.13,4.53s3.15,.72,3.08,.77c1.72,.43,2.03,1.57,1.98,2.47l-1.98,7.94c.12,.03,.27,.07,.44,.14-.14-.03-.29-.07-.45-.11l-2.77,11.12c-.21,.52-.74,1.3-1.94,1.01,.04,.06-3.08-.77-3.08-.77l-2.11,4.86,5.52,1.38c1.03,.26,2.03,.53,3.02,.78l-1.76,7.05,4.24,1.06,1.74-6.97c1.16,.31,2.28,.6,3.38,.88l-1.73,6.94,4.24,1.06,1.76-7.03c7.23,1.37,12.67,.82,14.96-5.73,1.84-5.27-.09-8.31-3.9-10.29,2.77-.64,4.86-2.46,5.42-6.23h0Zm-9.69,13.59c-1.31,5.27-10.18,2.42-13.05,1.71l2.33-9.34c2.88,.72,12.1,2.14,10.73,7.63Zm1.31-13.67c-1.2,4.79-8.58,2.36-10.97,1.76l2.11-8.47c2.39,.6,10.11,1.71,8.86,6.71Z"/><path class="cls-1" d="M1010.6,93.28l-18.09,30.01,18.09,10.69,18.09-10.69-18.09-30.01Zm-18.09,33.44l18.09,25.49,18.1-25.49-18.1,10.69-18.09-10.69Z"/><path class="cls-1" d="M813.32,112.24h28.03v14.09h-17.26c.28,4.03,.44,7.77,.72,11.78h-14.52v-11.64h-17.26c0-4.61-.58-9.2,.28-13.51,.44-2.3,3.02-4.31,4.61-6.32,5.46-6.47,10.93-12.79,16.53-19.27,2.16-2.44,4.31-4.75,6.75-7.47h-26.88v-14.09h15.95v-11.78h13.94v11.5h17.4c0,4.75,.58,9.34-.28,13.66-.44,2.3-3.02,4.31-4.75,6.32-5.46,6.47-10.93,12.79-16.53,19.27-2.13,2.57-4.28,4.86-6.74,7.46Z"/></g><g><path class="cls-3" d="M401.32,305.26s.48-10.1,10.37-8.93"/><circle class="cls-4" cx="398.53" cy="290.7" r="4.95"/><rect class="cls-3" x="397.73" y="299.03" width="1.4" height="9.77"/><path class="cls-3" d="M58.54,303.86s.48-10.1,10.37-8.93"/><circle class="cls-4" cx="55.74" cy="289.3" r="4.95" transform="translate(-235.25 335.39) rotate(-88.09)"/><rect class="cls-3" x="54.94" y="297.63" width="1.4" height="9.77"/><path class="cls-3" d="M139.52,304.56s.48-10.1,10.37-8.93"/><circle class="cls-4" cx="136.73" cy="290" r="4.95"/><rect class="cls-3" x="135.92" y="298.33" width="1.4" height="9.77"/><path class="cls-3" d="M536.68,308.92s.48-10.1,10.37-8.93"/><path class="cls-3" d="M443.82,308.92s.48-10.1,10.37-8.93"/><path class="cls-3" d="M105.23,308.92s.48-10.1,10.37-8.93"/><path class="cls-3" d="M578.56,308.92s.48-10.1,10.37-8.93"/><path class="cls-3" d="M559.02,308.92s.48-10.1,10.37-8.93"/><path class="cls-3" d="M518.69,308.92s-.48-10.1-10.37-8.93"/><path class="cls-3" d="M358.12,308.92s-.48-10.1-10.37-8.93"/><path class="cls-3" d="M224.78,308.92s-.48-10.1-10.37-8.93"/><path class="cls-3" d="M83.05,308.92s-.48-10.1-10.37-8.93"/><path class="cls-3" d="M620.62,308.92s-.48-10.1-10.37-8.93"/><path class="cls-3" d="M560.58,309.62s-.48-10.1-10.37-8.93"/></g><g><path class="cls-3" d="M1062.32,305.26s.48-10.1,10.37-8.93"/><circle class="cls-4" cx="1059.53" cy="290.7" r="4.95"/><rect class="cls-3" x="1058.73" y="299.03" width="1.4" height="9.77"/><path class="cls-3" d="M719.54,303.86s.48-10.1,10.37-8.93"/><circle class="cls-4" cx="716.74" cy="289.3" r="4.95" transform="translate(403.75 996.02) rotate(-88.09)"/><rect class="cls-3" x="715.94" y="297.63" width="1.4" height="9.77"/><path class="cls-3" d="M800.52,304.56s.48-10.1,10.37-8.93"/><circle class="cls-4" cx="797.73" cy="290" r="4.95"/><rect class="cls-3" x="796.92" y="298.33" width="1.4" height="9.77"/><path class="cls-3" d="M1197.68,308.92s.48-10.1,10.37-8.93"/><path class="cls-3" d="M1104.82,308.92s.48-10.1,10.37-8.93"/><path class="cls-3" d="M766.23,308.92s.48-10.1,10.37-8.93"/><path class="cls-3" d="M1239.56,308.92s.48-10.1,10.37-8.93"/><path class="cls-3" d="M1220.02,308.92s.48-10.1,10.37-8.93"/><path class="cls-3" d="M1179.69,308.92s-.48-10.1-10.37-8.93"/><path class="cls-3" d="M1019.12,308.92s-.48-10.1-10.37-8.93"/><path class="cls-3" d="M885.78,308.92s-.48-10.1-10.37-8.93"/><path class="cls-3" d="M744.05,308.92s-.48-10.1-10.37-8.93"/><path class="cls-3" d="M1281.62,308.92s-.48-10.1-10.37-8.93"/><path class="cls-3" d="M1221.58,309.62s-.48-10.1-10.37-8.93"/></g></svg>