<?xml version="1.0" encoding="UTF-8" standalone="no"?>
<svg
   id="Layer_1"
   viewBox="0 0 45 45"
   version="1.1"
   width="45"
   height="45"
   xmlns="http://www.w3.org/2000/svg"
   xmlns:svg="http://www.w3.org/2000/svg">
  <defs
     id="defs4">
    <style
       id="style2">.cls-1{fill:#333;}.cls-2{fill:#6bcbba;}</style>
  </defs>
  <g
     id="g10"
     transform="translate(-4.65,-7.96)">
    <g
       id="g12">
      <g
         id="g836"
         transform="matrix(1.1922291,0,0,1.1922291,-4.1281298,1.2205813)">
        <path
           id="path16"
           class="cls-1"
           d="m 24.63,35.01 c -1.95,0 -3.54,-1.59 -3.54,-3.54 0,-1.95 1.59,-3.54 3.54,-3.54 1.95,0 3.54,1.59 3.54,3.54 0,1.95 -1.59,3.54 -3.54,3.54 z M 38.95,11.26 c -3.08,0 -5.58,2.5 -5.58,5.58 0,1.04 0.28,2 0.78,2.83 l -6.34,6.34 c -0.94,-0.55 -2.03,-0.86 -3.19,-0.86 -1.24,0 -2.4,0.36 -3.38,0.98 L 16.39,21.3 c -0.49,0.97 -1.5,1.64 -2.67,1.64 -1.65,0 -2.99,-1.34 -2.99,-2.99 0,-1.65 1.34,-2.99 2.99,-2.99 1.65,0 2.94,1.3 2.98,2.91 l 2.33,2.33 c 0.29,-0.69 0.46,-1.45 0.46,-2.25 0,-3.18 -2.59,-5.77 -5.77,-5.77 -3.18,0 -5.77,2.59 -5.77,5.77 0,3.18 2.59,5.77 5.77,5.77 0.92,0 1.8,-0.22 2.58,-0.61 l 2.98,2.98 c -0.62,0.98 -0.98,2.14 -0.98,3.38 0,3.49 2.84,6.32 6.32,6.32 3.48,0 6.32,-2.84 6.32,-6.32 0,-1.32 -0.41,-2.55 -1.1,-3.56 l 8.43,-8.36 c -1.22,-0.3 -2.12,-1.4 -2.12,-2.71 0,-1.54 1.25,-2.79 2.8,-2.79 1.55,0 2.79,1.25 2.79,2.79 0,1.06 -0.6,1.99 -1.47,2.46 l -2.89,2.89 c 0.5,0.15 1.02,0.23 1.57,0.23 3.07,0 5.57,-2.5 5.57,-5.57 0,-3.07 -2.5,-5.58 -5.57,-5.58" />
        <path
           id="path18"
           class="cls-2"
           d="m 26.25,31.38 c 0,0.87 -0.71,1.58 -1.58,1.58 -0.87,0 -1.58,-0.71 -1.58,-1.58 0,-0.87 0.71,-1.58 1.58,-1.58 0.87,0 1.58,0.71 1.58,1.58" />
      </g>
    </g>
  </g>
</svg>
