<?xml version="1.0" encoding="UTF-8"?><svg id="Layer_1" xmlns="http://www.w3.org/2000/svg" viewBox="0 0 80 80"><defs><style>.cls-1{fill:#fff;}.cls-2{fill:#333;}.cls-3{fill:#6bcbba;}</style></defs><circle class="cls-3" cx="40.46" cy="36.11" r="26.22"/><path class="cls-2" d="M68.59,69.7H12.32c-3.91,0-7.08-3.18-7.09-7.09v-20.23c0-3.91,3.18-7.09,7.09-7.09h56.28c3.91,0,7.08,3.18,7.09,7.09v20.23c0,3.91-3.18,7.09-7.09,7.09Z"/><g><path class="cls-1" d="M27.02,62.46c-.45,0-.89-.17-1.23-.51l-8.25-8.25c-.33-.33-.52-.79-.51-1.26,0-.47,.2-.92,.54-1.24l8.71-8.25c.7-.66,1.8-.63,2.46,.07,.66,.7,.63,1.8-.07,2.46l-7.41,7.02,6.99,6.99c.68,.68,.68,1.78,0,2.46-.34,.34-.79,.51-1.23,.51Z"/><path class="cls-1" d="M54.61,62.46c-.45,0-.89-.17-1.23-.51-.68-.68-.68-1.78,0-2.46l6.99-6.99-7.41-7.02c-.7-.66-.73-1.76-.07-2.46,.66-.7,1.76-.73,2.46-.07l8.71,8.25c.34,.32,.54,.77,.54,1.24,0,.47-.18,.92-.51,1.26l-8.25,8.25c-.34,.34-.79,.51-1.23,.51Z"/><path class="cls-1" d="M34.99,62.74c-.31,0-.61-.08-.89-.25-.82-.49-1.09-1.56-.6-2.39l10.45-17.42c.5-.82,1.56-1.09,2.39-.6,.82,.49,1.09,1.56,.6,2.39l-10.45,17.42c-.33,.54-.9,.85-1.5,.85Z"/></g></svg>