<?xml version="1.0" encoding="UTF-8"?><svg id="Layer_1" xmlns="http://www.w3.org/2000/svg" viewBox="0 0 80 80"><defs><style>.cls-1{fill:#333;}.cls-2{fill:#6bcbba;}</style></defs><path id="path16" class="cls-1" d="M37.33,62.71c-3.85,0-6.98-3.13-6.98-6.98s3.13-6.98,6.98-6.98,6.98,3.13,6.98,6.98-3.13,6.98-6.98,6.98ZM65.54,15.94c-6.06,0-10.98,4.93-10.98,10.98,0,2.04,.56,3.94,1.53,5.58l-12.48,12.48c-1.85-1.08-3.99-1.7-6.27-1.7-2.45,0-4.73,.71-6.65,1.93l-9.56-9.5c-.97,1.92-2.96,3.23-5.25,3.23-3.24,0-5.88-2.64-5.88-5.88s2.64-5.88,5.88-5.88,5.8,2.55,5.88,5.73l4.58,4.58c.58-1.36,.9-2.86,.9-4.43,0-6.26-5.1-11.36-11.36-11.36s-11.36,5.09-11.36,11.36,5.1,11.36,11.36,11.36c1.82,0,3.54-.43,5.07-1.2l5.87,5.86c-1.22,1.93-1.93,4.2-1.93,6.65,0,6.87,5.59,12.45,12.45,12.45s12.45-5.59,12.45-12.45c0-2.6-.8-5.02-2.17-7.01l16.6-16.45c-2.4-.6-4.18-2.76-4.18-5.34,0-3.04,2.47-5.5,5.51-5.5s5.5,2.47,5.5,5.5c0,2.09-1.17,3.91-2.89,4.84l-5.69,5.69c.98,.29,2.01,.44,3.08,.44,6.05,0,10.98-4.92,10.98-10.98s-4.93-10.98-10.98-10.98"/><path id="path18" class="cls-2" d="M40.51,55.56c0,1.72-1.39,3.11-3.11,3.11s-3.11-1.39-3.11-3.11,1.39-3.11,3.11-3.11,3.11,1.39,3.11,3.11"/></svg>