<?xml version="1.0" encoding="UTF-8"?><svg id="Layer_1" xmlns="http://www.w3.org/2000/svg" viewBox="0 0 200 48"><defs><style>.cls-1{fill:#333;}.cls-2{fill:#6bcbba;}</style></defs><g id="g10"><g id="g12"><path id="path16" class="cls-1" d="M24.63,35.01c-1.95,0-3.54-1.59-3.54-3.54s1.59-3.54,3.54-3.54,3.54,1.59,3.54,3.54-1.59,3.54-3.54,3.54Zm14.32-23.75c-3.08,0-5.58,2.5-5.58,5.58,0,1.04,.28,2,.78,2.83l-6.34,6.34c-.94-.55-2.03-.86-3.19-.86-1.24,0-2.4,.36-3.38,.98l-4.85-4.83c-.49,.97-1.5,1.64-2.67,1.64-1.65,0-2.99-1.34-2.99-2.99s1.34-2.99,2.99-2.99,2.94,1.3,2.98,2.91l2.33,2.33c.29-.69,.46-1.45,.46-2.25,0-3.18-2.59-5.77-5.77-5.77s-5.77,2.59-5.77,5.77,2.59,5.77,5.77,5.77c.92,0,1.8-.22,2.58-.61l2.98,2.98c-.62,.98-.98,2.14-.98,3.38,0,3.49,2.84,6.32,6.32,6.32s6.32-2.84,6.32-6.32c0-1.32-.41-2.55-1.1-3.56l8.43-8.36c-1.22-.3-2.12-1.4-2.12-2.71,0-1.54,1.25-2.79,2.8-2.79s2.79,1.25,2.79,2.79c0,1.06-.6,1.99-1.47,2.46l-2.89,2.89c.5,.15,1.02,.23,1.57,.23,3.07,0,5.57-2.5,5.57-5.57s-2.5-5.58-5.57-5.58"/><path id="path18" class="cls-2" d="M26.25,31.38c0,.87-.71,1.58-1.58,1.58s-1.58-.71-1.58-1.58,.71-1.58,1.58-1.58,1.58,.71,1.58,1.58"/><path id="path20" class="cls-1" d="M56.32,12.77v24.14h-6.3V12.77h6.3"/><path id="path22" class="cls-1" d="M80.12,36.92l-6.27-9.33-3.1,3.44v5.89h-6.3V12.77h6.3v10.13l9.06-10.13h7.3l-8.95,9.99,9.51,14.16h-7.54"/><path id="path24" class="cls-1" d="M99.24,12.77l10.95,14.53V12.77h5.85v24.14h-5.51l-10.95-14.47v14.47h-5.89V12.77h5.55"/><path id="path26" class="cls-1" d="M138.54,12.77h-6.47l-10.37,24.15h6.47l6.96-17.7,6.82,17.7h6.72l-10.13-24.15"/><path id="path28" class="cls-1" d="M160.59,12.77v24.14h-6.3V12.77h6.3"/><path id="path30" class="cls-1" d="M173.64,24.86c0,3.93,3.07,6.96,6.65,6.96s6.51-3.03,6.51-6.96-2.89-6.89-6.51-6.89-6.65,2.96-6.65,6.89Zm19.63-.03c0,7.06-5.58,12.36-13.05,12.36s-13.05-5.3-13.05-12.36,5.58-12.23,13.05-12.23,13.05,5.23,13.05,12.23"/></g></g></svg>