<?xml version="1.0" encoding="UTF-8"?><svg id="Layer_1" xmlns="http://www.w3.org/2000/svg" viewBox="0 0 200 60"><defs><style>.cls-1{fill:#333;}.cls-2{fill:#6bcbba;}</style></defs><g id="g10"><g id="g12"><path id="path16" class="cls-1" d="M30.17,41.82c-2.33,0-4.22-1.89-4.22-4.22s1.89-4.22,4.22-4.22,4.22,1.89,4.22,4.22-1.89,4.22-4.22,4.22ZM47.24,13.52c-3.67,0-6.64,2.98-6.64,6.64,0,1.23,.34,2.38,.92,3.38l-7.55,7.55c-1.12-.65-2.41-1.03-3.8-1.03-1.48,0-2.86,.43-4.02,1.17l-5.78-5.75c-.59,1.16-1.79,1.96-3.18,1.96-1.96,0-3.56-1.6-3.56-3.56s1.6-3.56,3.56-3.56,3.51,1.54,3.56,3.46l2.77,2.77c.35-.82,.54-1.73,.54-2.68,0-3.79-3.08-6.87-6.87-6.87s-6.87,3.08-6.87,6.87,3.08,6.87,6.87,6.87c1.1,0,2.14-.26,3.07-.73l3.55,3.55c-.74,1.16-1.17,2.54-1.17,4.02,0,4.16,3.38,7.54,7.54,7.54s7.53-3.38,7.53-7.54c0-1.57-.48-3.04-1.31-4.24l10.04-9.95c-1.45-.36-2.53-1.67-2.53-3.23,0-1.84,1.49-3.33,3.33-3.33s3.33,1.49,3.33,3.33c0,1.27-.71,2.37-1.75,2.93l-3.44,3.44c.59,.17,1.22,.27,1.87,.27,3.66,0,6.64-2.98,6.64-6.64s-2.98-6.64-6.64-6.64"/><path id="path18" class="cls-2" d="M32.1,37.49c0,1.04-.84,1.88-1.88,1.88s-1.88-.84-1.88-1.88,.84-1.88,1.88-1.88,1.88,.84,1.88,1.88"/><path id="path20" class="cls-1" d="M65.99,14.08v21.32h-5.57V14.08h5.57"/><path id="path22" class="cls-1" d="M87,35.39l-5.53-8.24-2.74,3.04v5.2h-5.57V14.08h5.57v8.94l8-8.94h6.45l-7.91,8.82,8.39,12.5h-6.66"/><path id="path24" class="cls-1" d="M103.88,14.08l9.67,12.83V14.08h5.17v21.32h-4.87l-9.67-12.77v12.77h-5.2V14.08h4.9"/><path id="path26" class="cls-1" d="M138.58,14.07h-5.71l-9.15,21.32h5.71l6.14-15.63,6.02,15.63h5.93l-8.95-21.32"/><path id="path28" class="cls-1" d="M158.05,14.08v21.32h-5.57V14.08h5.57"/><path id="path30" class="cls-1" d="M169.58,24.75c0,3.47,2.71,6.14,5.87,6.14s5.75-2.68,5.75-6.14-2.55-6.08-5.75-6.08-5.87,2.62-5.87,6.08Zm17.33-.03c0,6.23-4.93,10.92-11.53,10.92s-11.53-4.68-11.53-10.92,4.93-10.8,11.53-10.8,11.53,4.62,11.53,10.8"/><path id="path32" d="M62.02,47.76c-.57-.31-1.01-.74-1.33-1.29-.32-.55-.48-1.17-.48-1.85s.16-1.3,.48-1.85c.32-.55,.77-.98,1.34-1.29,.57-.31,1.2-.47,1.91-.47,.53,0,1.02,.09,1.46,.26,.45,.18,.83,.43,1.14,.77l-.48,.48c-.56-.56-1.26-.84-2.1-.84-.56,0-1.07,.13-1.53,.39-.46,.26-.82,.61-1.08,1.06-.26,.45-.39,.95-.39,1.5s.13,1.06,.39,1.5c.26,.45,.62,.8,1.08,1.06,.46,.26,.97,.39,1.53,.39,.85,0,1.55-.28,2.1-.85l.48,.48c-.31,.34-.69,.6-1.14,.78-.45,.18-.94,.27-1.47,.27-.7,0-1.34-.16-1.9-.47"/><path id="path34" d="M70.22,43.06c.34-.18,.75-.27,1.24-.27v.7h-.17c-.56-.01-1,.16-1.32,.51-.32,.35-.48,.83-.48,1.45v2.72h-.72v-5.34h.69v1.05c.17-.36,.42-.63,.76-.81"/><path id="path36" d="M78.28,42.83l-2.67,5.98c-.22,.5-.47,.86-.75,1.07-.28,.21-.63,.31-1.03,.31-.26,0-.5-.04-.72-.12-.22-.08-.42-.2-.58-.37l.34-.54c.27,.27,.6,.41,.97,.41,.24,0,.45-.07,.62-.2,.17-.14,.33-.37,.48-.69l.23-.52-2.39-5.33h.75l2.01,4.54,2.01-4.54h.71"/><path id="path38" d="M83.8,47.32c.3-.17,.54-.42,.72-.74,.17-.32,.26-.68,.26-1.09s-.09-.77-.26-1.08c-.17-.31-.41-.56-.72-.74-.3-.18-.64-.26-1.02-.26s-.72,.09-1.02,.26c-.3,.18-.54,.42-.71,.74-.17,.31-.26,.68-.26,1.08s.09,.77,.26,1.09c.17,.32,.41,.56,.71,.74,.3,.17,.64,.26,1.02,.26s.71-.09,1.02-.26Zm.4-4.19c.41,.23,.72,.55,.95,.96,.23,.41,.35,.88,.35,1.41s-.12,1.01-.35,1.42c-.23,.41-.55,.73-.95,.96-.4,.23-.86,.34-1.37,.34-.43,0-.82-.09-1.17-.27-.35-.18-.63-.44-.86-.79v2.97h-.72v-7.31h.69v1.06c.22-.35,.5-.62,.86-.81,.36-.19,.76-.28,1.2-.28,.5,0,.95,.11,1.36,.34"/><path id="path40" d="M90.57,47.84c-.14,.12-.3,.22-.5,.28-.2,.06-.41,.1-.62,.1-.5,0-.89-.14-1.16-.41-.27-.27-.41-.65-.41-1.15v-3.23h-.95v-.61h.95v-1.17h.72v1.17h1.62v.61h-1.62v3.19c0,.32,.08,.56,.24,.73,.16,.17,.39,.25,.69,.25,.15,0,.29-.02,.43-.07,.14-.05,.26-.12,.36-.2l.25,.52"/><path id="path42" d="M95.68,47.32c.3-.17,.54-.42,.71-.74,.17-.32,.25-.68,.25-1.09s-.08-.77-.25-1.09c-.17-.32-.4-.56-.71-.74-.3-.17-.64-.26-1.02-.26s-.72,.09-1.02,.26c-.3,.17-.54,.42-.71,.74-.17,.32-.26,.68-.26,1.09s.09,.77,.26,1.09c.17,.32,.41,.56,.71,.74,.3,.17,.64,.26,1.02,.26s.72-.09,1.02-.26Zm-2.41,.55c-.41-.23-.74-.56-.97-.97-.24-.41-.36-.88-.36-1.4s.12-.99,.36-1.4c.24-.41,.56-.73,.97-.96,.41-.23,.88-.35,1.39-.35s.98,.12,1.39,.35c.41,.23,.74,.55,.97,.96,.23,.41,.35,.88,.35,1.4s-.12,.99-.35,1.4-.56,.74-.97,.97c-.41,.23-.88,.35-1.39,.35s-.98-.12-1.39-.35"/><path id="path44" d="M102.27,47.37c.29-.19,.51-.45,.65-.81v-.87h-1.67c-.91,0-1.37,.32-1.37,.95,0,.31,.12,.56,.36,.74,.24,.18,.57,.27,.99,.27s.76-.09,1.05-.28h0Zm.81-4.06c.37,.35,.56,.86,.56,1.55v3.31h-.69v-.83c-.16,.28-.4,.49-.72,.65-.31,.16-.69,.23-1.12,.23-.6,0-1.07-.14-1.42-.43-.35-.28-.53-.66-.53-1.13s.16-.82,.49-1.1c.33-.28,.85-.42,1.57-.42h1.7v-.32c0-.46-.13-.81-.39-1.05-.26-.24-.63-.36-1.13-.36-.34,0-.66,.06-.97,.17-.31,.11-.58,.27-.8,.46l-.32-.54c.27-.23,.6-.41,.97-.53,.38-.13,.78-.19,1.2-.19,.7,0,1.23,.17,1.6,.52"/><path id="path46" d="M106.58,48.03c-.4-.13-.71-.28-.93-.47l.32-.57c.22,.18,.5,.32,.84,.43,.34,.11,.69,.17,1.06,.17,.49,0,.85-.08,1.08-.23,.23-.15,.35-.37,.35-.64,0-.2-.06-.35-.19-.46-.13-.11-.29-.2-.49-.25-.2-.06-.46-.11-.78-.17-.43-.08-.78-.16-1.05-.25-.26-.08-.49-.23-.67-.43-.19-.2-.28-.48-.28-.84,0-.45,.19-.81,.56-1.1s.89-.43,1.55-.43c.35,0,.69,.05,1.04,.14,.35,.09,.63,.21,.85,.36l-.31,.58c-.44-.3-.96-.46-1.57-.46-.46,0-.81,.08-1.04,.24-.23,.16-.35,.38-.35,.64,0,.2,.07,.37,.2,.49,.13,.12,.3,.21,.49,.27,.2,.06,.47,.12,.81,.18,.43,.08,.77,.16,1.03,.24,.26,.08,.48,.22,.66,.42,.18,.2,.27,.47,.27,.81,0,.47-.19,.84-.58,1.11-.39,.27-.93,.41-1.62,.41-.43,0-.85-.06-1.24-.19"/><path id="path48" d="M112.33,48.03c-.4-.13-.71-.28-.93-.47l.32-.57c.22,.18,.5,.32,.84,.43,.34,.11,.69,.17,1.06,.17,.49,0,.85-.08,1.08-.23,.23-.15,.35-.37,.35-.64,0-.2-.06-.35-.19-.46-.13-.11-.29-.2-.49-.25-.2-.06-.46-.11-.78-.17-.43-.08-.78-.16-1.05-.25s-.49-.23-.68-.43c-.19-.2-.28-.48-.28-.84,0-.45,.19-.81,.56-1.1,.37-.28,.89-.43,1.55-.43,.35,0,.69,.05,1.04,.14,.35,.09,.63,.21,.85,.36l-.31,.58c-.44-.3-.96-.46-1.57-.46-.46,0-.81,.08-1.04,.24-.23,.16-.35,.38-.35,.64,0,.2,.07,.37,.2,.49s.3,.21,.49,.27c.2,.06,.47,.12,.81,.18,.43,.08,.77,.16,1.03,.24,.26,.08,.48,.22,.66,.42s.27,.47,.27,.81c0,.47-.19,.84-.58,1.11-.39,.27-.93,.41-1.62,.41-.43,0-.85-.06-1.24-.19"/><path id="path50" d="M118.68,43.9c-.35,.33-.55,.76-.59,1.28h3.79c-.05-.53-.25-.96-.59-1.28-.35-.33-.78-.49-1.3-.49s-.95,.16-1.29,.49h0Zm3.87,1.82h-4.47c.04,.56,.25,1,.64,1.35,.39,.34,.87,.51,1.46,.51,.33,0,.64-.06,.91-.18,.28-.12,.52-.29,.72-.52l.41,.47c-.24,.28-.53,.5-.89,.65-.36,.15-.75,.22-1.17,.22-.55,0-1.03-.12-1.46-.35-.42-.23-.75-.56-.99-.97s-.36-.88-.36-1.4,.11-.99,.34-1.4c.23-.41,.54-.73,.93-.96,.4-.23,.84-.35,1.33-.35s.94,.12,1.33,.35c.39,.23,.7,.55,.92,.96,.22,.41,.33,.88,.33,1.41v.22"/><path id="path52" d="M127.64,47.84c-.14,.12-.3,.22-.5,.28-.2,.06-.41,.1-.62,.1-.5,0-.89-.14-1.16-.41-.27-.27-.41-.65-.41-1.15v-3.23h-.95v-.61h.95v-1.17h.72v1.17h1.62v.61h-1.62v3.19c0,.32,.08,.56,.24,.73,.16,.17,.39,.25,.69,.25,.15,0,.29-.02,.43-.07,.14-.05,.26-.12,.36-.2l.25,.52"/><path id="path54" d="M137.53,45.66l-1.71-3.82-1.71,3.82h3.41Zm.27,.61h-3.96l-.85,1.9h-.78l3.25-7.11h.74l3.25,7.11h-.79l-.85-1.9"/><path id="path56" d="M145.58,43.37c.4,.39,.59,.96,.59,1.7v3.1h-.72v-3.03c0-.56-.14-.98-.42-1.27-.28-.29-.67-.44-1.19-.44-.58,0-1.03,.17-1.37,.51-.34,.34-.5,.81-.5,1.42v2.8h-.72v-5.34h.69v.98c.2-.32,.47-.58,.82-.76,.35-.18,.75-.27,1.21-.27,.67,0,1.2,.19,1.6,.58"/><path id="path58" d="M151.59,47.37c.29-.19,.51-.45,.65-.81v-.87h-1.68c-.91,0-1.37,.32-1.37,.95,0,.31,.12,.56,.36,.74,.24,.18,.57,.27,.99,.27s.75-.09,1.05-.28h0Zm.81-4.06c.37,.35,.56,.86,.56,1.55v3.31h-.69v-.83c-.16,.28-.4,.49-.72,.65-.31,.16-.69,.23-1.12,.23-.6,0-1.07-.14-1.42-.43-.35-.28-.53-.66-.53-1.13s.16-.82,.49-1.1c.33-.28,.85-.42,1.57-.42h1.7v-.32c0-.46-.13-.81-.39-1.05-.26-.24-.63-.36-1.13-.36-.34,0-.66,.06-.97,.17-.31,.11-.58,.27-.8,.46l-.32-.54c.27-.23,.6-.41,.97-.53,.38-.13,.78-.19,1.2-.19,.7,0,1.23,.17,1.6,.52"/><path id="path60" d="M155.71,40.63h.72v7.53h-.72v-7.53"/><path id="path62" d="M163.72,42.83l-2.67,5.98c-.22,.5-.47,.86-.75,1.07-.28,.21-.63,.31-1.03,.31-.26,0-.5-.04-.72-.12-.22-.08-.42-.2-.58-.37l.34-.54c.27,.27,.6,.41,.97,.41,.24,0,.45-.07,.62-.2,.17-.14,.33-.37,.48-.69l.23-.52-2.39-5.33h.75l2.01,4.54,2.01-4.54h.71"/><path id="path64" d="M168.49,47.84c-.14,.12-.3,.22-.5,.28-.2,.06-.41,.1-.62,.1-.5,0-.89-.14-1.16-.41-.27-.27-.41-.65-.41-1.15v-3.23h-.95v-.61h.95v-1.17h.72v1.17h1.62v.61h-1.62v3.19c0,.32,.08,.56,.24,.73,.16,.17,.39,.25,.69,.25,.15,0,.29-.02,.43-.07,.14-.05,.26-.12,.36-.2l.25,.52"/><path id="path66" d="M170.59,42.83h.72v5.34h-.72v-5.34Zm-.01-1.32c-.1-.1-.15-.22-.15-.37s.05-.25,.15-.36c.1-.1,.23-.15,.38-.15s.27,.05,.38,.15c.1,.1,.15,.21,.15,.35,0,.15-.05,.27-.15,.38s-.23,.15-.38,.15-.27-.05-.38-.15"/><path id="path68" d="M174.91,47.87c-.42-.23-.74-.55-.98-.97-.24-.42-.36-.88-.36-1.41s.12-.99,.36-1.4c.24-.41,.56-.73,.98-.96,.42-.23,.89-.35,1.42-.35,.46,0,.87,.09,1.23,.27,.36,.18,.65,.44,.86,.79l-.54,.37c-.18-.26-.4-.46-.67-.59-.27-.13-.57-.2-.88-.2-.39,0-.73,.09-1.04,.26-.31,.17-.55,.42-.72,.74-.17,.32-.26,.68-.26,1.09s.09,.78,.26,1.09c.17,.31,.41,.56,.72,.73,.31,.17,.65,.26,1.04,.26,.32,0,.61-.06,.88-.19,.27-.13,.49-.32,.67-.59l.54,.37c-.21,.35-.5,.61-.86,.79-.37,.18-.77,.27-1.23,.27-.53,0-1-.12-1.42-.35"/><path id="path70" d="M180.81,48.03c-.4-.13-.71-.28-.93-.47l.32-.57c.22,.18,.5,.32,.84,.43,.34,.11,.69,.17,1.06,.17,.49,0,.85-.08,1.08-.23,.23-.15,.35-.37,.35-.64,0-.2-.06-.35-.19-.46-.13-.11-.29-.2-.49-.25-.2-.06-.46-.11-.78-.17-.43-.08-.78-.16-1.05-.25-.26-.08-.49-.23-.67-.43-.19-.2-.28-.48-.28-.84,0-.45,.19-.81,.56-1.1,.37-.28,.89-.43,1.55-.43,.35,0,.69,.05,1.04,.14,.35,.09,.63,.21,.85,.36l-.31,.58c-.44-.3-.96-.46-1.57-.46-.46,0-.81,.08-1.04,.24-.23,.16-.35,.38-.35,.64,0,.2,.07,.37,.2,.49,.13,.12,.3,.21,.49,.27,.2,.06,.47,.12,.81,.18,.43,.08,.77,.16,1.03,.24,.26,.08,.48,.22,.66,.42,.18,.2,.27,.47,.27,.81,0,.47-.19,.84-.58,1.11-.39,.27-.93,.41-1.62,.41-.43,0-.85-.06-1.24-.19"/></g></g></svg>