<?xml version="1.0" encoding="UTF-8"?><svg id="Layer_1" xmlns="http://www.w3.org/2000/svg" viewBox="0 0 340 205"><defs><style>.cls-1,.cls-2{fill:#fff;}.cls-3{fill:#ececf1;}.cls-4{fill:#333;}.cls-5{fill:#1a1a1a;}.cls-6{fill:#6bcbba;}.cls-7{fill:none;stroke:#333;stroke-miterlimit:10;stroke-width:2px;}.cls-8{isolation:isolate;opacity:.2;}.cls-2{opacity:.3;}</style></defs><g><circle class="cls-6" cx="169.07" cy="93.31" r="63.17"/><path class="cls-8" d="M122.42,51.12c-13.72,32.08,1.17,69.21,33.26,82.93,24.96,10.67,53.95,4.2,72.01-16.07-13.71,32.08-50.84,46.98-82.93,33.26-32.08-13.71-46.98-50.84-33.26-82.93,2.69-6.29,6.38-12.09,10.92-17.2Z"/><path class="cls-2" d="M198.89,80.22c1.17-7.85-4.8-12.07-12.98-14.89l2.65-10.64-6.48-1.61-2.58,10.36c-1.7-.42-3.45-.82-5.19-1.22l2.6-10.43-6.47-1.61-2.65,10.63c-1.41-.32-2.79-.64-4.13-.97v-.03s-8.92-2.23-8.92-2.23l-1.72,6.92s4.8,1.1,4.7,1.17c2.62,.65,3.1,2.39,3.02,3.77l-3.02,12.12c.18,.05,.41,.11,.67,.22-.22-.05-.45-.11-.68-.17l-4.23,16.98c-.32,.8-1.13,1.99-2.97,1.54,.06,.09-4.71-1.17-4.71-1.17l-3.21,7.41,8.43,2.1c1.57,.39,3.1,.8,4.62,1.19l-2.68,10.76,6.47,1.61,2.65-10.64c1.77,.48,3.48,.92,5.16,1.34l-2.64,10.59,6.48,1.61,2.68-10.74c11.04,2.09,19.34,1.25,22.84-8.74,2.82-8.04-.14-12.68-5.95-15.7,4.23-.98,7.42-3.76,8.27-9.51h0Zm-14.79,20.74c-2,8.04-15.54,3.69-19.93,2.6l3.56-14.25c4.39,1.1,18.46,3.26,16.37,11.65Zm2-20.86c-1.83,7.31-13.09,3.6-16.75,2.69l3.22-12.93c3.66,.91,15.43,2.61,13.53,10.24Z"/></g><path id="a6516cba-8069-4f45-b641-c1f90dba684f-423" class="cls-4" d="M12.43,27.46c-.85,0-1.53,.69-1.53,1.53,0,.84,.68,1.53,1.53,1.53h31.04c.85,0,1.53-.69,1.53-1.53,0-.84-.68-1.53-1.53-1.53H12.43Z"/><path id="a2f9acfe-22a3-4ed4-9cf2-7606b61419d8-424" class="cls-4" d="M12.43,36.48c-.85,0-1.53,.69-1.53,1.53s.68,1.53,1.53,1.53h31.04c.85,0,1.53-.69,1.53-1.53,0-.84-.68-1.53-1.53-1.53H12.43Z"/><path id="ec202844-6974-4039-9753-1a4628c4214d-425" class="cls-4" d="M331.72,23.73c.84,0,1.53-.69,1.53-1.53,0-.84-.68-1.52-1.53-1.53h-31.04c-.84,0-1.53,.68-1.53,1.53,0,.85,.68,1.53,1.53,1.53h31.05Z"/><path id="e7621fd2-cc0e-4ef1-8ca7-425f7b24c113-426" class="cls-4" d="M331.72,14.71c.84,0,1.53-.69,1.53-1.53,0-.84-.68-1.52-1.53-1.53h-31.04c-.84,0-1.53,.68-1.53,1.53,0,.85,.68,1.53,1.53,1.53h31.05Z"/><g><path id="bc1eae62-5e4d-4f76-aab9-42af61f239ce-427" class="cls-4" d="M52.42,174.24c-.85,0-1.53,.69-1.53,1.53s.69,1.53,1.53,1.53h31.04c.85,0,1.53-.69,1.53-1.53s-.69-1.53-1.53-1.53h-31.04Z"/><path id="ace38b77-7629-49a8-ba58-07c8d3bba8b5-428" class="cls-4" d="M52.42,183.26c-.85,0-1.53,.69-1.53,1.53s.69,1.53,1.53,1.53h31.04c.85,0,1.53-.69,1.53-1.53s-.69-1.53-1.53-1.53h-31.04Z"/></g><line class="cls-7" x1="117.24" y1="103.86" x2="149.24" y2="139.86"/><line class="cls-7" x1="164.13" y1="145.72" x2="215.61" y2="94.23"/><g><g><circle class="cls-4" cx="220.57" cy="82.88" r="17.02"/><g><circle class="cls-1" cx="220.57" cy="82.88" r="12.33"/><path class="cls-4" d="M220.57,96.13c-.08,0-.16,0-.25,0-3.54-.06-6.84-1.5-9.29-4.05-2.46-2.55-3.77-5.9-3.71-9.43,.06-3.54,1.5-6.84,4.05-9.29,2.55-2.46,5.9-3.77,9.43-3.71,3.54,.06,6.84,1.5,9.29,4.05,2.46,2.55,3.77,5.9,3.71,9.43-.06,3.54-1.5,6.84-4.05,9.29-2.49,2.4-5.74,3.71-9.19,3.71Zm-.01-24.66c-2.97,0-5.77,1.13-7.91,3.2-2.19,2.12-3.43,4.96-3.49,8.01-.06,3.05,1.08,5.93,3.2,8.13,2.12,2.19,4.96,3.43,8.01,3.49,3.05,.06,5.93-1.08,8.13-3.19,2.19-2.12,3.43-4.96,3.49-8.01,.06-3.05-1.08-5.93-3.2-8.13-2.12-2.19-4.96-3.43-8.01-3.49-.07,0-.14,0-.21,0Z"/></g></g><rect class="cls-4" x="233.86" y="93.57" width="1.84" height="5.99" transform="translate(-1.25 190.04) rotate(-43.96)"/><g><path class="cls-4" d="M238.59,97.58h1.75c.5,0,.91,.41,.91,.91v6.66h-3.58v-6.66c0-.5,.41-.91,.91-.91Z" transform="translate(482.2 8.09) rotate(136.04)"/><path class="cls-4" d="M240.83,105.9s-.02,0-.03,0c-.47,0-.91-.2-1.23-.54l-4.67-4.85c-.35-.36-.34-.95,.02-1.3l2.57-2.48c.18-.17,.41-.26,.65-.26,.24,0,.48,.11,.64,.28l4.67,4.85c.33,.34,.5,.78,.49,1.25,0,.47-.2,.91-.54,1.23l-1.37,1.32c-.33,.32-.76,.49-1.22,.49Zm-.06-1.81h0Zm-3.92-4.18l3.98,4.13,1.25-1.21-3.98-4.13-1.25,1.21Z"/></g><g><circle class="cls-6" cx="220.57" cy="82.88" r="5.26"/><path id="path18" class="cls-5" d="M216.64,82.38c0-.88,.71-1.59,1.59-1.59s1.59,.71,1.59,1.59-.71,1.59-1.59,1.59-1.59-.71-1.59-1.59"/></g></g><g><g><circle class="cls-4" cx="163.42" cy="145.18" r="17.02"/><g><circle class="cls-1" cx="163.42" cy="145.18" r="12.33"/><path class="cls-4" d="M163.43,158.43c-.08,0-.16,0-.25,0-3.54-.06-6.84-1.5-9.29-4.05-2.46-2.55-3.77-5.9-3.71-9.43,.06-3.54,1.5-6.84,4.05-9.29,2.55-2.46,5.9-3.77,9.43-3.71,3.54,.06,6.84,1.5,9.29,4.05,2.46,2.55,3.77,5.9,3.71,9.43-.06,3.54-1.5,6.84-4.05,9.29-2.49,2.4-5.74,3.71-9.19,3.71Zm-.01-24.66c-2.97,0-5.77,1.13-7.91,3.2-2.19,2.12-3.43,4.96-3.49,8.01-.06,3.05,1.08,5.93,3.2,8.13,2.12,2.19,4.96,3.43,8.01,3.49,3.05,.06,5.93-1.08,8.13-3.19,2.19-2.12,3.43-4.96,3.49-8.01,.06-3.05-1.08-5.93-3.2-8.13-2.12-2.19-4.96-3.43-8.01-3.49-.07,0-.14,0-.21,0Z"/></g></g><rect class="cls-4" x="176.72" y="155.87" width="1.84" height="5.99" transform="translate(-60.51 167.82) rotate(-43.96)"/><g><path class="cls-4" d="M181.44,159.88h1.75c.5,0,.91,.41,.91,.91v6.66h-3.58v-6.66c0-.5,.41-.91,.91-.91Z" transform="translate(427.16 154.9) rotate(136.04)"/><path class="cls-4" d="M183.68,168.2s-.02,0-.03,0c-.47,0-.91-.2-1.23-.54l-4.67-4.85c-.35-.36-.34-.95,.02-1.3l2.57-2.48c.18-.17,.41-.26,.65-.26,.24,0,.48,.11,.64,.28l4.67,4.85c.33,.34,.5,.78,.49,1.25,0,.47-.2,.91-.54,1.23l-1.37,1.32c-.33,.32-.76,.49-1.22,.49Zm-.06-1.81h0Zm-3.92-4.18l3.98,4.13,1.25-1.21-3.98-4.13-1.25,1.21Z"/></g><g><circle class="cls-6" cx="163.42" cy="145.18" r="5.26"/><path id="path18-2" class="cls-5" d="M159.5,144.68c0-.88,.71-1.59,1.59-1.59,.88,0,1.59,.71,1.59,1.59,0,.88-.71,1.59-1.59,1.59s-1.59-.71-1.59-1.59"/></g></g><g><g><circle class="cls-4" cx="114.95" cy="97.78" r="17.02"/><g><circle class="cls-1" cx="114.95" cy="97.78" r="12.33"/><path class="cls-4" d="M101.7,97.6c0-.08,0-.16,0-.25,.12-3.54,1.6-6.82,4.18-9.23,2.58-2.42,5.95-3.69,9.49-3.57,3.54,.12,6.82,1.6,9.23,4.18,2.42,2.58,3.69,5.95,3.57,9.49-.12,3.54-1.6,6.82-4.18,9.23-2.58,2.42-5.95,3.69-9.49,3.57-3.54-.12-6.82-1.6-9.23-4.18-2.36-2.52-3.63-5.8-3.58-9.24Zm24.65,.35c.04-2.97-1.05-5.79-3.08-7.96-2.08-2.22-4.91-3.5-7.95-3.6-3.05-.1-5.95,.99-8.17,3.08-2.22,2.08-3.5,4.91-3.6,7.95-.1,3.05,.99,5.95,3.08,8.17,2.08,2.22,4.91,3.5,7.95,3.6,3.05,.1,5.95-.99,8.17-3.08,2.22-2.08,3.5-4.91,3.6-7.95,0-.07,0-.14,0-.21Z"/></g></g><rect class="cls-4" x="98.06" y="110.88" width="5.99" height="1.84" transform="translate(-49.12 99.29) rotate(-43.13)"/><g><path class="cls-4" d="M95.32,112.62h1.75c.5,0,.91,.41,.91,.91v6.66h-3.58v-6.66c0-.5,.41-.91,.91-.91Z" transform="translate(77 266.2) rotate(-133.13)"/><path class="cls-4" d="M91.64,117.71s0-.02,0-.03c.02-.47,.21-.9,.55-1.22l4.91-4.6c.37-.35,.95-.33,1.3,.04l2.44,2.61c.17,.18,.26,.41,.25,.66,0,.24-.11,.47-.29,.64l-4.91,4.6c-.34,.32-.79,.49-1.26,.47-.47-.02-.9-.21-1.22-.55l-1.3-1.39c-.31-.33-.48-.77-.47-1.22Zm1.81-.03h0Zm4.24-3.86l-4.19,3.92,1.19,1.27,4.19-3.92-1.19-1.27Z"/></g><g><circle class="cls-6" cx="114.95" cy="97.78" r="5.26"/><path id="path18-3" class="cls-5" d="M115.5,93.86c.88,.01,1.58,.73,1.57,1.61s-.73,1.58-1.61,1.57-1.58-.73-1.57-1.61,.73-1.58,1.61-1.57"/></g></g><polygon class="cls-3" points="68.24 166.47 66.24 166.47 66.24 155.36 136.24 155.36 136.24 157.36 68.24 157.36 68.24 166.47"/><polygon class="cls-3" points="93.24 96.87 27.25 96.87 27.25 47.86 29.25 47.86 29.25 94.87 93.24 94.87 93.24 96.87"/><polygon class="cls-3" points="318.26 81.89 245.07 81.89 245.07 79.89 316.26 79.89 316.26 32.88 318.26 32.88 318.26 81.89"/></svg>