<?xml version="1.0" encoding="UTF-8"?><svg id="Layer_1" xmlns="http://www.w3.org/2000/svg" viewBox="0 0 580 420"><defs><style>.cls-1{fill:#f7f7f9;}.cls-2,.cls-3{fill:#fff;}.cls-4{fill:#ececf1;}.cls-5{fill:#333;}.cls-6{fill:#1a1a1a;}.cls-7{fill:#6bcbba;}.cls-8{fill:gray;}.cls-9{isolation:isolate;opacity:.2;}.cls-3{opacity:.3;}</style></defs><g><path class="cls-4" d="M184.86,188.51c-.02-42.85-34.78-77.57-77.63-77.55-42.85,.02-77.57,34.78-77.55,77.63,0,10.47,2.13,20.83,6.25,30.46-.08-.08-.15-.17-.23-.25,3.45,8.03,8.22,15.43,14.13,21.87,.02,.02,.04,.04,.05,.06,.48,.52,.96,1.04,1.45,1.54,14.32,14.94,34.03,23.51,54.72,23.81l-2.62,142.4h8.1l-1.64-93.99,11.72-6.17-1.79-3.4-10,5.27-.77-44.13c42.15-.97,75.81-35.41,75.81-77.57Z"/><path class="cls-1" d="M116.54,186.68c-1.9-5.55-7.25-6.28-13.57-5.35l-1.88-7.88-4.79,1.14,1.83,7.67c-1.26,.3-2.54,.63-3.82,.96l-1.84-7.72-4.79,1.14,1.87,7.87c-1.03,.27-2.05,.53-3.04,.77v-.02s-6.62,1.57-6.62,1.57l1.22,5.12s3.52-.91,3.48-.83c1.94-.46,2.84,.51,3.26,1.44l2.14,8.97c.13-.03,.31-.07,.51-.09-.16,.04-.33,.08-.51,.12l2.99,12.57c.06,.63-.07,1.69-1.42,2.02,.07,.04-3.49,.83-3.49,.83l.41,5.95,6.24-1.49c1.16-.28,2.31-.53,3.43-.79l1.9,7.97,4.79-1.14-1.88-7.88c1.32-.29,2.6-.58,3.84-.88l1.87,7.85,4.79-1.14-1.89-7.95c7.95-2.38,13.11-5.76,12-13.49-.89-6.23-4.4-8.27-9.24-8.27,2.44-2.08,3.59-4.99,2.19-9.04h0Zm-2.65,18.63c1.42,5.95-8.93,7.7-12.18,8.48l-2.51-10.56c3.25-.77,13.22-4.14,14.7,2.07Zm-5.78-14.36c1.29,5.42-7.36,6.81-10.07,7.46l-2.28-9.57c2.71-.65,11-3.53,12.35,2.12Z"/><path class="cls-4" d="M459.97,296.25c-.01-21.65-17.57-39.19-39.22-39.18-21.65,.01-39.19,17.57-39.18,39.22,0,5.29,1.08,10.53,3.16,15.39-.04-.04-.08-.08-.12-.13,1.74,4.06,4.15,7.79,7.14,11.05,0,0,.02,.02,.03,.03,.24,.26,.48,.52,.73,.78,7.24,7.55,17.19,11.88,27.65,12.03l-1.32,71.95h4.09l-.83-47.48,5.92-3.12-.9-1.72-5.05,2.66-.39-22.29c21.29-.49,38.3-17.89,38.3-39.19Z"/><path class="cls-4" d="M553.38,243.54c-.02-32.13-26.08-58.17-58.21-58.15-32.13,.02-58.17,26.08-58.15,58.21,0,7.85,1.6,15.62,4.68,22.84-.06-.06-.12-.12-.17-.19,2.58,6.02,6.17,11.57,10.6,16.4,.01,.01,.03,.03,.04,.04,.36,.39,.72,.78,1.08,1.16,10.74,11.2,25.52,17.63,41.03,17.85l-1.97,106.78h6.07l-1.23-70.48,8.79-4.63-1.34-2.55-7.5,3.95-.58-33.09c31.6-.72,56.84-26.55,56.84-58.16Z"/><path class="cls-4" d="M380.7,215.19c-.02-37.66-30.56-68.16-68.22-68.14-37.66,.02-68.16,30.56-68.14,68.22,0,9.2,1.87,18.31,5.49,26.77-.07-.07-.14-.15-.2-.22,3.03,7.06,7.23,13.55,12.42,19.22,.02,.02,.03,.03,.05,.05,.42,.46,.84,.91,1.27,1.36,12.59,13.13,29.91,20.66,48.09,20.92l-2.3,125.14h7.12l-1.44-82.59,10.3-5.42-1.57-2.98-8.79,4.63-.68-38.78c37.04-.85,66.62-31.12,66.62-68.16Z"/><circle class="cls-7" cx="174.42" cy="120.17" r="101.69"/><path class="cls-9" d="M99.33,52.25c-22.08,51.65,1.89,111.41,53.54,133.49,40.18,17.18,86.85,6.77,115.91-25.86-22.08,51.65-81.84,75.62-133.49,53.54-51.65-22.08-75.62-81.84-53.54-133.49,4.32-10.12,10.26-19.47,17.58-27.68Z"/><rect class="cls-5" x="174.14" y="276.9" width="19" height="5.03" transform="translate(-109.02 117.72) rotate(-27.77)"/><path class="cls-5" d="M329.96,405.79s.37-7.69,7.89-6.79"/><circle class="cls-7" cx="327.84" cy="394.71" r="3.76"/><rect class="cls-5" x="327.22" y="401.05" width="1.06" height="7.44"/><path class="cls-5" d="M69.09,404.73s.37-7.69,7.89-6.79"/><circle class="cls-7" cx="66.96" cy="393.65" r="3.76" transform="translate(-328.7 447.47) rotate(-88.09)"/><rect class="cls-5" x="66.35" y="399.99" width="1.06" height="7.44"/><path class="cls-5" d="M130.72,405.26s.37-7.69,7.89-6.79"/><circle class="cls-7" cx="128.59" cy="394.18" r="3.76"/><rect class="cls-5" x="127.98" y="400.52" width="1.06" height="7.44"/><path class="cls-5" d="M294.63,58.61l7.55-6.04c-5.87-.65-8.28,2.55-9.26,5.08-4.58-1.9-9.57,.59-9.57,.59l15.11,5.48c-.76-2.04-2.09-3.81-3.82-5.12Z"/><path class="cls-5" d="M409.46,120.13l7.55-6.04c-5.87-.65-8.28,2.55-9.26,5.08-4.58-1.9-9.57,.59-9.57,.59l15.11,5.48c-.76-2.04-2.09-3.81-3.82-5.12Z"/><path class="cls-5" d="M285.6,172.62l7.55-6.04c-5.87-.65-8.28,2.55-9.26,5.08-4.58-1.9-9.57,.59-9.57,.59l15.11,5.48c-.76-2.04-2.09-3.81-3.82-5.12Z"/><path class="cls-5" d="M432.97,408.58s.37-7.69,7.89-6.79"/><path class="cls-5" d="M362.31,408.58s.37-7.69,7.89-6.79"/><path class="cls-5" d="M104.62,408.58s.37-7.69,7.89-6.79"/><path class="cls-5" d="M464.85,408.58s.37-7.69,7.89-6.79"/><path class="cls-5" d="M449.97,408.58s.37-7.69,7.89-6.79"/><path class="cls-5" d="M419.28,408.58s-.37-7.69-7.89-6.79"/><path class="cls-5" d="M297.08,408.58s-.37-7.69-7.89-6.79"/><path class="cls-5" d="M195.6,408.58s-.37-7.69-7.89-6.79"/><path class="cls-5" d="M87.74,408.58s-.37-7.69-7.89-6.79"/><path class="cls-5" d="M496.86,408.58s-.37-7.69-7.89-6.79"/><path class="cls-5" d="M451.16,409.11s-.37-7.69-7.89-6.79"/><rect class="cls-8" x="29.5" y="407.58" width="524.07" height="1.18"/><path class="cls-3" d="M222.42,99.09c1.89-12.64-7.73-19.44-20.89-23.97l4.27-17.12-10.42-2.6-4.16,16.67c-2.74-.68-5.55-1.33-8.35-1.97l4.19-16.78-10.42-2.6-4.27,17.12c-2.27-.52-4.49-1.03-6.66-1.56v-.05s-14.36-3.59-14.36-3.59l-2.77,11.13s7.73,1.77,7.57,1.88c4.22,1.05,4.98,3.85,4.86,6.06l-4.86,19.51c.29,.07,.67,.18,1.08,.35-.35-.09-.72-.18-1.1-.27l-6.82,27.33c-.52,1.28-1.83,3.21-4.78,2.48,.1,.15-7.58-1.89-7.58-1.89l-5.17,11.93,13.56,3.38c2.52,.63,5,1.29,7.43,1.92l-4.31,17.32,10.41,2.6,4.27-17.14c2.84,.77,5.6,1.48,8.31,2.16l-4.26,17.06,10.42,2.6,4.31-17.29c17.77,3.36,31.14,2.01,36.76-14.07,4.53-12.94-.23-20.41-9.58-25.28,6.81-1.57,11.94-6.05,13.31-15.3h0Zm-23.81,33.39c-3.22,12.94-25.01,5.95-32.08,4.19l5.72-22.94c7.07,1.76,29.72,5.25,26.36,18.75Zm3.22-33.58c-2.94,11.77-21.08,5.79-26.96,4.33l5.19-20.81c5.88,1.47,24.83,4.2,21.77,16.49Z"/><polygon class="cls-5" points="174.7 120.17 174.98 120.17 180.01 408.49 169.39 408.49 174.7 120.17"/><path class="cls-1" d="M315,228.54l2.99-11.26,7.08-2.59,1.76-6.62-.06-.16-6.97,2.55,5.02-18.91h-14.25l-6.57,24.68-5.48,2-1.81,6.82,5.48-2-3.87,14.55h37.91l2.43-9.05h-23.67"/><path class="cls-1" d="M420.29,278.65l-11.21,18.6,11.21,6.63,11.21-6.63-11.21-18.6Zm-11.21,20.73l11.21,15.8,11.22-15.8-11.22,6.62-11.21-6.62Z"/><path class="cls-1" d="M495.01,253.4h17.37v8.73h-10.7c.17,2.5,.27,4.81,.44,7.3h-9v-7.22h-10.7c0-2.86-.36-5.7,.17-8.37,.27-1.43,1.87-2.67,2.86-3.92,3.39-4.01,6.77-7.93,10.25-11.94,1.34-1.51,2.67-2.94,4.19-4.63h-16.66v-8.73h9.89v-7.3h8.64v7.13h10.78c0,2.94,.36,5.79-.17,8.47-.27,1.43-1.87,2.67-2.94,3.92-3.39,4.01-6.77,7.93-10.25,11.94-1.32,1.59-2.65,3.01-4.18,4.62Z"/></g><g><g><circle class="cls-5" cx="232.36" cy="324.74" r="44.33"/><g><circle class="cls-2" cx="232.36" cy="324.74" r="32.11"/><path class="cls-5" d="M232.37,359.24c-.21,0-.43,0-.64,0-9.21-.17-17.81-3.91-24.21-10.55-6.4-6.63-9.83-15.36-9.66-24.57,.17-9.21,3.91-17.81,10.55-24.21,6.63-6.4,15.36-9.83,24.57-9.66,9.21,.17,17.81,3.91,24.21,10.55,6.4,6.63,9.83,15.36,9.66,24.57-.17,9.21-3.91,17.81-10.55,24.21-6.48,6.25-14.96,9.67-23.93,9.67Zm-.03-64.22c-7.73,0-15.03,2.94-20.62,8.33-5.71,5.51-8.94,12.92-9.08,20.85-.14,7.94,2.81,15.45,8.32,21.17,5.51,5.71,12.92,8.94,20.85,9.08,7.94,.14,15.45-2.81,21.17-8.32,5.71-5.51,8.94-12.92,9.08-20.85,.14-7.94-2.81-15.45-8.32-21.17-5.51-5.71-12.92-8.94-20.85-9.08-.18,0-.37,0-.55,0Z"/></g></g><rect class="cls-5" x="266.99" y="352.58" width="4.78" height="15.61" transform="translate(-174.69 287.97) rotate(-43.96)"/><g><path class="cls-5" d="M277.84,363h7.49c.5,0,.91,.41,.91,.91v18.81h-9.31v-18.81c0-.5,.41-.91,.91-.91Z" transform="translate(743.1 445.79) rotate(136.04)"/><path class="cls-5" d="M285.13,384.68s-.06,0-.09,0c-1.22-.02-2.36-.52-3.21-1.4l-12.17-12.62c-.92-.95-.89-2.46,.06-3.38l6.7-6.47c.46-.44,1.07-.68,1.7-.67,.63,.01,1.24,.27,1.68,.73l12.17,12.62c.85,.88,1.3,2.04,1.28,3.26-.02,1.22-.52,2.36-1.4,3.21l-3.56,3.44c-.86,.83-1.98,1.28-3.17,1.28Zm-.15-4.72h0Zm-10.22-10.9l10.37,10.75,3.26-3.15-10.37-10.75-3.26,3.15Z"/></g><g><circle class="cls-7" cx="232.36" cy="324.74" r="13.69"/><path id="path18" class="cls-6" d="M222.13,323.43c0-2.29,1.85-4.14,4.14-4.14s4.14,1.85,4.14,4.14c0,2.29-1.85,4.14-4.14,4.14-2.29,0-4.14-1.85-4.14-4.14"/></g></g></svg>