<?xml version="1.0" encoding="UTF-8"?><svg id="Layer_1" xmlns="http://www.w3.org/2000/svg" viewBox="0 0 340 281.48"><defs><style>.cls-1,.cls-2{fill:#fff;}.cls-3{fill:#333;}.cls-4{fill:#6bcbba;}.cls-2{opacity:.3;}</style></defs><circle class="cls-4" cx="151.11" cy="152.85" r="122.62"/><g><rect class="cls-3" x="46.66" y="54.61" width=".86" height="45.83"/><rect class="cls-3" x="46.66" y="114.09" width=".86" height="40.33"/><rect class="cls-3" x="45.37" y="160.84" width="66.39" height=".86"/><rect class="cls-3" x="24.81" y="215.24" width="100.66" height=".86"/><rect class="cls-3" x="208.57" y="25.49" width=".86" height="43.26"/><rect class="cls-3" x="139.16" y="75.6" width="62.98" height=".86"/><rect class="cls-3" x="131.9" y="82.46" width=".86" height="57.83"/><path class="cls-3" d="M47.08,114.58c-4.02,0-7.28-3.26-7.28-7.28s3.26-7.28,7.28-7.28,7.28,3.26,7.28,7.28c0,4.02-3.26,7.28-7.28,7.28Zm0-13.71c-3.55,0-6.43,2.88-6.43,6.43s2.88,6.43,6.43,6.43,6.43-2.88,6.43-6.43c0-3.55-2.88-6.42-6.43-6.43Z"/><path class="cls-3" d="M17.96,222.95c-4.02,0-7.28-3.26-7.28-7.28s3.26-7.28,7.28-7.28,7.28,3.26,7.28,7.28h0c0,4.02-3.26,7.28-7.28,7.28Zm0-13.71c-3.55,0-6.43,2.88-6.43,6.43s2.88,6.43,6.43,6.43,6.43-2.88,6.43-6.43h0c0-3.55-2.88-6.42-6.43-6.43Z"/><circle class="cls-1" cx="47.51" cy="161.27" r="6.85"/><rect class="cls-3" x="224.42" y="106.87" width="71.1" height=".86"/><rect class="cls-3" x="217.13" y="114.09" width=".86" height="40.33"/><rect class="cls-3" x="153.31" y="160.84" width="56.97" height=".86"/><rect class="cls-3" x="253.54" y="164.7" width="59.11" height=".86"/><rect class="cls-3" x="246.69" y="172.41" width=".86" height="36.41"/><rect class="cls-3" x="139.18" y="215.24" width="100.66" height=".86"/><rect class="cls-3" x="131.9" y="182.26" width=".86" height="26.56"/><circle class="cls-1" cx="217.56" cy="107.3" r="6.85"/><path class="cls-3" d="M209,82.88c-4.02,0-7.28-3.26-7.28-7.28s3.26-7.28,7.28-7.28,7.28,3.26,7.28,7.28c0,4.02-3.26,7.28-7.28,7.28Zm0-13.71c-3.55,0-6.43,2.88-6.43,6.43s2.88,6.43,6.43,6.43,6.43-2.88,6.43-6.43c0-3.55-2.88-6.42-6.43-6.43h0Z"/><path class="cls-3" d="M132.32,82.88c-4.02,0-7.28-3.26-7.28-7.28s3.26-7.28,7.28-7.28,7.28,3.26,7.28,7.28c0,4.02-3.26,7.28-7.28,7.28Zm0-13.71c-3.55,0-6.43,2.88-6.43,6.43s2.88,6.43,6.43,6.43,6.43-2.88,6.43-6.43c0-3.55-2.88-6.42-6.43-6.43h0Z"/><path class="cls-3" d="M246.69,172.83c-4.02,0-7.28-3.26-7.28-7.28s3.26-7.28,7.28-7.28,7.28,3.26,7.28,7.28h0c0,4.02-3.26,7.28-7.28,7.28Zm0-13.71c-3.55,0-6.43,2.88-6.43,6.43s2.88,6.43,6.43,6.43,6.43-2.88,6.43-6.43h0c0-3.55-2.88-6.42-6.43-6.43Z"/><circle class="cls-1" cx="246.69" cy="215.67" r="6.85"/><path class="cls-3" d="M132.32,222.95c-4.02,0-7.28-3.26-7.28-7.28s3.26-7.28,7.28-7.28,7.28,3.26,7.28,7.28h0c0,4.02-3.26,7.28-7.28,7.28Zm0-13.71c-3.55,0-6.43,2.88-6.43,6.43s2.88,6.43,6.43,6.43,6.43-2.88,6.43-6.43h0c0-3.55-2.88-6.42-6.43-6.43Z"/><path class="cls-3" d="M217.13,168.55c-4.02,0-7.28-3.26-7.28-7.28s3.26-7.28,7.28-7.28,7.28,3.26,7.28,7.28h0c0,4.02-3.26,7.28-7.28,7.28Zm0-13.71c-3.55,0-6.43,2.88-6.43,6.43s2.88,6.43,6.43,6.43,6.43-2.88,6.43-6.43c0-3.55-2.88-6.42-6.43-6.43Z"/><path class="cls-3" d="M17.96,150.99c-4.73,0-8.57,3.84-8.57,8.57s3.84,8.57,8.57,8.57,8.57-3.84,8.57-8.57c-.01-4.73-3.84-8.55-8.57-8.57Zm0,2.57c1.42,0,2.57,1.15,2.57,2.57s-1.15,2.57-2.57,2.57-2.57-1.15-2.57-2.57c0-1.42,1.15-2.57,2.57-2.57Zm0,12.37c-2.06,0-3.98-1.04-5.14-2.74,.04-1.71,3.43-2.66,5.14-2.66s5.1,.94,5.14,2.66c-1.16,1.71-3.08,2.73-5.14,2.74Z"/><path class="cls-3" d="M47.51,34.05c-4.73,0-8.57,3.84-8.57,8.57s3.84,8.57,8.57,8.57,8.57-3.84,8.57-8.57c-.01-4.73-3.84-8.55-8.57-8.57Zm0,2.57c1.42,0,2.57,1.15,2.57,2.57s-1.15,2.57-2.57,2.57-2.57-1.15-2.57-2.57c0-1.42,1.15-2.57,2.57-2.57Zm0,12.37c-2.06,0-3.98-1.04-5.14-2.74,.04-1.71,3.43-2.66,5.14-2.66s5.1,.94,5.14,2.66c-1.16,1.71-3.08,2.73-5.14,2.74Z"/><path class="cls-3" d="M209,4.5c-4.73,0-8.57,3.84-8.57,8.57s3.84,8.57,8.57,8.57,8.57-3.84,8.57-8.57c-.01-4.73-3.84-8.55-8.57-8.57Zm0,2.57c1.42,0,2.57,1.15,2.57,2.57s-1.15,2.57-2.57,2.57-2.57-1.15-2.57-2.57c0-1.42,1.15-2.57,2.57-2.57Zm0,12.37c-2.06,0-3.98-1.04-5.14-2.74,.04-1.71,3.43-2.66,5.14-2.66s5.1,.94,5.14,2.66c-1.16,1.71-3.08,2.73-5.14,2.74Z"/><path class="cls-3" d="M307.51,98.3c-4.73,0-8.57,3.84-8.57,8.57s3.84,8.57,8.57,8.57,8.57-3.84,8.57-8.57c-.01-4.73-3.84-8.55-8.57-8.57Zm0,2.57c1.42,0,2.57,1.15,2.57,2.57s-1.15,2.57-2.57,2.57-2.57-1.15-2.57-2.57c0-1.42,1.15-2.57,2.57-2.57Zm0,12.37c-2.06,0-3.98-1.04-5.14-2.74,.04-1.71,3.43-2.66,5.14-2.66s5.1,.94,5.14,2.66c-1.16,1.71-3.08,2.73-5.14,2.74Z"/><path class="cls-3" d="M323.79,156.13c-4.73,0-8.57,3.84-8.57,8.57s3.84,8.57,8.57,8.57,8.57-3.84,8.57-8.57c-.01-4.73-3.84-8.55-8.57-8.57Zm0,2.57c1.42,0,2.57,1.15,2.57,2.57s-1.15,2.57-2.57,2.57-2.57-1.15-2.57-2.57c0-1.42,1.15-2.57,2.57-2.57Zm0,12.37c-2.06,0-3.98-1.04-5.14-2.74,.04-1.71,3.43-2.66,5.14-2.66s5.1,.94,5.14,2.66c-1.16,1.71-3.08,2.73-5.14,2.74Z"/></g><path class="cls-2" d="M198.58,111.43c1.07-7.12-4.36-10.95-11.78-13.51l2.41-9.65-5.87-1.46-2.34,9.4c-1.54-.38-3.13-.75-4.71-1.11l2.36-9.46-5.87-1.46-2.41,9.65c-1.28-.29-2.53-.58-3.75-.88v-.03s-8.1-2.02-8.1-2.02l-1.56,6.27s4.36,1,4.27,1.06c2.38,.59,2.81,2.17,2.74,3.42l-2.74,10.99c.16,.04,.38,.1,.61,.2-.2-.05-.4-.1-.62-.15l-3.84,15.4c-.29,.72-1.03,1.81-2.69,1.4,.06,.09-4.27-1.07-4.27-1.07l-2.92,6.72,7.65,1.91c1.42,.36,2.82,.73,4.19,1.08l-2.43,9.76,5.87,1.46,2.41-9.66c1.6,.44,3.16,.84,4.68,1.21l-2.4,9.61,5.87,1.46,2.43-9.74c10.02,1.9,17.55,1.13,20.72-7.93,2.56-7.3-.13-11.5-5.4-14.25,3.84-.89,6.73-3.41,7.5-8.63h0Zm-13.42,18.82c-1.82,7.3-14.1,3.35-18.08,2.36l3.23-12.93c3.98,.99,16.75,2.96,14.86,10.57Zm1.82-18.93c-1.66,6.64-11.88,3.26-15.2,2.44l2.92-11.73c3.32,.83,14,2.37,12.27,9.29Z"/><path class="cls-3" d="M132.34,147.58c-6.98,0-12.64,5.66-12.64,12.64s5.66,12.64,12.64,12.64,12.64-5.66,12.64-12.64c-.02-6.97-5.67-12.62-12.64-12.64Zm0,3.79c2.09,0,3.79,1.7,3.79,3.79s-1.7,3.79-3.79,3.79-3.79-1.7-3.79-3.79c0-2.09,1.7-3.79,3.79-3.79Zm0,18.26c-3.04-.01-5.88-1.53-7.59-4.05,.06-2.53,5.06-3.92,7.59-3.92s7.53,1.39,7.59,3.92c-1.71,2.52-4.54,4.03-7.59,4.05Z"/><g><rect class="cls-3" x="145.93" y="171.3" width="1.86" height="6.07" transform="translate(-79.86 150.79) rotate(-43.96)"/><g><path class="cls-3" d="M150.71,175.35h1.8c.5,0,.91,.41,.91,.91v6.75h-3.62v-6.75c0-.5,.41-.91,.91-.91Z" transform="translate(385.12 202.92) rotate(136.04)"/><path class="cls-3" d="M152.99,183.77s-.02,0-.03,0c-.47,0-.92-.2-1.25-.54l-4.73-4.91c-.36-.37-.35-.96,.02-1.31l2.61-2.51c.18-.17,.42-.26,.66-.26,.25,0,.48,.11,.65,.28l4.73,4.91c.33,.34,.51,.79,.5,1.27,0,.47-.2,.92-.54,1.25l-1.38,1.34c-.33,.32-.77,.5-1.23,.5Zm-.06-1.84h0Zm-3.97-4.24l4.03,4.18,1.27-1.22-4.03-4.18-1.27,1.22Z"/></g><g><circle class="cls-3" cx="132.47" cy="160.47" r="17.23"/><g><circle class="cls-1" cx="132.47" cy="160.47" r="12.48"/><path class="cls-3" d="M132.48,173.88c-.08,0-.17,0-.25,0-3.58-.06-6.92-1.52-9.41-4.1-2.49-2.58-3.82-5.97-3.76-9.55,.06-3.58,1.52-6.92,4.1-9.41,2.58-2.49,5.97-3.82,9.55-3.76,3.58,.06,6.92,1.52,9.41,4.1,2.49,2.58,3.82,5.97,3.76,9.55-.06,3.58-1.52,6.92-4.1,9.41-2.52,2.43-5.81,3.76-9.3,3.76Zm-.01-24.96c-3.01,0-5.84,1.14-8.01,3.24-2.22,2.14-3.48,5.02-3.53,8.11-.06,3.09,1.09,6.01,3.23,8.23,2.14,2.22,5.02,3.48,8.11,3.53,3.09,.06,6.01-1.09,8.23-3.23,2.22-2.14,3.48-5.02,3.53-8.11,.06-3.09-1.09-6.01-3.23-8.23-2.14-2.22-5.02-3.47-8.11-3.53-.07,0-.14,0-.22,0Z"/></g><path class="cls-4" d="M132.49,151.17c-5.27,0-9.53,4.27-9.53,9.53s4.27,9.53,9.53,9.53,9.53-4.27,9.53-9.53c-.02-5.26-4.27-9.52-9.53-9.53Zm0,2.86c1.58,0,2.86,1.28,2.86,2.86s-1.28,2.86-2.86,2.86-2.86-1.28-2.86-2.86c0-1.58,1.28-2.85,2.86-2.86Zm0,13.77c-2.29-.01-4.43-1.15-5.72-3.05,.05-1.91,3.81-2.96,5.72-2.96s5.67,1.05,5.72,2.96c-1.29,1.9-3.43,3.04-5.72,3.05Z"/></g></g></svg>