<?xml version="1.0" encoding="UTF-8"?><svg id="Layer_1" xmlns="http://www.w3.org/2000/svg" xmlns:xlink="http://www.w3.org/1999/xlink" viewBox="0 0 275 90"><defs><style>.cls-1{fill:none;}.cls-2{clip-path:url(#clippath);}.cls-3{fill:#f7f7f9;}.cls-4{fill:#fff;}.cls-5{fill:#ececf1;}.cls-6{fill:#333;}.cls-7{fill:#1a1a1a;}.cls-8,.cls-9{fill:#6bcbba;}.cls-10{fill:#cbcbcb;isolation:isolate;opacity:.2;}.cls-11{clip-path:url(#clippath-1);}.cls-9{opacity:.3;}</style><clipPath id="clippath"><rect class="cls-1" x="-286.34" y="18.84" width="272.93" height="57.61"/></clipPath><clipPath id="clippath-1"><path class="cls-1" d="M10.74,61.28C.58,45.83,25.69,24.02,28.74,22.28c27.64-15.79,43.54,.06,63.02-7.73,10-4,16.07-9.6,30.47-9.6,25,0,30.69,11.92,36.51,16.53,21.14,16.72,28.83,16.31,36.02,.07,3.18-7.18,15.53-14.96,20-14,12.43,2.67,7.83,12.24,16.19,17.72,10.91,7.15,17.68,.38,27.46,9.03,11.17,9.88,8.86,31.75-4.14,38.75-16.52,8.9-72.25,13.76-83.1,9.05-21.74-9.43-60.23,11.35-73.03-.03-9.67-8.59-42.86,4.24-54.31-3.26-6.18-4.05,4.25-7.15-4.75-9.15-12.91-2.87-21.01,2.78-28.35-8.38Z"/></clipPath></defs><g class="cls-2"><g><path class="cls-5" d="M31.63,54.95c0-4.08-3.31-7.39-7.39-7.38-4.08,0-7.39,3.31-7.38,7.39,0,1,.2,1.98,.59,2.9,0,0-.01-.02-.02-.02,.33,.76,.78,1.47,1.35,2.08,0,0,0,0,0,0,.05,.05,.09,.1,.14,.15,1.36,1.42,3.24,2.24,5.21,2.27l-.25,13.56h.77l-.16-8.95,1.12-.59-.17-.32-.95,.5-.07-4.2c4.01-.09,7.22-3.37,7.22-7.39Z"/><path class="cls-5" d="M62.92,44.8c0-6.06-4.91-10.96-10.97-10.96-6.06,0-10.96,4.91-10.96,10.97,0,1.48,.3,2.94,.88,4.3-.01-.01-.02-.02-.03-.04,.49,1.14,1.16,2.18,2,3.09,0,0,0,0,0,0,.07,.07,.14,.15,.2,.22,2.02,2.11,4.81,3.32,7.73,3.36l-.37,20.12h1.14l-.23-13.28,1.66-.87-.25-.48-1.41,.74-.11-6.24c5.96-.14,10.71-5,10.71-10.96Z"/><path class="cls-5" d="M16.69,39.46c0-7.1-5.76-12.85-12.86-12.84-7.1,0-12.85,5.76-12.84,12.86,0,1.73,.35,3.45,1.03,5.05-.01-.01-.03-.03-.04-.04,.57,1.33,1.36,2.55,2.34,3.62,0,0,0,0,0,0,.08,.09,.16,.17,.24,.26,2.37,2.47,5.64,3.89,9.06,3.94l-.43,23.58h1.34l-.27-15.57,1.94-1.02-.3-.56-1.66,.87-.13-7.31c6.98-.16,12.55-5.86,12.55-12.85Z"/><path class="cls-3" d="M3.68,42.35l.68-2.55,1.61-.59,.4-1.5v-.04s-1.59,.58-1.59,.58l1.14-4.29H2.67l-1.49,5.59-1.24,.45-.41,1.55,1.24-.45-.88,3.3H8.49l.55-2.05H3.68"/><path class="cls-3" d="M24.46,50.46l-2.87,4.76,2.87,1.7,2.87-1.7-2.87-4.76Zm-2.87,5.31l2.87,4.05,2.87-4.05-2.87,1.7-2.87-1.7Z"/><path class="cls-3" d="M51.77,47.28h4.73v2.38h-2.91c.05,.68,.07,1.31,.12,1.99h-2.45v-1.97h-2.91c0-.78-.1-1.55,.05-2.28,.07-.39,.51-.73,.78-1.07,.92-1.09,1.84-2.16,2.79-3.25,.37-.41,.73-.8,1.14-1.26h-4.54v-2.38h2.69v-1.99h2.35v1.94h2.94c0,.8,.1,1.58-.05,2.31-.07,.39-.51,.73-.8,1.07-.92,1.09-1.84,2.16-2.79,3.25-.36,.43-.72,.82-1.14,1.26Z"/></g></g><g><g class="cls-11"><rect class="cls-5" x="1.66" y="2.71" width="270.68" height="85.43"/><g><path class="cls-4" d="M68.34,47.83c0-10.04-8.15-18.18-18.19-18.18-10.04,0-18.18,8.15-18.18,18.19,0,2.45,.5,4.88,1.46,7.14-.02-.02-.04-.04-.05-.06,.81,1.88,1.93,3.62,3.31,5.13,0,0,0,0,.01,.01,.11,.12,.22,.24,.34,.36,3.36,3.5,7.98,5.51,12.83,5.58l-.61,33.38h1.9l-.38-22.03,2.75-1.45-.42-.8-2.34,1.23-.18-10.34c9.88-.23,17.77-8.3,17.77-18.18Z"/><path class="cls-5" d="M52.33,47.4c-.45-1.3-1.7-1.47-3.18-1.25l-.44-1.85-1.12,.27,.43,1.8c-.3,.07-.6,.15-.89,.23l-.43-1.81-1.12,.27,.44,1.85c-.24,.06-.48,.12-.71,.18h0s-1.55,.36-1.55,.36l.29,1.2s.83-.21,.82-.2c.46-.11,.67,.12,.76,.34l.5,2.1s.07-.02,.12-.02c-.04,0-.08,.02-.12,.03l.7,2.95c.01,.15-.02,.4-.33,.47,.02,0-.82,.19-.82,.19l.1,1.4,1.46-.35c.27-.06,.54-.12,.8-.18l.45,1.87,1.12-.27-.44-1.85c.31-.07,.61-.14,.9-.21l.44,1.84,1.12-.27-.44-1.86c1.86-.56,3.07-1.35,2.81-3.16-.21-1.46-1.03-1.94-2.17-1.94,.57-.49,.84-1.17,.51-2.12h0Zm-.62,4.37c.33,1.4-2.09,1.81-2.86,1.99l-.59-2.47c.76-.18,3.1-.97,3.44,.49Zm-1.35-3.37c.3,1.27-1.73,1.6-2.36,1.75l-.53-2.24c.63-.15,2.58-.83,2.89,.5Z"/><path class="cls-9" d="M132.82,73.08c0-5.07-4.12-9.19-9.19-9.18-5.07,0-9.19,4.12-9.18,9.19,0,1.24,.25,2.47,.74,3.61,0,0-.02-.02-.03-.03,.41,.95,.97,1.83,1.67,2.59,0,0,0,0,0,0,.06,.06,.11,.12,.17,.18,1.7,1.77,4.03,2.78,6.48,2.82l-.31,16.86h.96l-.19-11.13,1.39-.73-.21-.4-1.18,.62-.09-5.23c4.99-.11,8.98-4.19,8.98-9.18Z"/><path class="cls-4" d="M154.71,60.73c0-7.53-6.11-13.63-13.64-13.63-7.53,0-13.63,6.11-13.63,13.64,0,1.84,.37,3.66,1.1,5.35-.01-.01-.03-.03-.04-.04,.61,1.41,1.45,2.71,2.48,3.84,0,0,0,0,0,.01,.08,.09,.17,.18,.25,.27,2.52,2.63,5.98,4.13,9.62,4.18l-.46,25.03h1.42l-.29-16.52,2.06-1.08-.31-.6-1.76,.93-.14-7.75c7.41-.17,13.32-6.22,13.32-13.63Z"/><path class="cls-4" d="M114.24,54.08c0-8.83-7.16-15.98-15.99-15.97-8.83,0-15.98,7.16-15.97,15.99,0,2.16,.44,4.29,1.29,6.27-.02-.02-.03-.03-.05-.05,.71,1.65,1.69,3.18,2.91,4.5,0,0,0,0,.01,.01,.1,.11,.2,.21,.3,.32,2.95,3.08,7.01,4.84,11.27,4.9l-.54,29.33h1.67l-.34-19.36,2.41-1.27-.37-.7-2.06,1.08-.16-9.09c8.68-.2,15.61-7.29,15.61-15.98Z"/><circle class="cls-4" cx="65.9" cy="31.81" r="23.83"/><path class="cls-10" d="M48.3,15.89c-5.17,12.1,.44,26.11,12.55,31.29,9.42,4.03,20.35,1.59,27.17-6.06-5.17,12.11-19.18,17.72-31.29,12.55-12.11-5.17-17.72-19.18-12.55-31.29,1.01-2.37,2.41-4.56,4.12-6.49Z"/><rect class="cls-6" x="65.83" y="68.54" width="4.45" height="1.18" transform="translate(-24.37 39.66) rotate(-27.77)"/><path class="cls-6" d="M94.07,17.38l1.77-1.42c-1.37-.15-1.94,.6-2.17,1.19-1.07-.45-2.24,.14-2.24,.14l3.54,1.29c-.18-.48-.49-.89-.9-1.2Z"/><path class="cls-6" d="M120.98,31.8l1.77-1.42c-1.37-.15-1.94,.6-2.17,1.19-1.07-.45-2.24,.14-2.24,.14l3.54,1.29c-.18-.48-.49-.89-.9-1.2Z"/><path class="cls-6" d="M91.95,44.1l1.77-1.42c-1.37-.15-1.94,.6-2.17,1.19-1.07-.45-2.24,.14-2.24,.14l3.54,1.29c-.18-.48-.49-.89-.9-1.2Z"/><path class="cls-6" d="M7.9,28.15l1.77-1.42c-1.37-.15-1.94,.6-2.17,1.19-1.07-.45-2.24,.14-2.24,.14l3.54,1.29c-.18-.48-.49-.89-.9-1.2Z"/><path class="cls-6" d="M34.81,42.57l1.77-1.42c-1.37-.15-1.94,.6-2.17,1.19-1.07-.45-2.24,.14-2.24,.14l3.54,1.29c-.18-.48-.49-.89-.9-1.2Z"/><path class="cls-6" d="M5.78,54.88l1.77-1.42c-1.37-.15-1.94,.6-2.17,1.19-1.07-.45-2.24,.14-2.24,.14l3.54,1.29c-.18-.48-.49-.89-.9-1.2Z"/><path class="cls-6" d="M202.9,20.15l1.77-1.42c-1.37-.15-1.94,.6-2.17,1.19-1.07-.45-2.24,.14-2.24,.14l3.54,1.29c-.18-.48-.49-.89-.9-1.2Z"/><path class="cls-6" d="M229.81,34.57l1.77-1.42c-1.37-.15-1.94,.6-2.17,1.19-1.07-.45-2.24,.14-2.24,.14l3.54,1.29c-.18-.48-.49-.89-.9-1.2Z"/><path class="cls-6" d="M200.78,46.88l1.77-1.42c-1.37-.15-1.94,.6-2.17,1.19-1.07-.45-2.24,.14-2.24,.14l3.54,1.29c-.18-.48-.49-.89-.9-1.2Z"/><path class="cls-5" d="M77.15,26.87c.44-2.96-1.81-4.56-4.9-5.62l1-4.01-2.44-.61-.97,3.91c-.64-.16-1.3-.31-1.96-.46l.98-3.93-2.44-.61-1,4.01c-.53-.12-1.05-.24-1.56-.37h0s-3.37-.85-3.37-.85l-.65,2.61s1.81,.42,1.77,.44c.99,.25,1.17,.9,1.14,1.42l-1.14,4.57c.07,.02,.16,.04,.25,.08-.08-.02-.17-.04-.26-.06l-1.6,6.4c-.12,.3-.43,.75-1.12,.58,.02,.04-1.78-.44-1.78-.44l-1.21,2.8,3.18,.79c.59,.15,1.17,.3,1.74,.45l-1.01,4.06,2.44,.61,1-4.02c.67,.18,1.31,.35,1.95,.51l-1,4,2.44,.61,1.01-4.05c4.17,.79,7.3,.47,8.62-3.3,1.06-3.03-.05-4.78-2.24-5.92,1.6-.37,2.8-1.42,3.12-3.59h0Zm-5.58,7.83c-.75,3.03-5.86,1.39-7.52,.98l1.34-5.38c1.66,.41,6.97,1.23,6.18,4.4Zm.76-7.87c-.69,2.76-4.94,1.36-6.32,1.01l1.22-4.88c1.38,.34,5.82,.99,5.1,3.86Z"/><polygon class="cls-6" points="65.96 31.81 66.03 31.81 67.21 99.39 64.72 99.39 65.96 31.81"/><path class="cls-5" d="M98.84,57.21l.7-2.64,1.66-.61,.41-1.55v-.04s-1.65,.6-1.65,.6l1.18-4.43h-3.34l-1.54,5.79-1.29,.47-.42,1.6,1.28-.47-.91,3.41h8.89l.57-2.12h-5.55"/><path class="cls-3" d="M123.52,68.95l-2.63,4.36,2.63,1.55,2.63-1.55-2.63-4.36Zm-2.63,4.86l2.63,3.7,2.63-3.7-2.63,1.55-2.63-1.55Z"/><path class="cls-5" d="M141.03,63.04h4.07v2.05h-2.51c.04,.59,.06,1.13,.1,1.71h-2.11v-1.69h-2.51c0-.67-.08-1.34,.04-1.96,.06-.33,.44-.63,.67-.92,.79-.94,1.59-1.86,2.4-2.8,.31-.35,.63-.69,.98-1.09h-3.9v-2.05h2.32v-1.71h2.03v1.67h2.53c0,.69,.08,1.36-.04,1.99-.06,.33-.44,.63-.69,.92-.79,.94-1.59,1.86-2.4,2.8-.31,.37-.62,.71-.98,1.08Z"/><path class="cls-4" d="M243.82,72.08c0-5.07-4.12-9.19-9.19-9.18-5.07,0-9.19,4.12-9.18,9.19,0,1.24,.25,2.47,.74,3.61,0,0-.02-.02-.03-.03,.41,.95,.97,1.83,1.67,2.59,0,0,0,0,0,0,.06,.06,.11,.12,.17,.18,1.7,1.77,4.03,2.78,6.48,2.82l-.31,16.86h.96l-.19-11.13,1.39-.73-.21-.4-1.18,.62-.09-5.23c4.99-.11,8.98-4.19,8.98-9.18Z"/><path class="cls-4" d="M265.71,59.73c0-7.53-6.11-13.63-13.64-13.63-7.53,0-13.63,6.11-13.63,13.64,0,1.84,.37,3.66,1.1,5.35-.01-.01-.03-.03-.04-.04,.61,1.41,1.45,2.71,2.48,3.84,0,0,0,0,0,.01,.08,.09,.17,.18,.25,.27,2.52,2.63,5.98,4.13,9.62,4.18l-.46,25.03h1.42l-.29-16.52,2.06-1.08-.31-.6-1.76,.93-.14-7.75c7.41-.17,13.32-6.22,13.32-13.63Z"/><path class="cls-4" d="M225.24,53.08c0-8.83-7.16-15.98-15.99-15.97-8.83,0-15.98,7.16-15.97,15.99,0,2.16,.44,4.29,1.29,6.27-.02-.02-.03-.03-.05-.05,.71,1.65,1.69,3.18,2.91,4.5,0,0,0,0,.01,.01,.1,.11,.2,.21,.3,.32,2.95,3.08,7.01,4.84,11.27,4.9l-.54,29.33h1.67l-.34-19.36,2.41-1.27-.37-.7-2.06,1.08-.16-9.09c8.68-.2,15.61-7.29,15.61-15.98Z"/><path class="cls-5" d="M209.84,56.21l.7-2.64,1.66-.61,.41-1.55v-.04s-1.65,.6-1.65,.6l1.18-4.43h-3.34l-1.54,5.79-1.29,.47-.42,1.6,1.28-.47-.91,3.41h8.89l.57-2.12h-5.55"/><path class="cls-5" d="M234.52,67.95l-2.63,4.36,2.63,1.55,2.63-1.55-2.63-4.36Zm-2.63,4.86l2.63,3.7,2.63-3.7-2.63,1.55-2.63-1.55Z"/><path class="cls-5" d="M252.03,62.04h4.07v2.05h-2.51c.04,.59,.06,1.13,.1,1.71h-2.11v-1.69h-2.51c0-.67-.08-1.34,.04-1.96,.06-.33,.44-.63,.67-.92,.79-.94,1.59-1.86,2.4-2.8,.31-.35,.63-.69,.98-1.09h-3.9v-2.05h2.32v-1.71h2.03v1.67h2.53c0,.69,.08,1.36-.04,1.99-.06,.33-.44,.63-.69,.92-.79,.94-1.59,1.86-2.4,2.8-.31,.37-.62,.71-.98,1.08Z"/></g></g><g><g><g><circle class="cls-6" cx="168.76" cy="39.12" r="32.97"/><g><circle class="cls-4" cx="168.76" cy="39.12" r="23.88"/><path class="cls-6" d="M168.77,64.77c-.16,0-.32,0-.48,0-6.85-.12-13.25-2.91-18-7.84-4.76-4.93-7.31-11.42-7.18-18.28,.12-6.85,2.91-13.25,7.84-18,4.93-4.76,11.43-7.31,18.28-7.18,6.85,.12,13.25,2.91,18,7.84,4.76,4.93,7.31,11.42,7.18,18.28-.12,6.85-2.91,13.25-7.84,18-4.82,4.65-11.12,7.19-17.8,7.19Zm-.02-47.76c-5.75,0-11.18,2.19-15.33,6.19-4.25,4.1-6.65,9.61-6.76,15.51-.11,5.9,2.09,11.49,6.19,15.74,4.1,4.25,9.61,6.65,15.51,6.76,5.9,.11,11.49-2.09,15.74-6.19,4.25-4.1,6.65-9.61,6.76-15.51,.11-5.9-2.09-11.49-6.19-15.74-4.1-4.25-9.61-6.65-15.51-6.76-.14,0-.27,0-.41,0Z"/></g></g><rect class="cls-6" x="194.51" y="59.82" width="3.56" height="11.61" transform="translate(9.44 154.65) rotate(-43.96)"/><g><path class="cls-6" d="M202.82,67.58h5.1c.5,0,.91,.41,.91,.91v13.75h-6.93v-13.75c0-.5,.41-.91,.91-.91Z" transform="translate(405.19 -13.73) rotate(136.04)"/><path class="cls-6" d="M208.01,83.7s-.04,0-.06,0c-.91-.02-1.76-.39-2.39-1.04l-9.05-9.39c-.68-.71-.66-1.83,.05-2.51l4.99-4.81c.34-.33,.8-.51,1.27-.5,.47,0,.92,.2,1.25,.54l9.05,9.39c.63,.65,.97,1.51,.95,2.42-.02,.91-.39,1.76-1.04,2.39l-2.65,2.56c-.64,.62-1.47,.95-2.36,.95Zm-.11-3.51h0Zm-7.6-8.1l7.71,8,2.43-2.34-7.71-8-2.43,2.34Z"/></g><g><circle class="cls-8" cx="168.76" cy="39.12" r="10.18"/><path id="path18" class="cls-7" d="M161.16,38.15c0-1.7,1.38-3.08,3.08-3.08,1.7,0,3.08,1.38,3.08,3.08s-1.38,3.08-3.08,3.08c-1.7,0-3.08-1.38-3.08-3.08"/></g></g><g><circle class="cls-8" cx="116.77" cy="62.62" r="16.36"/><path class="cls-6" d="M134.33,83.58h-35.12c-2.44,0-4.42-1.98-4.42-4.42v-12.62c0-2.44,1.98-4.42,4.42-4.42h35.12c2.44,0,4.42,1.98,4.42,4.42v12.62c0,2.44-1.98,4.42-4.42,4.42Z"/><g><path class="cls-4" d="M108.39,79.06c-.28,0-.56-.11-.77-.32l-5.15-5.15c-.21-.21-.32-.49-.32-.78,0-.29,.13-.57,.34-.77l5.44-5.15c.44-.41,1.12-.39,1.54,.04,.41,.44,.39,1.12-.04,1.54l-4.62,4.38,4.36,4.36c.42,.42,.42,1.11,0,1.54-.21,.21-.49,.32-.77,.32Z"/><path class="cls-4" d="M125.61,79.06c-.28,0-.56-.11-.77-.32-.42-.42-.42-1.11,0-1.54l4.36-4.36-4.62-4.38c-.44-.41-.45-1.1-.04-1.54s1.1-.45,1.54-.04l5.44,5.15c.21,.2,.34,.48,.34,.77,0,.29-.11,.58-.32,.78l-5.15,5.15c-.21,.21-.49,.32-.77,.32Z"/><path class="cls-4" d="M113.36,79.23c-.19,0-.38-.05-.56-.16-.51-.31-.68-.98-.37-1.49l6.52-10.87c.31-.51,.98-.68,1.49-.37,.51,.31,.68,.98,.37,1.49l-6.52,10.87c-.2,.34-.56,.53-.93,.53Z"/></g></g></g></g></svg>